%TF.GenerationSoftware,KiCad,Pcbnew,10.0.6*%
%TF.CreationDate,2026-09-10T22:57:20+02:00*%
%TF.ProjectId,haptic_controller,68617074-6963-45f6-936f-6e74726f6c6c,rev?*%
%TF.SameCoordinates,Original*%
%TF.FileFunction,Soldermask,Bot*%
%TF.FilePolarity,Negative*%
%FSLAX46Y46*%
G04 Gerber Fmt 4.6, Leading zero omitted, Abs format (unit mm)*
G04 Created by KiCad (PCBNEW 10.0.6) date 2026-09-10 22:57:20*
%MOMM*%
%LPD*%
G01*
G04 APERTURE LIST*
G04 Aperture macros list*
%AMRoundRect*
0 Rectangle with rounded corners*
0 $1 Rounding radius*
0 $2 $3 $4 $5 $6 $7 $8 $9 X,Y pos of 4 corners*
0 Add a 4 corners polygon primitive as box body*
4,1,4,$2,$3,$4,$5,$6,$7,$8,$9,$2,$3,0*
0 Add four circle primitives for the rounded corners*
1,1,$1+$1,$2,$3*
1,1,$1+$1,$4,$5*
1,1,$1+$1,$6,$7*
1,1,$1+$1,$8,$9*
0 Add four rect primitives between the rounded corners*
20,1,$1+$1,$2,$3,$4,$5,0*
20,1,$1+$1,$4,$5,$6,$7,0*
20,1,$1+$1,$6,$7,$8,$9,0*
20,1,$1+$1,$8,$9,$2,$3,0*%
G04 Aperture macros list end*
%ADD10C,3.100000*%
%ADD11RoundRect,0.300000X1.050000X-1.050000X1.050000X1.050000X-1.050000X1.050000X-1.050000X-1.050000X0*%
%ADD12C,2.700000*%
%ADD13C,3.800000*%
%ADD14RoundRect,0.050000X0.850000X-0.850000X0.850000X0.850000X-0.850000X0.850000X-0.850000X-0.850000X0*%
%ADD15C,1.800000*%
%ADD16RoundRect,0.300000X-0.750000X-0.750000X0.750000X-0.750000X0.750000X0.750000X-0.750000X0.750000X0*%
%ADD17C,2.100000*%
%ADD18RoundRect,0.050000X-0.875000X-0.875000X0.875000X-0.875000X0.875000X0.875000X-0.875000X0.875000X0*%
%ADD19C,1.850000*%
%ADD20C,2.800000*%
G04 APERTURE END LIST*
D10*
%TO.C,TP12*%
X63000000Y-96000000D03*
%TD*%
%TO.C,TP8*%
X88000000Y-101000000D03*
%TD*%
D11*
%TO.C,J2*%
X26000000Y-55000000D03*
D12*
X26000000Y-50000000D03*
X26000000Y-45000000D03*
%TD*%
D10*
%TO.C,TP11*%
X58000000Y-96000000D03*
%TD*%
%TO.C,TP13*%
X68000000Y-96000000D03*
%TD*%
%TO.C,TP4*%
X68000000Y-101000000D03*
%TD*%
D13*
%TO.C,H1*%
X25000000Y-25000000D03*
%TD*%
%TO.C,H3*%
X25000000Y-100000000D03*
%TD*%
%TO.C,H2*%
X125000000Y-25000000D03*
%TD*%
D10*
%TO.C,TP17*%
X88000000Y-96000000D03*
%TD*%
D11*
%TO.C,J1*%
X26000000Y-36000000D03*
D12*
X26000000Y-31000000D03*
%TD*%
D10*
%TO.C,TP16*%
X83000000Y-96000000D03*
%TD*%
%TO.C,TP7*%
X83000000Y-101000000D03*
%TD*%
D14*
%TO.C,J3*%
X35000000Y-97000000D03*
D15*
X37540000Y-97000000D03*
X40080000Y-97000000D03*
X42620000Y-97000000D03*
X45160000Y-97000000D03*
X47700000Y-97000000D03*
%TD*%
D10*
%TO.C,TP5*%
X73000000Y-101000000D03*
%TD*%
D16*
%TO.C,C2*%
X90000000Y-31000000D03*
D17*
X95000000Y-31000000D03*
%TD*%
D11*
%TO.C,J4*%
X26000000Y-73000000D03*
D12*
X26000000Y-68000000D03*
%TD*%
D10*
%TO.C,TP15*%
X78000000Y-96000000D03*
%TD*%
%TO.C,TP9*%
X93000000Y-101000000D03*
%TD*%
%TO.C,TP6*%
X78000000Y-101000000D03*
%TD*%
%TO.C,TP2*%
X58000000Y-101000000D03*
%TD*%
%TO.C,TP14*%
X73000000Y-96000000D03*
%TD*%
D18*
%TO.C,U2*%
X101570000Y-43950000D03*
D19*
X101570000Y-46490000D03*
X101570000Y-49030000D03*
X101570000Y-51570000D03*
X101570000Y-54110000D03*
X101570000Y-56650000D03*
X101570000Y-59190000D03*
X101570000Y-61730000D03*
X101570000Y-64270000D03*
X101570000Y-66810000D03*
X101570000Y-69350000D03*
X101570000Y-71890000D03*
X101570000Y-74430000D03*
X101570000Y-76970000D03*
X101570000Y-79510000D03*
X101570000Y-82050000D03*
X124430000Y-43950000D03*
X124430000Y-46490000D03*
X124430000Y-49030000D03*
X124430000Y-51570000D03*
X124430000Y-54110000D03*
X124430000Y-56650000D03*
X124430000Y-59190000D03*
X124430000Y-61730000D03*
X124430000Y-64270000D03*
X124430000Y-66810000D03*
X124430000Y-69350000D03*
X124430000Y-71890000D03*
X124430000Y-74430000D03*
X124430000Y-76970000D03*
X124430000Y-79510000D03*
X124430000Y-82050000D03*
%TD*%
D20*
%TO.C,F1*%
X53250000Y-28000000D03*
D10*
X42000000Y-28000000D03*
X64500000Y-28000000D03*
%TD*%
%TO.C,TP18*%
X93000000Y-96000000D03*
%TD*%
D13*
%TO.C,H4*%
X125000000Y-100000000D03*
%TD*%
D10*
%TO.C,TP1*%
X53000000Y-101000000D03*
%TD*%
%TO.C,TP3*%
X63000000Y-101000000D03*
%TD*%
%TO.C,TP10*%
X53000000Y-96000000D03*
%TD*%
D16*
%TO.C,C1*%
X77000000Y-31000000D03*
D17*
X82000000Y-31000000D03*
%TD*%
M02*
