%TF.GenerationSoftware,KiCad,Pcbnew,10.0.6*%
%TF.CreationDate,2026-09-10T22:57:20+02:00*%
%TF.ProjectId,haptic_controller,68617074-6963-45f6-936f-6e74726f6c6c,rev?*%
%TF.SameCoordinates,Original*%
%TF.FileFunction,Legend,Top*%
%TF.FilePolarity,Positive*%
%FSLAX46Y46*%
G04 Gerber Fmt 4.6, Leading zero omitted, Abs format (unit mm)*
G04 Created by KiCad (PCBNEW 10.0.6) date 2026-09-10 22:57:20*
%MOMM*%
%LPD*%
G01*
G04 APERTURE LIST*
%ADD10C,0.125000*%
%ADD11C,0.120000*%
%ADD12C,0.200000*%
G04 APERTURE END LIST*
D10*
X75357142Y-81026119D02*
X75023809Y-80549928D01*
X74785714Y-81026119D02*
X74785714Y-80026119D01*
X74785714Y-80026119D02*
X75166666Y-80026119D01*
X75166666Y-80026119D02*
X75261904Y-80073738D01*
X75261904Y-80073738D02*
X75309523Y-80121357D01*
X75309523Y-80121357D02*
X75357142Y-80216595D01*
X75357142Y-80216595D02*
X75357142Y-80359452D01*
X75357142Y-80359452D02*
X75309523Y-80454690D01*
X75309523Y-80454690D02*
X75261904Y-80502309D01*
X75261904Y-80502309D02*
X75166666Y-80549928D01*
X75166666Y-80549928D02*
X74785714Y-80549928D01*
X75738095Y-80121357D02*
X75785714Y-80073738D01*
X75785714Y-80073738D02*
X75880952Y-80026119D01*
X75880952Y-80026119D02*
X76119047Y-80026119D01*
X76119047Y-80026119D02*
X76214285Y-80073738D01*
X76214285Y-80073738D02*
X76261904Y-80121357D01*
X76261904Y-80121357D02*
X76309523Y-80216595D01*
X76309523Y-80216595D02*
X76309523Y-80311833D01*
X76309523Y-80311833D02*
X76261904Y-80454690D01*
X76261904Y-80454690D02*
X75690476Y-81026119D01*
X75690476Y-81026119D02*
X76309523Y-81026119D01*
X77261904Y-81026119D02*
X76690476Y-81026119D01*
X76976190Y-81026119D02*
X76976190Y-80026119D01*
X76976190Y-80026119D02*
X76880952Y-80168976D01*
X76880952Y-80168976D02*
X76785714Y-80264214D01*
X76785714Y-80264214D02*
X76690476Y-80311833D01*
X79357142Y-74930880D02*
X79309523Y-74978500D01*
X79309523Y-74978500D02*
X79166666Y-75026119D01*
X79166666Y-75026119D02*
X79071428Y-75026119D01*
X79071428Y-75026119D02*
X78928571Y-74978500D01*
X78928571Y-74978500D02*
X78833333Y-74883261D01*
X78833333Y-74883261D02*
X78785714Y-74788023D01*
X78785714Y-74788023D02*
X78738095Y-74597547D01*
X78738095Y-74597547D02*
X78738095Y-74454690D01*
X78738095Y-74454690D02*
X78785714Y-74264214D01*
X78785714Y-74264214D02*
X78833333Y-74168976D01*
X78833333Y-74168976D02*
X78928571Y-74073738D01*
X78928571Y-74073738D02*
X79071428Y-74026119D01*
X79071428Y-74026119D02*
X79166666Y-74026119D01*
X79166666Y-74026119D02*
X79309523Y-74073738D01*
X79309523Y-74073738D02*
X79357142Y-74121357D01*
X80309523Y-75026119D02*
X79738095Y-75026119D01*
X80023809Y-75026119D02*
X80023809Y-74026119D01*
X80023809Y-74026119D02*
X79928571Y-74168976D01*
X79928571Y-74168976D02*
X79833333Y-74264214D01*
X79833333Y-74264214D02*
X79738095Y-74311833D01*
X80928571Y-74026119D02*
X81023809Y-74026119D01*
X81023809Y-74026119D02*
X81119047Y-74073738D01*
X81119047Y-74073738D02*
X81166666Y-74121357D01*
X81166666Y-74121357D02*
X81214285Y-74216595D01*
X81214285Y-74216595D02*
X81261904Y-74407071D01*
X81261904Y-74407071D02*
X81261904Y-74645166D01*
X81261904Y-74645166D02*
X81214285Y-74835642D01*
X81214285Y-74835642D02*
X81166666Y-74930880D01*
X81166666Y-74930880D02*
X81119047Y-74978500D01*
X81119047Y-74978500D02*
X81023809Y-75026119D01*
X81023809Y-75026119D02*
X80928571Y-75026119D01*
X80928571Y-75026119D02*
X80833333Y-74978500D01*
X80833333Y-74978500D02*
X80785714Y-74930880D01*
X80785714Y-74930880D02*
X80738095Y-74835642D01*
X80738095Y-74835642D02*
X80690476Y-74645166D01*
X80690476Y-74645166D02*
X80690476Y-74407071D01*
X80690476Y-74407071D02*
X80738095Y-74216595D01*
X80738095Y-74216595D02*
X80785714Y-74121357D01*
X80785714Y-74121357D02*
X80833333Y-74073738D01*
X80833333Y-74073738D02*
X80928571Y-74026119D01*
X75357142Y-75026119D02*
X75023809Y-74549928D01*
X74785714Y-75026119D02*
X74785714Y-74026119D01*
X74785714Y-74026119D02*
X75166666Y-74026119D01*
X75166666Y-74026119D02*
X75261904Y-74073738D01*
X75261904Y-74073738D02*
X75309523Y-74121357D01*
X75309523Y-74121357D02*
X75357142Y-74216595D01*
X75357142Y-74216595D02*
X75357142Y-74359452D01*
X75357142Y-74359452D02*
X75309523Y-74454690D01*
X75309523Y-74454690D02*
X75261904Y-74502309D01*
X75261904Y-74502309D02*
X75166666Y-74549928D01*
X75166666Y-74549928D02*
X74785714Y-74549928D01*
X76309523Y-75026119D02*
X75738095Y-75026119D01*
X76023809Y-75026119D02*
X76023809Y-74026119D01*
X76023809Y-74026119D02*
X75928571Y-74168976D01*
X75928571Y-74168976D02*
X75833333Y-74264214D01*
X75833333Y-74264214D02*
X75738095Y-74311833D01*
X76785714Y-75026119D02*
X76976190Y-75026119D01*
X76976190Y-75026119D02*
X77071428Y-74978500D01*
X77071428Y-74978500D02*
X77119047Y-74930880D01*
X77119047Y-74930880D02*
X77214285Y-74788023D01*
X77214285Y-74788023D02*
X77261904Y-74597547D01*
X77261904Y-74597547D02*
X77261904Y-74216595D01*
X77261904Y-74216595D02*
X77214285Y-74121357D01*
X77214285Y-74121357D02*
X77166666Y-74073738D01*
X77166666Y-74073738D02*
X77071428Y-74026119D01*
X77071428Y-74026119D02*
X76880952Y-74026119D01*
X76880952Y-74026119D02*
X76785714Y-74073738D01*
X76785714Y-74073738D02*
X76738095Y-74121357D01*
X76738095Y-74121357D02*
X76690476Y-74216595D01*
X76690476Y-74216595D02*
X76690476Y-74454690D01*
X76690476Y-74454690D02*
X76738095Y-74549928D01*
X76738095Y-74549928D02*
X76785714Y-74597547D01*
X76785714Y-74597547D02*
X76880952Y-74645166D01*
X76880952Y-74645166D02*
X77071428Y-74645166D01*
X77071428Y-74645166D02*
X77166666Y-74597547D01*
X77166666Y-74597547D02*
X77214285Y-74549928D01*
X77214285Y-74549928D02*
X77261904Y-74454690D01*
X61261905Y-92958119D02*
X61833333Y-92958119D01*
X61547619Y-93958119D02*
X61547619Y-92958119D01*
X62166667Y-93958119D02*
X62166667Y-92958119D01*
X62166667Y-92958119D02*
X62547619Y-92958119D01*
X62547619Y-92958119D02*
X62642857Y-93005738D01*
X62642857Y-93005738D02*
X62690476Y-93053357D01*
X62690476Y-93053357D02*
X62738095Y-93148595D01*
X62738095Y-93148595D02*
X62738095Y-93291452D01*
X62738095Y-93291452D02*
X62690476Y-93386690D01*
X62690476Y-93386690D02*
X62642857Y-93434309D01*
X62642857Y-93434309D02*
X62547619Y-93481928D01*
X62547619Y-93481928D02*
X62166667Y-93481928D01*
X63690476Y-93958119D02*
X63119048Y-93958119D01*
X63404762Y-93958119D02*
X63404762Y-92958119D01*
X63404762Y-92958119D02*
X63309524Y-93100976D01*
X63309524Y-93100976D02*
X63214286Y-93196214D01*
X63214286Y-93196214D02*
X63119048Y-93243833D01*
X64071429Y-93053357D02*
X64119048Y-93005738D01*
X64119048Y-93005738D02*
X64214286Y-92958119D01*
X64214286Y-92958119D02*
X64452381Y-92958119D01*
X64452381Y-92958119D02*
X64547619Y-93005738D01*
X64547619Y-93005738D02*
X64595238Y-93053357D01*
X64595238Y-93053357D02*
X64642857Y-93148595D01*
X64642857Y-93148595D02*
X64642857Y-93243833D01*
X64642857Y-93243833D02*
X64595238Y-93386690D01*
X64595238Y-93386690D02*
X64023810Y-93958119D01*
X64023810Y-93958119D02*
X64642857Y-93958119D01*
X86738095Y-97958119D02*
X87309523Y-97958119D01*
X87023809Y-98958119D02*
X87023809Y-97958119D01*
X87642857Y-98958119D02*
X87642857Y-97958119D01*
X87642857Y-97958119D02*
X88023809Y-97958119D01*
X88023809Y-97958119D02*
X88119047Y-98005738D01*
X88119047Y-98005738D02*
X88166666Y-98053357D01*
X88166666Y-98053357D02*
X88214285Y-98148595D01*
X88214285Y-98148595D02*
X88214285Y-98291452D01*
X88214285Y-98291452D02*
X88166666Y-98386690D01*
X88166666Y-98386690D02*
X88119047Y-98434309D01*
X88119047Y-98434309D02*
X88023809Y-98481928D01*
X88023809Y-98481928D02*
X87642857Y-98481928D01*
X88785714Y-98386690D02*
X88690476Y-98339071D01*
X88690476Y-98339071D02*
X88642857Y-98291452D01*
X88642857Y-98291452D02*
X88595238Y-98196214D01*
X88595238Y-98196214D02*
X88595238Y-98148595D01*
X88595238Y-98148595D02*
X88642857Y-98053357D01*
X88642857Y-98053357D02*
X88690476Y-98005738D01*
X88690476Y-98005738D02*
X88785714Y-97958119D01*
X88785714Y-97958119D02*
X88976190Y-97958119D01*
X88976190Y-97958119D02*
X89071428Y-98005738D01*
X89071428Y-98005738D02*
X89119047Y-98053357D01*
X89119047Y-98053357D02*
X89166666Y-98148595D01*
X89166666Y-98148595D02*
X89166666Y-98196214D01*
X89166666Y-98196214D02*
X89119047Y-98291452D01*
X89119047Y-98291452D02*
X89071428Y-98339071D01*
X89071428Y-98339071D02*
X88976190Y-98386690D01*
X88976190Y-98386690D02*
X88785714Y-98386690D01*
X88785714Y-98386690D02*
X88690476Y-98434309D01*
X88690476Y-98434309D02*
X88642857Y-98481928D01*
X88642857Y-98481928D02*
X88595238Y-98577166D01*
X88595238Y-98577166D02*
X88595238Y-98767642D01*
X88595238Y-98767642D02*
X88642857Y-98862880D01*
X88642857Y-98862880D02*
X88690476Y-98910500D01*
X88690476Y-98910500D02*
X88785714Y-98958119D01*
X88785714Y-98958119D02*
X88976190Y-98958119D01*
X88976190Y-98958119D02*
X89071428Y-98910500D01*
X89071428Y-98910500D02*
X89119047Y-98862880D01*
X89119047Y-98862880D02*
X89166666Y-98767642D01*
X89166666Y-98767642D02*
X89166666Y-98577166D01*
X89166666Y-98577166D02*
X89119047Y-98481928D01*
X89119047Y-98481928D02*
X89071428Y-98434309D01*
X89071428Y-98434309D02*
X88976190Y-98386690D01*
X19136120Y-50333333D02*
X19850405Y-50333333D01*
X19850405Y-50333333D02*
X19993262Y-50380952D01*
X19993262Y-50380952D02*
X20088501Y-50476190D01*
X20088501Y-50476190D02*
X20136120Y-50619047D01*
X20136120Y-50619047D02*
X20136120Y-50714285D01*
X19231358Y-49904761D02*
X19183739Y-49857142D01*
X19183739Y-49857142D02*
X19136120Y-49761904D01*
X19136120Y-49761904D02*
X19136120Y-49523809D01*
X19136120Y-49523809D02*
X19183739Y-49428571D01*
X19183739Y-49428571D02*
X19231358Y-49380952D01*
X19231358Y-49380952D02*
X19326596Y-49333333D01*
X19326596Y-49333333D02*
X19421834Y-49333333D01*
X19421834Y-49333333D02*
X19564691Y-49380952D01*
X19564691Y-49380952D02*
X20136120Y-49952380D01*
X20136120Y-49952380D02*
X20136120Y-49333333D01*
X56261905Y-92958119D02*
X56833333Y-92958119D01*
X56547619Y-93958119D02*
X56547619Y-92958119D01*
X57166667Y-93958119D02*
X57166667Y-92958119D01*
X57166667Y-92958119D02*
X57547619Y-92958119D01*
X57547619Y-92958119D02*
X57642857Y-93005738D01*
X57642857Y-93005738D02*
X57690476Y-93053357D01*
X57690476Y-93053357D02*
X57738095Y-93148595D01*
X57738095Y-93148595D02*
X57738095Y-93291452D01*
X57738095Y-93291452D02*
X57690476Y-93386690D01*
X57690476Y-93386690D02*
X57642857Y-93434309D01*
X57642857Y-93434309D02*
X57547619Y-93481928D01*
X57547619Y-93481928D02*
X57166667Y-93481928D01*
X58690476Y-93958119D02*
X58119048Y-93958119D01*
X58404762Y-93958119D02*
X58404762Y-92958119D01*
X58404762Y-92958119D02*
X58309524Y-93100976D01*
X58309524Y-93100976D02*
X58214286Y-93196214D01*
X58214286Y-93196214D02*
X58119048Y-93243833D01*
X59642857Y-93958119D02*
X59071429Y-93958119D01*
X59357143Y-93958119D02*
X59357143Y-92958119D01*
X59357143Y-92958119D02*
X59261905Y-93100976D01*
X59261905Y-93100976D02*
X59166667Y-93196214D01*
X59166667Y-93196214D02*
X59071429Y-93243833D01*
X65833333Y-45930880D02*
X65785714Y-45978500D01*
X65785714Y-45978500D02*
X65642857Y-46026119D01*
X65642857Y-46026119D02*
X65547619Y-46026119D01*
X65547619Y-46026119D02*
X65404762Y-45978500D01*
X65404762Y-45978500D02*
X65309524Y-45883261D01*
X65309524Y-45883261D02*
X65261905Y-45788023D01*
X65261905Y-45788023D02*
X65214286Y-45597547D01*
X65214286Y-45597547D02*
X65214286Y-45454690D01*
X65214286Y-45454690D02*
X65261905Y-45264214D01*
X65261905Y-45264214D02*
X65309524Y-45168976D01*
X65309524Y-45168976D02*
X65404762Y-45073738D01*
X65404762Y-45073738D02*
X65547619Y-45026119D01*
X65547619Y-45026119D02*
X65642857Y-45026119D01*
X65642857Y-45026119D02*
X65785714Y-45073738D01*
X65785714Y-45073738D02*
X65833333Y-45121357D01*
X66166667Y-45026119D02*
X66785714Y-45026119D01*
X66785714Y-45026119D02*
X66452381Y-45407071D01*
X66452381Y-45407071D02*
X66595238Y-45407071D01*
X66595238Y-45407071D02*
X66690476Y-45454690D01*
X66690476Y-45454690D02*
X66738095Y-45502309D01*
X66738095Y-45502309D02*
X66785714Y-45597547D01*
X66785714Y-45597547D02*
X66785714Y-45835642D01*
X66785714Y-45835642D02*
X66738095Y-45930880D01*
X66738095Y-45930880D02*
X66690476Y-45978500D01*
X66690476Y-45978500D02*
X66595238Y-46026119D01*
X66595238Y-46026119D02*
X66309524Y-46026119D01*
X66309524Y-46026119D02*
X66214286Y-45978500D01*
X66214286Y-45978500D02*
X66166667Y-45930880D01*
X87357142Y-63026119D02*
X87023809Y-62549928D01*
X86785714Y-63026119D02*
X86785714Y-62026119D01*
X86785714Y-62026119D02*
X87166666Y-62026119D01*
X87166666Y-62026119D02*
X87261904Y-62073738D01*
X87261904Y-62073738D02*
X87309523Y-62121357D01*
X87309523Y-62121357D02*
X87357142Y-62216595D01*
X87357142Y-62216595D02*
X87357142Y-62359452D01*
X87357142Y-62359452D02*
X87309523Y-62454690D01*
X87309523Y-62454690D02*
X87261904Y-62502309D01*
X87261904Y-62502309D02*
X87166666Y-62549928D01*
X87166666Y-62549928D02*
X86785714Y-62549928D01*
X88309523Y-63026119D02*
X87738095Y-63026119D01*
X88023809Y-63026119D02*
X88023809Y-62026119D01*
X88023809Y-62026119D02*
X87928571Y-62168976D01*
X87928571Y-62168976D02*
X87833333Y-62264214D01*
X87833333Y-62264214D02*
X87738095Y-62311833D01*
X89261904Y-63026119D02*
X88690476Y-63026119D01*
X88976190Y-63026119D02*
X88976190Y-62026119D01*
X88976190Y-62026119D02*
X88880952Y-62168976D01*
X88880952Y-62168976D02*
X88785714Y-62264214D01*
X88785714Y-62264214D02*
X88690476Y-62311833D01*
X79357142Y-80930880D02*
X79309523Y-80978500D01*
X79309523Y-80978500D02*
X79166666Y-81026119D01*
X79166666Y-81026119D02*
X79071428Y-81026119D01*
X79071428Y-81026119D02*
X78928571Y-80978500D01*
X78928571Y-80978500D02*
X78833333Y-80883261D01*
X78833333Y-80883261D02*
X78785714Y-80788023D01*
X78785714Y-80788023D02*
X78738095Y-80597547D01*
X78738095Y-80597547D02*
X78738095Y-80454690D01*
X78738095Y-80454690D02*
X78785714Y-80264214D01*
X78785714Y-80264214D02*
X78833333Y-80168976D01*
X78833333Y-80168976D02*
X78928571Y-80073738D01*
X78928571Y-80073738D02*
X79071428Y-80026119D01*
X79071428Y-80026119D02*
X79166666Y-80026119D01*
X79166666Y-80026119D02*
X79309523Y-80073738D01*
X79309523Y-80073738D02*
X79357142Y-80121357D01*
X80309523Y-81026119D02*
X79738095Y-81026119D01*
X80023809Y-81026119D02*
X80023809Y-80026119D01*
X80023809Y-80026119D02*
X79928571Y-80168976D01*
X79928571Y-80168976D02*
X79833333Y-80264214D01*
X79833333Y-80264214D02*
X79738095Y-80311833D01*
X80690476Y-80121357D02*
X80738095Y-80073738D01*
X80738095Y-80073738D02*
X80833333Y-80026119D01*
X80833333Y-80026119D02*
X81071428Y-80026119D01*
X81071428Y-80026119D02*
X81166666Y-80073738D01*
X81166666Y-80073738D02*
X81214285Y-80121357D01*
X81214285Y-80121357D02*
X81261904Y-80216595D01*
X81261904Y-80216595D02*
X81261904Y-80311833D01*
X81261904Y-80311833D02*
X81214285Y-80454690D01*
X81214285Y-80454690D02*
X80642857Y-81026119D01*
X80642857Y-81026119D02*
X81261904Y-81026119D01*
X83833333Y-56026119D02*
X83500000Y-55549928D01*
X83261905Y-56026119D02*
X83261905Y-55026119D01*
X83261905Y-55026119D02*
X83642857Y-55026119D01*
X83642857Y-55026119D02*
X83738095Y-55073738D01*
X83738095Y-55073738D02*
X83785714Y-55121357D01*
X83785714Y-55121357D02*
X83833333Y-55216595D01*
X83833333Y-55216595D02*
X83833333Y-55359452D01*
X83833333Y-55359452D02*
X83785714Y-55454690D01*
X83785714Y-55454690D02*
X83738095Y-55502309D01*
X83738095Y-55502309D02*
X83642857Y-55549928D01*
X83642857Y-55549928D02*
X83261905Y-55549928D01*
X84738095Y-55026119D02*
X84261905Y-55026119D01*
X84261905Y-55026119D02*
X84214286Y-55502309D01*
X84214286Y-55502309D02*
X84261905Y-55454690D01*
X84261905Y-55454690D02*
X84357143Y-55407071D01*
X84357143Y-55407071D02*
X84595238Y-55407071D01*
X84595238Y-55407071D02*
X84690476Y-55454690D01*
X84690476Y-55454690D02*
X84738095Y-55502309D01*
X84738095Y-55502309D02*
X84785714Y-55597547D01*
X84785714Y-55597547D02*
X84785714Y-55835642D01*
X84785714Y-55835642D02*
X84738095Y-55930880D01*
X84738095Y-55930880D02*
X84690476Y-55978500D01*
X84690476Y-55978500D02*
X84595238Y-56026119D01*
X84595238Y-56026119D02*
X84357143Y-56026119D01*
X84357143Y-56026119D02*
X84261905Y-55978500D01*
X84261905Y-55978500D02*
X84214286Y-55930880D01*
X82833333Y-59026119D02*
X82500000Y-58549928D01*
X82261905Y-59026119D02*
X82261905Y-58026119D01*
X82261905Y-58026119D02*
X82642857Y-58026119D01*
X82642857Y-58026119D02*
X82738095Y-58073738D01*
X82738095Y-58073738D02*
X82785714Y-58121357D01*
X82785714Y-58121357D02*
X82833333Y-58216595D01*
X82833333Y-58216595D02*
X82833333Y-58359452D01*
X82833333Y-58359452D02*
X82785714Y-58454690D01*
X82785714Y-58454690D02*
X82738095Y-58502309D01*
X82738095Y-58502309D02*
X82642857Y-58549928D01*
X82642857Y-58549928D02*
X82261905Y-58549928D01*
X83404762Y-58454690D02*
X83309524Y-58407071D01*
X83309524Y-58407071D02*
X83261905Y-58359452D01*
X83261905Y-58359452D02*
X83214286Y-58264214D01*
X83214286Y-58264214D02*
X83214286Y-58216595D01*
X83214286Y-58216595D02*
X83261905Y-58121357D01*
X83261905Y-58121357D02*
X83309524Y-58073738D01*
X83309524Y-58073738D02*
X83404762Y-58026119D01*
X83404762Y-58026119D02*
X83595238Y-58026119D01*
X83595238Y-58026119D02*
X83690476Y-58073738D01*
X83690476Y-58073738D02*
X83738095Y-58121357D01*
X83738095Y-58121357D02*
X83785714Y-58216595D01*
X83785714Y-58216595D02*
X83785714Y-58264214D01*
X83785714Y-58264214D02*
X83738095Y-58359452D01*
X83738095Y-58359452D02*
X83690476Y-58407071D01*
X83690476Y-58407071D02*
X83595238Y-58454690D01*
X83595238Y-58454690D02*
X83404762Y-58454690D01*
X83404762Y-58454690D02*
X83309524Y-58502309D01*
X83309524Y-58502309D02*
X83261905Y-58549928D01*
X83261905Y-58549928D02*
X83214286Y-58645166D01*
X83214286Y-58645166D02*
X83214286Y-58835642D01*
X83214286Y-58835642D02*
X83261905Y-58930880D01*
X83261905Y-58930880D02*
X83309524Y-58978500D01*
X83309524Y-58978500D02*
X83404762Y-59026119D01*
X83404762Y-59026119D02*
X83595238Y-59026119D01*
X83595238Y-59026119D02*
X83690476Y-58978500D01*
X83690476Y-58978500D02*
X83738095Y-58930880D01*
X83738095Y-58930880D02*
X83785714Y-58835642D01*
X83785714Y-58835642D02*
X83785714Y-58645166D01*
X83785714Y-58645166D02*
X83738095Y-58549928D01*
X83738095Y-58549928D02*
X83690476Y-58502309D01*
X83690476Y-58502309D02*
X83595238Y-58454690D01*
X66261905Y-92958119D02*
X66833333Y-92958119D01*
X66547619Y-93958119D02*
X66547619Y-92958119D01*
X67166667Y-93958119D02*
X67166667Y-92958119D01*
X67166667Y-92958119D02*
X67547619Y-92958119D01*
X67547619Y-92958119D02*
X67642857Y-93005738D01*
X67642857Y-93005738D02*
X67690476Y-93053357D01*
X67690476Y-93053357D02*
X67738095Y-93148595D01*
X67738095Y-93148595D02*
X67738095Y-93291452D01*
X67738095Y-93291452D02*
X67690476Y-93386690D01*
X67690476Y-93386690D02*
X67642857Y-93434309D01*
X67642857Y-93434309D02*
X67547619Y-93481928D01*
X67547619Y-93481928D02*
X67166667Y-93481928D01*
X68690476Y-93958119D02*
X68119048Y-93958119D01*
X68404762Y-93958119D02*
X68404762Y-92958119D01*
X68404762Y-92958119D02*
X68309524Y-93100976D01*
X68309524Y-93100976D02*
X68214286Y-93196214D01*
X68214286Y-93196214D02*
X68119048Y-93243833D01*
X69023810Y-92958119D02*
X69642857Y-92958119D01*
X69642857Y-92958119D02*
X69309524Y-93339071D01*
X69309524Y-93339071D02*
X69452381Y-93339071D01*
X69452381Y-93339071D02*
X69547619Y-93386690D01*
X69547619Y-93386690D02*
X69595238Y-93434309D01*
X69595238Y-93434309D02*
X69642857Y-93529547D01*
X69642857Y-93529547D02*
X69642857Y-93767642D01*
X69642857Y-93767642D02*
X69595238Y-93862880D01*
X69595238Y-93862880D02*
X69547619Y-93910500D01*
X69547619Y-93910500D02*
X69452381Y-93958119D01*
X69452381Y-93958119D02*
X69166667Y-93958119D01*
X69166667Y-93958119D02*
X69071429Y-93910500D01*
X69071429Y-93910500D02*
X69023810Y-93862880D01*
X66738095Y-97958119D02*
X67309523Y-97958119D01*
X67023809Y-98958119D02*
X67023809Y-97958119D01*
X67642857Y-98958119D02*
X67642857Y-97958119D01*
X67642857Y-97958119D02*
X68023809Y-97958119D01*
X68023809Y-97958119D02*
X68119047Y-98005738D01*
X68119047Y-98005738D02*
X68166666Y-98053357D01*
X68166666Y-98053357D02*
X68214285Y-98148595D01*
X68214285Y-98148595D02*
X68214285Y-98291452D01*
X68214285Y-98291452D02*
X68166666Y-98386690D01*
X68166666Y-98386690D02*
X68119047Y-98434309D01*
X68119047Y-98434309D02*
X68023809Y-98481928D01*
X68023809Y-98481928D02*
X67642857Y-98481928D01*
X69071428Y-98291452D02*
X69071428Y-98958119D01*
X68833333Y-97910500D02*
X68595238Y-98624785D01*
X68595238Y-98624785D02*
X69214285Y-98624785D01*
X79357142Y-77930879D02*
X79309523Y-77978499D01*
X79309523Y-77978499D02*
X79166666Y-78026118D01*
X79166666Y-78026118D02*
X79071428Y-78026118D01*
X79071428Y-78026118D02*
X78928571Y-77978499D01*
X78928571Y-77978499D02*
X78833333Y-77883260D01*
X78833333Y-77883260D02*
X78785714Y-77788022D01*
X78785714Y-77788022D02*
X78738095Y-77597546D01*
X78738095Y-77597546D02*
X78738095Y-77454689D01*
X78738095Y-77454689D02*
X78785714Y-77264213D01*
X78785714Y-77264213D02*
X78833333Y-77168975D01*
X78833333Y-77168975D02*
X78928571Y-77073737D01*
X78928571Y-77073737D02*
X79071428Y-77026118D01*
X79071428Y-77026118D02*
X79166666Y-77026118D01*
X79166666Y-77026118D02*
X79309523Y-77073737D01*
X79309523Y-77073737D02*
X79357142Y-77121356D01*
X80309523Y-78026118D02*
X79738095Y-78026118D01*
X80023809Y-78026118D02*
X80023809Y-77026118D01*
X80023809Y-77026118D02*
X79928571Y-77168975D01*
X79928571Y-77168975D02*
X79833333Y-77264213D01*
X79833333Y-77264213D02*
X79738095Y-77311832D01*
X81261904Y-78026118D02*
X80690476Y-78026118D01*
X80976190Y-78026118D02*
X80976190Y-77026118D01*
X80976190Y-77026118D02*
X80880952Y-77168975D01*
X80880952Y-77168975D02*
X80785714Y-77264213D01*
X80785714Y-77264213D02*
X80690476Y-77311832D01*
X66833333Y-52930880D02*
X66785714Y-52978500D01*
X66785714Y-52978500D02*
X66642857Y-53026119D01*
X66642857Y-53026119D02*
X66547619Y-53026119D01*
X66547619Y-53026119D02*
X66404762Y-52978500D01*
X66404762Y-52978500D02*
X66309524Y-52883261D01*
X66309524Y-52883261D02*
X66261905Y-52788023D01*
X66261905Y-52788023D02*
X66214286Y-52597547D01*
X66214286Y-52597547D02*
X66214286Y-52454690D01*
X66214286Y-52454690D02*
X66261905Y-52264214D01*
X66261905Y-52264214D02*
X66309524Y-52168976D01*
X66309524Y-52168976D02*
X66404762Y-52073738D01*
X66404762Y-52073738D02*
X66547619Y-52026119D01*
X66547619Y-52026119D02*
X66642857Y-52026119D01*
X66642857Y-52026119D02*
X66785714Y-52073738D01*
X66785714Y-52073738D02*
X66833333Y-52121357D01*
X67690476Y-52026119D02*
X67500000Y-52026119D01*
X67500000Y-52026119D02*
X67404762Y-52073738D01*
X67404762Y-52073738D02*
X67357143Y-52121357D01*
X67357143Y-52121357D02*
X67261905Y-52264214D01*
X67261905Y-52264214D02*
X67214286Y-52454690D01*
X67214286Y-52454690D02*
X67214286Y-52835642D01*
X67214286Y-52835642D02*
X67261905Y-52930880D01*
X67261905Y-52930880D02*
X67309524Y-52978500D01*
X67309524Y-52978500D02*
X67404762Y-53026119D01*
X67404762Y-53026119D02*
X67595238Y-53026119D01*
X67595238Y-53026119D02*
X67690476Y-52978500D01*
X67690476Y-52978500D02*
X67738095Y-52930880D01*
X67738095Y-52930880D02*
X67785714Y-52835642D01*
X67785714Y-52835642D02*
X67785714Y-52597547D01*
X67785714Y-52597547D02*
X67738095Y-52502309D01*
X67738095Y-52502309D02*
X67690476Y-52454690D01*
X67690476Y-52454690D02*
X67595238Y-52407071D01*
X67595238Y-52407071D02*
X67404762Y-52407071D01*
X67404762Y-52407071D02*
X67309524Y-52454690D01*
X67309524Y-52454690D02*
X67261905Y-52502309D01*
X67261905Y-52502309D02*
X67214286Y-52597547D01*
X24238095Y-30156119D02*
X24238095Y-29156119D01*
X24238095Y-29632309D02*
X24809523Y-29632309D01*
X24809523Y-30156119D02*
X24809523Y-29156119D01*
X25809523Y-30156119D02*
X25238095Y-30156119D01*
X25523809Y-30156119D02*
X25523809Y-29156119D01*
X25523809Y-29156119D02*
X25428571Y-29298976D01*
X25428571Y-29298976D02*
X25333333Y-29394214D01*
X25333333Y-29394214D02*
X25238095Y-29441833D01*
X54357142Y-74026119D02*
X54023809Y-73549928D01*
X53785714Y-74026119D02*
X53785714Y-73026119D01*
X53785714Y-73026119D02*
X54166666Y-73026119D01*
X54166666Y-73026119D02*
X54261904Y-73073738D01*
X54261904Y-73073738D02*
X54309523Y-73121357D01*
X54309523Y-73121357D02*
X54357142Y-73216595D01*
X54357142Y-73216595D02*
X54357142Y-73359452D01*
X54357142Y-73359452D02*
X54309523Y-73454690D01*
X54309523Y-73454690D02*
X54261904Y-73502309D01*
X54261904Y-73502309D02*
X54166666Y-73549928D01*
X54166666Y-73549928D02*
X53785714Y-73549928D01*
X54690476Y-73026119D02*
X55309523Y-73026119D01*
X55309523Y-73026119D02*
X54976190Y-73407071D01*
X54976190Y-73407071D02*
X55119047Y-73407071D01*
X55119047Y-73407071D02*
X55214285Y-73454690D01*
X55214285Y-73454690D02*
X55261904Y-73502309D01*
X55261904Y-73502309D02*
X55309523Y-73597547D01*
X55309523Y-73597547D02*
X55309523Y-73835642D01*
X55309523Y-73835642D02*
X55261904Y-73930880D01*
X55261904Y-73930880D02*
X55214285Y-73978500D01*
X55214285Y-73978500D02*
X55119047Y-74026119D01*
X55119047Y-74026119D02*
X54833333Y-74026119D01*
X54833333Y-74026119D02*
X54738095Y-73978500D01*
X54738095Y-73978500D02*
X54690476Y-73930880D01*
X55642857Y-73026119D02*
X56261904Y-73026119D01*
X56261904Y-73026119D02*
X55928571Y-73407071D01*
X55928571Y-73407071D02*
X56071428Y-73407071D01*
X56071428Y-73407071D02*
X56166666Y-73454690D01*
X56166666Y-73454690D02*
X56214285Y-73502309D01*
X56214285Y-73502309D02*
X56261904Y-73597547D01*
X56261904Y-73597547D02*
X56261904Y-73835642D01*
X56261904Y-73835642D02*
X56214285Y-73930880D01*
X56214285Y-73930880D02*
X56166666Y-73978500D01*
X56166666Y-73978500D02*
X56071428Y-74026119D01*
X56071428Y-74026119D02*
X55785714Y-74026119D01*
X55785714Y-74026119D02*
X55690476Y-73978500D01*
X55690476Y-73978500D02*
X55642857Y-73930880D01*
X86357142Y-74026119D02*
X86023809Y-73549928D01*
X85785714Y-74026119D02*
X85785714Y-73026119D01*
X85785714Y-73026119D02*
X86166666Y-73026119D01*
X86166666Y-73026119D02*
X86261904Y-73073738D01*
X86261904Y-73073738D02*
X86309523Y-73121357D01*
X86309523Y-73121357D02*
X86357142Y-73216595D01*
X86357142Y-73216595D02*
X86357142Y-73359452D01*
X86357142Y-73359452D02*
X86309523Y-73454690D01*
X86309523Y-73454690D02*
X86261904Y-73502309D01*
X86261904Y-73502309D02*
X86166666Y-73549928D01*
X86166666Y-73549928D02*
X85785714Y-73549928D01*
X86738095Y-73121357D02*
X86785714Y-73073738D01*
X86785714Y-73073738D02*
X86880952Y-73026119D01*
X86880952Y-73026119D02*
X87119047Y-73026119D01*
X87119047Y-73026119D02*
X87214285Y-73073738D01*
X87214285Y-73073738D02*
X87261904Y-73121357D01*
X87261904Y-73121357D02*
X87309523Y-73216595D01*
X87309523Y-73216595D02*
X87309523Y-73311833D01*
X87309523Y-73311833D02*
X87261904Y-73454690D01*
X87261904Y-73454690D02*
X86690476Y-74026119D01*
X86690476Y-74026119D02*
X87309523Y-74026119D01*
X87642857Y-73026119D02*
X88309523Y-73026119D01*
X88309523Y-73026119D02*
X87880952Y-74026119D01*
X24238095Y-105156119D02*
X24238095Y-104156119D01*
X24238095Y-104632309D02*
X24809523Y-104632309D01*
X24809523Y-105156119D02*
X24809523Y-104156119D01*
X25190476Y-104156119D02*
X25809523Y-104156119D01*
X25809523Y-104156119D02*
X25476190Y-104537071D01*
X25476190Y-104537071D02*
X25619047Y-104537071D01*
X25619047Y-104537071D02*
X25714285Y-104584690D01*
X25714285Y-104584690D02*
X25761904Y-104632309D01*
X25761904Y-104632309D02*
X25809523Y-104727547D01*
X25809523Y-104727547D02*
X25809523Y-104965642D01*
X25809523Y-104965642D02*
X25761904Y-105060880D01*
X25761904Y-105060880D02*
X25714285Y-105108500D01*
X25714285Y-105108500D02*
X25619047Y-105156119D01*
X25619047Y-105156119D02*
X25333333Y-105156119D01*
X25333333Y-105156119D02*
X25238095Y-105108500D01*
X25238095Y-105108500D02*
X25190476Y-105060880D01*
X124238095Y-30156119D02*
X124238095Y-29156119D01*
X124238095Y-29632309D02*
X124809523Y-29632309D01*
X124809523Y-30156119D02*
X124809523Y-29156119D01*
X125238095Y-29251357D02*
X125285714Y-29203738D01*
X125285714Y-29203738D02*
X125380952Y-29156119D01*
X125380952Y-29156119D02*
X125619047Y-29156119D01*
X125619047Y-29156119D02*
X125714285Y-29203738D01*
X125714285Y-29203738D02*
X125761904Y-29251357D01*
X125761904Y-29251357D02*
X125809523Y-29346595D01*
X125809523Y-29346595D02*
X125809523Y-29441833D01*
X125809523Y-29441833D02*
X125761904Y-29584690D01*
X125761904Y-29584690D02*
X125190476Y-30156119D01*
X125190476Y-30156119D02*
X125809523Y-30156119D01*
X86261905Y-92958119D02*
X86833333Y-92958119D01*
X86547619Y-93958119D02*
X86547619Y-92958119D01*
X87166667Y-93958119D02*
X87166667Y-92958119D01*
X87166667Y-92958119D02*
X87547619Y-92958119D01*
X87547619Y-92958119D02*
X87642857Y-93005738D01*
X87642857Y-93005738D02*
X87690476Y-93053357D01*
X87690476Y-93053357D02*
X87738095Y-93148595D01*
X87738095Y-93148595D02*
X87738095Y-93291452D01*
X87738095Y-93291452D02*
X87690476Y-93386690D01*
X87690476Y-93386690D02*
X87642857Y-93434309D01*
X87642857Y-93434309D02*
X87547619Y-93481928D01*
X87547619Y-93481928D02*
X87166667Y-93481928D01*
X88690476Y-93958119D02*
X88119048Y-93958119D01*
X88404762Y-93958119D02*
X88404762Y-92958119D01*
X88404762Y-92958119D02*
X88309524Y-93100976D01*
X88309524Y-93100976D02*
X88214286Y-93196214D01*
X88214286Y-93196214D02*
X88119048Y-93243833D01*
X89023810Y-92958119D02*
X89690476Y-92958119D01*
X89690476Y-92958119D02*
X89261905Y-93958119D01*
X66833333Y-56930880D02*
X66785714Y-56978500D01*
X66785714Y-56978500D02*
X66642857Y-57026119D01*
X66642857Y-57026119D02*
X66547619Y-57026119D01*
X66547619Y-57026119D02*
X66404762Y-56978500D01*
X66404762Y-56978500D02*
X66309524Y-56883261D01*
X66309524Y-56883261D02*
X66261905Y-56788023D01*
X66261905Y-56788023D02*
X66214286Y-56597547D01*
X66214286Y-56597547D02*
X66214286Y-56454690D01*
X66214286Y-56454690D02*
X66261905Y-56264214D01*
X66261905Y-56264214D02*
X66309524Y-56168976D01*
X66309524Y-56168976D02*
X66404762Y-56073738D01*
X66404762Y-56073738D02*
X66547619Y-56026119D01*
X66547619Y-56026119D02*
X66642857Y-56026119D01*
X66642857Y-56026119D02*
X66785714Y-56073738D01*
X66785714Y-56073738D02*
X66833333Y-56121357D01*
X67166667Y-56026119D02*
X67833333Y-56026119D01*
X67833333Y-56026119D02*
X67404762Y-57026119D01*
X57904761Y-36051357D02*
X57809523Y-36003738D01*
X57809523Y-36003738D02*
X57714285Y-35908500D01*
X57714285Y-35908500D02*
X57571428Y-35765642D01*
X57571428Y-35765642D02*
X57476190Y-35718023D01*
X57476190Y-35718023D02*
X57380952Y-35718023D01*
X57428571Y-35956119D02*
X57333333Y-35908500D01*
X57333333Y-35908500D02*
X57238095Y-35813261D01*
X57238095Y-35813261D02*
X57190476Y-35622785D01*
X57190476Y-35622785D02*
X57190476Y-35289452D01*
X57190476Y-35289452D02*
X57238095Y-35098976D01*
X57238095Y-35098976D02*
X57333333Y-35003738D01*
X57333333Y-35003738D02*
X57428571Y-34956119D01*
X57428571Y-34956119D02*
X57619047Y-34956119D01*
X57619047Y-34956119D02*
X57714285Y-35003738D01*
X57714285Y-35003738D02*
X57809523Y-35098976D01*
X57809523Y-35098976D02*
X57857142Y-35289452D01*
X57857142Y-35289452D02*
X57857142Y-35622785D01*
X57857142Y-35622785D02*
X57809523Y-35813261D01*
X57809523Y-35813261D02*
X57714285Y-35908500D01*
X57714285Y-35908500D02*
X57619047Y-35956119D01*
X57619047Y-35956119D02*
X57428571Y-35956119D01*
X58809523Y-35956119D02*
X58238095Y-35956119D01*
X58523809Y-35956119D02*
X58523809Y-34956119D01*
X58523809Y-34956119D02*
X58428571Y-35098976D01*
X58428571Y-35098976D02*
X58333333Y-35194214D01*
X58333333Y-35194214D02*
X58238095Y-35241833D01*
X78833333Y-44930880D02*
X78785714Y-44978500D01*
X78785714Y-44978500D02*
X78642857Y-45026119D01*
X78642857Y-45026119D02*
X78547619Y-45026119D01*
X78547619Y-45026119D02*
X78404762Y-44978500D01*
X78404762Y-44978500D02*
X78309524Y-44883261D01*
X78309524Y-44883261D02*
X78261905Y-44788023D01*
X78261905Y-44788023D02*
X78214286Y-44597547D01*
X78214286Y-44597547D02*
X78214286Y-44454690D01*
X78214286Y-44454690D02*
X78261905Y-44264214D01*
X78261905Y-44264214D02*
X78309524Y-44168976D01*
X78309524Y-44168976D02*
X78404762Y-44073738D01*
X78404762Y-44073738D02*
X78547619Y-44026119D01*
X78547619Y-44026119D02*
X78642857Y-44026119D01*
X78642857Y-44026119D02*
X78785714Y-44073738D01*
X78785714Y-44073738D02*
X78833333Y-44121357D01*
X79404762Y-44454690D02*
X79309524Y-44407071D01*
X79309524Y-44407071D02*
X79261905Y-44359452D01*
X79261905Y-44359452D02*
X79214286Y-44264214D01*
X79214286Y-44264214D02*
X79214286Y-44216595D01*
X79214286Y-44216595D02*
X79261905Y-44121357D01*
X79261905Y-44121357D02*
X79309524Y-44073738D01*
X79309524Y-44073738D02*
X79404762Y-44026119D01*
X79404762Y-44026119D02*
X79595238Y-44026119D01*
X79595238Y-44026119D02*
X79690476Y-44073738D01*
X79690476Y-44073738D02*
X79738095Y-44121357D01*
X79738095Y-44121357D02*
X79785714Y-44216595D01*
X79785714Y-44216595D02*
X79785714Y-44264214D01*
X79785714Y-44264214D02*
X79738095Y-44359452D01*
X79738095Y-44359452D02*
X79690476Y-44407071D01*
X79690476Y-44407071D02*
X79595238Y-44454690D01*
X79595238Y-44454690D02*
X79404762Y-44454690D01*
X79404762Y-44454690D02*
X79309524Y-44502309D01*
X79309524Y-44502309D02*
X79261905Y-44549928D01*
X79261905Y-44549928D02*
X79214286Y-44645166D01*
X79214286Y-44645166D02*
X79214286Y-44835642D01*
X79214286Y-44835642D02*
X79261905Y-44930880D01*
X79261905Y-44930880D02*
X79309524Y-44978500D01*
X79309524Y-44978500D02*
X79404762Y-45026119D01*
X79404762Y-45026119D02*
X79595238Y-45026119D01*
X79595238Y-45026119D02*
X79690476Y-44978500D01*
X79690476Y-44978500D02*
X79738095Y-44930880D01*
X79738095Y-44930880D02*
X79785714Y-44835642D01*
X79785714Y-44835642D02*
X79785714Y-44645166D01*
X79785714Y-44645166D02*
X79738095Y-44549928D01*
X79738095Y-44549928D02*
X79690476Y-44502309D01*
X79690476Y-44502309D02*
X79595238Y-44454690D01*
X19136119Y-33833333D02*
X19850404Y-33833333D01*
X19850404Y-33833333D02*
X19993261Y-33880952D01*
X19993261Y-33880952D02*
X20088500Y-33976190D01*
X20088500Y-33976190D02*
X20136119Y-34119047D01*
X20136119Y-34119047D02*
X20136119Y-34214285D01*
X20136119Y-32833333D02*
X20136119Y-33404761D01*
X20136119Y-33119047D02*
X19136119Y-33119047D01*
X19136119Y-33119047D02*
X19278976Y-33214285D01*
X19278976Y-33214285D02*
X19374214Y-33309523D01*
X19374214Y-33309523D02*
X19421833Y-33404761D01*
X91357142Y-66026119D02*
X91023809Y-65549928D01*
X90785714Y-66026119D02*
X90785714Y-65026119D01*
X90785714Y-65026119D02*
X91166666Y-65026119D01*
X91166666Y-65026119D02*
X91261904Y-65073738D01*
X91261904Y-65073738D02*
X91309523Y-65121357D01*
X91309523Y-65121357D02*
X91357142Y-65216595D01*
X91357142Y-65216595D02*
X91357142Y-65359452D01*
X91357142Y-65359452D02*
X91309523Y-65454690D01*
X91309523Y-65454690D02*
X91261904Y-65502309D01*
X91261904Y-65502309D02*
X91166666Y-65549928D01*
X91166666Y-65549928D02*
X90785714Y-65549928D01*
X91690476Y-65026119D02*
X92309523Y-65026119D01*
X92309523Y-65026119D02*
X91976190Y-65407071D01*
X91976190Y-65407071D02*
X92119047Y-65407071D01*
X92119047Y-65407071D02*
X92214285Y-65454690D01*
X92214285Y-65454690D02*
X92261904Y-65502309D01*
X92261904Y-65502309D02*
X92309523Y-65597547D01*
X92309523Y-65597547D02*
X92309523Y-65835642D01*
X92309523Y-65835642D02*
X92261904Y-65930880D01*
X92261904Y-65930880D02*
X92214285Y-65978500D01*
X92214285Y-65978500D02*
X92119047Y-66026119D01*
X92119047Y-66026119D02*
X91833333Y-66026119D01*
X91833333Y-66026119D02*
X91738095Y-65978500D01*
X91738095Y-65978500D02*
X91690476Y-65930880D01*
X93166666Y-65026119D02*
X92976190Y-65026119D01*
X92976190Y-65026119D02*
X92880952Y-65073738D01*
X92880952Y-65073738D02*
X92833333Y-65121357D01*
X92833333Y-65121357D02*
X92738095Y-65264214D01*
X92738095Y-65264214D02*
X92690476Y-65454690D01*
X92690476Y-65454690D02*
X92690476Y-65835642D01*
X92690476Y-65835642D02*
X92738095Y-65930880D01*
X92738095Y-65930880D02*
X92785714Y-65978500D01*
X92785714Y-65978500D02*
X92880952Y-66026119D01*
X92880952Y-66026119D02*
X93071428Y-66026119D01*
X93071428Y-66026119D02*
X93166666Y-65978500D01*
X93166666Y-65978500D02*
X93214285Y-65930880D01*
X93214285Y-65930880D02*
X93261904Y-65835642D01*
X93261904Y-65835642D02*
X93261904Y-65597547D01*
X93261904Y-65597547D02*
X93214285Y-65502309D01*
X93214285Y-65502309D02*
X93166666Y-65454690D01*
X93166666Y-65454690D02*
X93071428Y-65407071D01*
X93071428Y-65407071D02*
X92880952Y-65407071D01*
X92880952Y-65407071D02*
X92785714Y-65454690D01*
X92785714Y-65454690D02*
X92738095Y-65502309D01*
X92738095Y-65502309D02*
X92690476Y-65597547D01*
X77833333Y-58930880D02*
X77785714Y-58978500D01*
X77785714Y-58978500D02*
X77642857Y-59026119D01*
X77642857Y-59026119D02*
X77547619Y-59026119D01*
X77547619Y-59026119D02*
X77404762Y-58978500D01*
X77404762Y-58978500D02*
X77309524Y-58883261D01*
X77309524Y-58883261D02*
X77261905Y-58788023D01*
X77261905Y-58788023D02*
X77214286Y-58597547D01*
X77214286Y-58597547D02*
X77214286Y-58454690D01*
X77214286Y-58454690D02*
X77261905Y-58264214D01*
X77261905Y-58264214D02*
X77309524Y-58168976D01*
X77309524Y-58168976D02*
X77404762Y-58073738D01*
X77404762Y-58073738D02*
X77547619Y-58026119D01*
X77547619Y-58026119D02*
X77642857Y-58026119D01*
X77642857Y-58026119D02*
X77785714Y-58073738D01*
X77785714Y-58073738D02*
X77833333Y-58121357D01*
X78309524Y-59026119D02*
X78500000Y-59026119D01*
X78500000Y-59026119D02*
X78595238Y-58978500D01*
X78595238Y-58978500D02*
X78642857Y-58930880D01*
X78642857Y-58930880D02*
X78738095Y-58788023D01*
X78738095Y-58788023D02*
X78785714Y-58597547D01*
X78785714Y-58597547D02*
X78785714Y-58216595D01*
X78785714Y-58216595D02*
X78738095Y-58121357D01*
X78738095Y-58121357D02*
X78690476Y-58073738D01*
X78690476Y-58073738D02*
X78595238Y-58026119D01*
X78595238Y-58026119D02*
X78404762Y-58026119D01*
X78404762Y-58026119D02*
X78309524Y-58073738D01*
X78309524Y-58073738D02*
X78261905Y-58121357D01*
X78261905Y-58121357D02*
X78214286Y-58216595D01*
X78214286Y-58216595D02*
X78214286Y-58454690D01*
X78214286Y-58454690D02*
X78261905Y-58549928D01*
X78261905Y-58549928D02*
X78309524Y-58597547D01*
X78309524Y-58597547D02*
X78404762Y-58645166D01*
X78404762Y-58645166D02*
X78595238Y-58645166D01*
X78595238Y-58645166D02*
X78690476Y-58597547D01*
X78690476Y-58597547D02*
X78738095Y-58549928D01*
X78738095Y-58549928D02*
X78785714Y-58454690D01*
X60357142Y-61026119D02*
X60023809Y-60549928D01*
X59785714Y-61026119D02*
X59785714Y-60026119D01*
X59785714Y-60026119D02*
X60166666Y-60026119D01*
X60166666Y-60026119D02*
X60261904Y-60073738D01*
X60261904Y-60073738D02*
X60309523Y-60121357D01*
X60309523Y-60121357D02*
X60357142Y-60216595D01*
X60357142Y-60216595D02*
X60357142Y-60359452D01*
X60357142Y-60359452D02*
X60309523Y-60454690D01*
X60309523Y-60454690D02*
X60261904Y-60502309D01*
X60261904Y-60502309D02*
X60166666Y-60549928D01*
X60166666Y-60549928D02*
X59785714Y-60549928D01*
X60738095Y-60121357D02*
X60785714Y-60073738D01*
X60785714Y-60073738D02*
X60880952Y-60026119D01*
X60880952Y-60026119D02*
X61119047Y-60026119D01*
X61119047Y-60026119D02*
X61214285Y-60073738D01*
X61214285Y-60073738D02*
X61261904Y-60121357D01*
X61261904Y-60121357D02*
X61309523Y-60216595D01*
X61309523Y-60216595D02*
X61309523Y-60311833D01*
X61309523Y-60311833D02*
X61261904Y-60454690D01*
X61261904Y-60454690D02*
X60690476Y-61026119D01*
X60690476Y-61026119D02*
X61309523Y-61026119D01*
X61690476Y-60121357D02*
X61738095Y-60073738D01*
X61738095Y-60073738D02*
X61833333Y-60026119D01*
X61833333Y-60026119D02*
X62071428Y-60026119D01*
X62071428Y-60026119D02*
X62166666Y-60073738D01*
X62166666Y-60073738D02*
X62214285Y-60121357D01*
X62214285Y-60121357D02*
X62261904Y-60216595D01*
X62261904Y-60216595D02*
X62261904Y-60311833D01*
X62261904Y-60311833D02*
X62214285Y-60454690D01*
X62214285Y-60454690D02*
X61642857Y-61026119D01*
X61642857Y-61026119D02*
X62261904Y-61026119D01*
X81261905Y-92958119D02*
X81833333Y-92958119D01*
X81547619Y-93958119D02*
X81547619Y-92958119D01*
X82166667Y-93958119D02*
X82166667Y-92958119D01*
X82166667Y-92958119D02*
X82547619Y-92958119D01*
X82547619Y-92958119D02*
X82642857Y-93005738D01*
X82642857Y-93005738D02*
X82690476Y-93053357D01*
X82690476Y-93053357D02*
X82738095Y-93148595D01*
X82738095Y-93148595D02*
X82738095Y-93291452D01*
X82738095Y-93291452D02*
X82690476Y-93386690D01*
X82690476Y-93386690D02*
X82642857Y-93434309D01*
X82642857Y-93434309D02*
X82547619Y-93481928D01*
X82547619Y-93481928D02*
X82166667Y-93481928D01*
X83690476Y-93958119D02*
X83119048Y-93958119D01*
X83404762Y-93958119D02*
X83404762Y-92958119D01*
X83404762Y-92958119D02*
X83309524Y-93100976D01*
X83309524Y-93100976D02*
X83214286Y-93196214D01*
X83214286Y-93196214D02*
X83119048Y-93243833D01*
X84547619Y-92958119D02*
X84357143Y-92958119D01*
X84357143Y-92958119D02*
X84261905Y-93005738D01*
X84261905Y-93005738D02*
X84214286Y-93053357D01*
X84214286Y-93053357D02*
X84119048Y-93196214D01*
X84119048Y-93196214D02*
X84071429Y-93386690D01*
X84071429Y-93386690D02*
X84071429Y-93767642D01*
X84071429Y-93767642D02*
X84119048Y-93862880D01*
X84119048Y-93862880D02*
X84166667Y-93910500D01*
X84166667Y-93910500D02*
X84261905Y-93958119D01*
X84261905Y-93958119D02*
X84452381Y-93958119D01*
X84452381Y-93958119D02*
X84547619Y-93910500D01*
X84547619Y-93910500D02*
X84595238Y-93862880D01*
X84595238Y-93862880D02*
X84642857Y-93767642D01*
X84642857Y-93767642D02*
X84642857Y-93529547D01*
X84642857Y-93529547D02*
X84595238Y-93434309D01*
X84595238Y-93434309D02*
X84547619Y-93386690D01*
X84547619Y-93386690D02*
X84452381Y-93339071D01*
X84452381Y-93339071D02*
X84261905Y-93339071D01*
X84261905Y-93339071D02*
X84166667Y-93386690D01*
X84166667Y-93386690D02*
X84119048Y-93434309D01*
X84119048Y-93434309D02*
X84071429Y-93529547D01*
X81738095Y-97958119D02*
X82309523Y-97958119D01*
X82023809Y-98958119D02*
X82023809Y-97958119D01*
X82642857Y-98958119D02*
X82642857Y-97958119D01*
X82642857Y-97958119D02*
X83023809Y-97958119D01*
X83023809Y-97958119D02*
X83119047Y-98005738D01*
X83119047Y-98005738D02*
X83166666Y-98053357D01*
X83166666Y-98053357D02*
X83214285Y-98148595D01*
X83214285Y-98148595D02*
X83214285Y-98291452D01*
X83214285Y-98291452D02*
X83166666Y-98386690D01*
X83166666Y-98386690D02*
X83119047Y-98434309D01*
X83119047Y-98434309D02*
X83023809Y-98481928D01*
X83023809Y-98481928D02*
X82642857Y-98481928D01*
X83547619Y-97958119D02*
X84214285Y-97958119D01*
X84214285Y-97958119D02*
X83785714Y-98958119D01*
X32076119Y-97333333D02*
X32790404Y-97333333D01*
X32790404Y-97333333D02*
X32933261Y-97380952D01*
X32933261Y-97380952D02*
X33028500Y-97476190D01*
X33028500Y-97476190D02*
X33076119Y-97619047D01*
X33076119Y-97619047D02*
X33076119Y-97714285D01*
X32076119Y-96952380D02*
X32076119Y-96333333D01*
X32076119Y-96333333D02*
X32457071Y-96666666D01*
X32457071Y-96666666D02*
X32457071Y-96523809D01*
X32457071Y-96523809D02*
X32504690Y-96428571D01*
X32504690Y-96428571D02*
X32552309Y-96380952D01*
X32552309Y-96380952D02*
X32647547Y-96333333D01*
X32647547Y-96333333D02*
X32885642Y-96333333D01*
X32885642Y-96333333D02*
X32980880Y-96380952D01*
X32980880Y-96380952D02*
X33028500Y-96428571D01*
X33028500Y-96428571D02*
X33076119Y-96523809D01*
X33076119Y-96523809D02*
X33076119Y-96809523D01*
X33076119Y-96809523D02*
X33028500Y-96904761D01*
X33028500Y-96904761D02*
X32980880Y-96952380D01*
X83357142Y-63026119D02*
X83023809Y-62549928D01*
X82785714Y-63026119D02*
X82785714Y-62026119D01*
X82785714Y-62026119D02*
X83166666Y-62026119D01*
X83166666Y-62026119D02*
X83261904Y-62073738D01*
X83261904Y-62073738D02*
X83309523Y-62121357D01*
X83309523Y-62121357D02*
X83357142Y-62216595D01*
X83357142Y-62216595D02*
X83357142Y-62359452D01*
X83357142Y-62359452D02*
X83309523Y-62454690D01*
X83309523Y-62454690D02*
X83261904Y-62502309D01*
X83261904Y-62502309D02*
X83166666Y-62549928D01*
X83166666Y-62549928D02*
X82785714Y-62549928D01*
X84309523Y-63026119D02*
X83738095Y-63026119D01*
X84023809Y-63026119D02*
X84023809Y-62026119D01*
X84023809Y-62026119D02*
X83928571Y-62168976D01*
X83928571Y-62168976D02*
X83833333Y-62264214D01*
X83833333Y-62264214D02*
X83738095Y-62311833D01*
X84928571Y-62026119D02*
X85023809Y-62026119D01*
X85023809Y-62026119D02*
X85119047Y-62073738D01*
X85119047Y-62073738D02*
X85166666Y-62121357D01*
X85166666Y-62121357D02*
X85214285Y-62216595D01*
X85214285Y-62216595D02*
X85261904Y-62407071D01*
X85261904Y-62407071D02*
X85261904Y-62645166D01*
X85261904Y-62645166D02*
X85214285Y-62835642D01*
X85214285Y-62835642D02*
X85166666Y-62930880D01*
X85166666Y-62930880D02*
X85119047Y-62978500D01*
X85119047Y-62978500D02*
X85023809Y-63026119D01*
X85023809Y-63026119D02*
X84928571Y-63026119D01*
X84928571Y-63026119D02*
X84833333Y-62978500D01*
X84833333Y-62978500D02*
X84785714Y-62930880D01*
X84785714Y-62930880D02*
X84738095Y-62835642D01*
X84738095Y-62835642D02*
X84690476Y-62645166D01*
X84690476Y-62645166D02*
X84690476Y-62407071D01*
X84690476Y-62407071D02*
X84738095Y-62216595D01*
X84738095Y-62216595D02*
X84785714Y-62121357D01*
X84785714Y-62121357D02*
X84833333Y-62073738D01*
X84833333Y-62073738D02*
X84928571Y-62026119D01*
X37904761Y-69051357D02*
X37809523Y-69003738D01*
X37809523Y-69003738D02*
X37714285Y-68908500D01*
X37714285Y-68908500D02*
X37571428Y-68765642D01*
X37571428Y-68765642D02*
X37476190Y-68718023D01*
X37476190Y-68718023D02*
X37380952Y-68718023D01*
X37428571Y-68956119D02*
X37333333Y-68908500D01*
X37333333Y-68908500D02*
X37238095Y-68813261D01*
X37238095Y-68813261D02*
X37190476Y-68622785D01*
X37190476Y-68622785D02*
X37190476Y-68289452D01*
X37190476Y-68289452D02*
X37238095Y-68098976D01*
X37238095Y-68098976D02*
X37333333Y-68003738D01*
X37333333Y-68003738D02*
X37428571Y-67956119D01*
X37428571Y-67956119D02*
X37619047Y-67956119D01*
X37619047Y-67956119D02*
X37714285Y-68003738D01*
X37714285Y-68003738D02*
X37809523Y-68098976D01*
X37809523Y-68098976D02*
X37857142Y-68289452D01*
X37857142Y-68289452D02*
X37857142Y-68622785D01*
X37857142Y-68622785D02*
X37809523Y-68813261D01*
X37809523Y-68813261D02*
X37714285Y-68908500D01*
X37714285Y-68908500D02*
X37619047Y-68956119D01*
X37619047Y-68956119D02*
X37428571Y-68956119D01*
X38761904Y-67956119D02*
X38285714Y-67956119D01*
X38285714Y-67956119D02*
X38238095Y-68432309D01*
X38238095Y-68432309D02*
X38285714Y-68384690D01*
X38285714Y-68384690D02*
X38380952Y-68337071D01*
X38380952Y-68337071D02*
X38619047Y-68337071D01*
X38619047Y-68337071D02*
X38714285Y-68384690D01*
X38714285Y-68384690D02*
X38761904Y-68432309D01*
X38761904Y-68432309D02*
X38809523Y-68527547D01*
X38809523Y-68527547D02*
X38809523Y-68765642D01*
X38809523Y-68765642D02*
X38761904Y-68860880D01*
X38761904Y-68860880D02*
X38714285Y-68908500D01*
X38714285Y-68908500D02*
X38619047Y-68956119D01*
X38619047Y-68956119D02*
X38380952Y-68956119D01*
X38380952Y-68956119D02*
X38285714Y-68908500D01*
X38285714Y-68908500D02*
X38238095Y-68860880D01*
X71738095Y-97958119D02*
X72309523Y-97958119D01*
X72023809Y-98958119D02*
X72023809Y-97958119D01*
X72642857Y-98958119D02*
X72642857Y-97958119D01*
X72642857Y-97958119D02*
X73023809Y-97958119D01*
X73023809Y-97958119D02*
X73119047Y-98005738D01*
X73119047Y-98005738D02*
X73166666Y-98053357D01*
X73166666Y-98053357D02*
X73214285Y-98148595D01*
X73214285Y-98148595D02*
X73214285Y-98291452D01*
X73214285Y-98291452D02*
X73166666Y-98386690D01*
X73166666Y-98386690D02*
X73119047Y-98434309D01*
X73119047Y-98434309D02*
X73023809Y-98481928D01*
X73023809Y-98481928D02*
X72642857Y-98481928D01*
X74119047Y-97958119D02*
X73642857Y-97958119D01*
X73642857Y-97958119D02*
X73595238Y-98434309D01*
X73595238Y-98434309D02*
X73642857Y-98386690D01*
X73642857Y-98386690D02*
X73738095Y-98339071D01*
X73738095Y-98339071D02*
X73976190Y-98339071D01*
X73976190Y-98339071D02*
X74071428Y-98386690D01*
X74071428Y-98386690D02*
X74119047Y-98434309D01*
X74119047Y-98434309D02*
X74166666Y-98529547D01*
X74166666Y-98529547D02*
X74166666Y-98767642D01*
X74166666Y-98767642D02*
X74119047Y-98862880D01*
X74119047Y-98862880D02*
X74071428Y-98910500D01*
X74071428Y-98910500D02*
X73976190Y-98958119D01*
X73976190Y-98958119D02*
X73738095Y-98958119D01*
X73738095Y-98958119D02*
X73642857Y-98910500D01*
X73642857Y-98910500D02*
X73595238Y-98862880D01*
X92333333Y-25110880D02*
X92285714Y-25158500D01*
X92285714Y-25158500D02*
X92142857Y-25206119D01*
X92142857Y-25206119D02*
X92047619Y-25206119D01*
X92047619Y-25206119D02*
X91904762Y-25158500D01*
X91904762Y-25158500D02*
X91809524Y-25063261D01*
X91809524Y-25063261D02*
X91761905Y-24968023D01*
X91761905Y-24968023D02*
X91714286Y-24777547D01*
X91714286Y-24777547D02*
X91714286Y-24634690D01*
X91714286Y-24634690D02*
X91761905Y-24444214D01*
X91761905Y-24444214D02*
X91809524Y-24348976D01*
X91809524Y-24348976D02*
X91904762Y-24253738D01*
X91904762Y-24253738D02*
X92047619Y-24206119D01*
X92047619Y-24206119D02*
X92142857Y-24206119D01*
X92142857Y-24206119D02*
X92285714Y-24253738D01*
X92285714Y-24253738D02*
X92333333Y-24301357D01*
X92714286Y-24301357D02*
X92761905Y-24253738D01*
X92761905Y-24253738D02*
X92857143Y-24206119D01*
X92857143Y-24206119D02*
X93095238Y-24206119D01*
X93095238Y-24206119D02*
X93190476Y-24253738D01*
X93190476Y-24253738D02*
X93238095Y-24301357D01*
X93238095Y-24301357D02*
X93285714Y-24396595D01*
X93285714Y-24396595D02*
X93285714Y-24491833D01*
X93285714Y-24491833D02*
X93238095Y-24634690D01*
X93238095Y-24634690D02*
X92666667Y-25206119D01*
X92666667Y-25206119D02*
X93285714Y-25206119D01*
X40261905Y-79456119D02*
X40261905Y-78456119D01*
X40261905Y-78456119D02*
X40500000Y-78456119D01*
X40500000Y-78456119D02*
X40642857Y-78503738D01*
X40642857Y-78503738D02*
X40738095Y-78598976D01*
X40738095Y-78598976D02*
X40785714Y-78694214D01*
X40785714Y-78694214D02*
X40833333Y-78884690D01*
X40833333Y-78884690D02*
X40833333Y-79027547D01*
X40833333Y-79027547D02*
X40785714Y-79218023D01*
X40785714Y-79218023D02*
X40738095Y-79313261D01*
X40738095Y-79313261D02*
X40642857Y-79408500D01*
X40642857Y-79408500D02*
X40500000Y-79456119D01*
X40500000Y-79456119D02*
X40261905Y-79456119D01*
X41166667Y-78456119D02*
X41785714Y-78456119D01*
X41785714Y-78456119D02*
X41452381Y-78837071D01*
X41452381Y-78837071D02*
X41595238Y-78837071D01*
X41595238Y-78837071D02*
X41690476Y-78884690D01*
X41690476Y-78884690D02*
X41738095Y-78932309D01*
X41738095Y-78932309D02*
X41785714Y-79027547D01*
X41785714Y-79027547D02*
X41785714Y-79265642D01*
X41785714Y-79265642D02*
X41738095Y-79360880D01*
X41738095Y-79360880D02*
X41690476Y-79408500D01*
X41690476Y-79408500D02*
X41595238Y-79456119D01*
X41595238Y-79456119D02*
X41309524Y-79456119D01*
X41309524Y-79456119D02*
X41214286Y-79408500D01*
X41214286Y-79408500D02*
X41166667Y-79360880D01*
X83357142Y-66026119D02*
X83023809Y-65549928D01*
X82785714Y-66026119D02*
X82785714Y-65026119D01*
X82785714Y-65026119D02*
X83166666Y-65026119D01*
X83166666Y-65026119D02*
X83261904Y-65073738D01*
X83261904Y-65073738D02*
X83309523Y-65121357D01*
X83309523Y-65121357D02*
X83357142Y-65216595D01*
X83357142Y-65216595D02*
X83357142Y-65359452D01*
X83357142Y-65359452D02*
X83309523Y-65454690D01*
X83309523Y-65454690D02*
X83261904Y-65502309D01*
X83261904Y-65502309D02*
X83166666Y-65549928D01*
X83166666Y-65549928D02*
X82785714Y-65549928D01*
X84309523Y-66026119D02*
X83738095Y-66026119D01*
X84023809Y-66026119D02*
X84023809Y-65026119D01*
X84023809Y-65026119D02*
X83928571Y-65168976D01*
X83928571Y-65168976D02*
X83833333Y-65264214D01*
X83833333Y-65264214D02*
X83738095Y-65311833D01*
X84642857Y-65026119D02*
X85261904Y-65026119D01*
X85261904Y-65026119D02*
X84928571Y-65407071D01*
X84928571Y-65407071D02*
X85071428Y-65407071D01*
X85071428Y-65407071D02*
X85166666Y-65454690D01*
X85166666Y-65454690D02*
X85214285Y-65502309D01*
X85214285Y-65502309D02*
X85261904Y-65597547D01*
X85261904Y-65597547D02*
X85261904Y-65835642D01*
X85261904Y-65835642D02*
X85214285Y-65930880D01*
X85214285Y-65930880D02*
X85166666Y-65978500D01*
X85166666Y-65978500D02*
X85071428Y-66026119D01*
X85071428Y-66026119D02*
X84785714Y-66026119D01*
X84785714Y-66026119D02*
X84690476Y-65978500D01*
X84690476Y-65978500D02*
X84642857Y-65930880D01*
X19136120Y-70833333D02*
X19850405Y-70833333D01*
X19850405Y-70833333D02*
X19993262Y-70880952D01*
X19993262Y-70880952D02*
X20088501Y-70976190D01*
X20088501Y-70976190D02*
X20136120Y-71119047D01*
X20136120Y-71119047D02*
X20136120Y-71214285D01*
X19469453Y-69928571D02*
X20136120Y-69928571D01*
X19088501Y-70166666D02*
X19802786Y-70404761D01*
X19802786Y-70404761D02*
X19802786Y-69785714D01*
X52357142Y-79026119D02*
X52023809Y-78549928D01*
X51785714Y-79026119D02*
X51785714Y-78026119D01*
X51785714Y-78026119D02*
X52166666Y-78026119D01*
X52166666Y-78026119D02*
X52261904Y-78073738D01*
X52261904Y-78073738D02*
X52309523Y-78121357D01*
X52309523Y-78121357D02*
X52357142Y-78216595D01*
X52357142Y-78216595D02*
X52357142Y-78359452D01*
X52357142Y-78359452D02*
X52309523Y-78454690D01*
X52309523Y-78454690D02*
X52261904Y-78502309D01*
X52261904Y-78502309D02*
X52166666Y-78549928D01*
X52166666Y-78549928D02*
X51785714Y-78549928D01*
X52690476Y-78026119D02*
X53309523Y-78026119D01*
X53309523Y-78026119D02*
X52976190Y-78407071D01*
X52976190Y-78407071D02*
X53119047Y-78407071D01*
X53119047Y-78407071D02*
X53214285Y-78454690D01*
X53214285Y-78454690D02*
X53261904Y-78502309D01*
X53261904Y-78502309D02*
X53309523Y-78597547D01*
X53309523Y-78597547D02*
X53309523Y-78835642D01*
X53309523Y-78835642D02*
X53261904Y-78930880D01*
X53261904Y-78930880D02*
X53214285Y-78978500D01*
X53214285Y-78978500D02*
X53119047Y-79026119D01*
X53119047Y-79026119D02*
X52833333Y-79026119D01*
X52833333Y-79026119D02*
X52738095Y-78978500D01*
X52738095Y-78978500D02*
X52690476Y-78930880D01*
X53928571Y-78026119D02*
X54023809Y-78026119D01*
X54023809Y-78026119D02*
X54119047Y-78073738D01*
X54119047Y-78073738D02*
X54166666Y-78121357D01*
X54166666Y-78121357D02*
X54214285Y-78216595D01*
X54214285Y-78216595D02*
X54261904Y-78407071D01*
X54261904Y-78407071D02*
X54261904Y-78645166D01*
X54261904Y-78645166D02*
X54214285Y-78835642D01*
X54214285Y-78835642D02*
X54166666Y-78930880D01*
X54166666Y-78930880D02*
X54119047Y-78978500D01*
X54119047Y-78978500D02*
X54023809Y-79026119D01*
X54023809Y-79026119D02*
X53928571Y-79026119D01*
X53928571Y-79026119D02*
X53833333Y-78978500D01*
X53833333Y-78978500D02*
X53785714Y-78930880D01*
X53785714Y-78930880D02*
X53738095Y-78835642D01*
X53738095Y-78835642D02*
X53690476Y-78645166D01*
X53690476Y-78645166D02*
X53690476Y-78407071D01*
X53690476Y-78407071D02*
X53738095Y-78216595D01*
X53738095Y-78216595D02*
X53785714Y-78121357D01*
X53785714Y-78121357D02*
X53833333Y-78073738D01*
X53833333Y-78073738D02*
X53928571Y-78026119D01*
X83833333Y-50026119D02*
X83500000Y-49549928D01*
X83261905Y-50026119D02*
X83261905Y-49026119D01*
X83261905Y-49026119D02*
X83642857Y-49026119D01*
X83642857Y-49026119D02*
X83738095Y-49073738D01*
X83738095Y-49073738D02*
X83785714Y-49121357D01*
X83785714Y-49121357D02*
X83833333Y-49216595D01*
X83833333Y-49216595D02*
X83833333Y-49359452D01*
X83833333Y-49359452D02*
X83785714Y-49454690D01*
X83785714Y-49454690D02*
X83738095Y-49502309D01*
X83738095Y-49502309D02*
X83642857Y-49549928D01*
X83642857Y-49549928D02*
X83261905Y-49549928D01*
X84166667Y-49026119D02*
X84785714Y-49026119D01*
X84785714Y-49026119D02*
X84452381Y-49407071D01*
X84452381Y-49407071D02*
X84595238Y-49407071D01*
X84595238Y-49407071D02*
X84690476Y-49454690D01*
X84690476Y-49454690D02*
X84738095Y-49502309D01*
X84738095Y-49502309D02*
X84785714Y-49597547D01*
X84785714Y-49597547D02*
X84785714Y-49835642D01*
X84785714Y-49835642D02*
X84738095Y-49930880D01*
X84738095Y-49930880D02*
X84690476Y-49978500D01*
X84690476Y-49978500D02*
X84595238Y-50026119D01*
X84595238Y-50026119D02*
X84309524Y-50026119D01*
X84309524Y-50026119D02*
X84214286Y-49978500D01*
X84214286Y-49978500D02*
X84166667Y-49930880D01*
X51357142Y-90026119D02*
X51023809Y-89549928D01*
X50785714Y-90026119D02*
X50785714Y-89026119D01*
X50785714Y-89026119D02*
X51166666Y-89026119D01*
X51166666Y-89026119D02*
X51261904Y-89073738D01*
X51261904Y-89073738D02*
X51309523Y-89121357D01*
X51309523Y-89121357D02*
X51357142Y-89216595D01*
X51357142Y-89216595D02*
X51357142Y-89359452D01*
X51357142Y-89359452D02*
X51309523Y-89454690D01*
X51309523Y-89454690D02*
X51261904Y-89502309D01*
X51261904Y-89502309D02*
X51166666Y-89549928D01*
X51166666Y-89549928D02*
X50785714Y-89549928D01*
X52309523Y-90026119D02*
X51738095Y-90026119D01*
X52023809Y-90026119D02*
X52023809Y-89026119D01*
X52023809Y-89026119D02*
X51928571Y-89168976D01*
X51928571Y-89168976D02*
X51833333Y-89264214D01*
X51833333Y-89264214D02*
X51738095Y-89311833D01*
X53214285Y-89026119D02*
X52738095Y-89026119D01*
X52738095Y-89026119D02*
X52690476Y-89502309D01*
X52690476Y-89502309D02*
X52738095Y-89454690D01*
X52738095Y-89454690D02*
X52833333Y-89407071D01*
X52833333Y-89407071D02*
X53071428Y-89407071D01*
X53071428Y-89407071D02*
X53166666Y-89454690D01*
X53166666Y-89454690D02*
X53214285Y-89502309D01*
X53214285Y-89502309D02*
X53261904Y-89597547D01*
X53261904Y-89597547D02*
X53261904Y-89835642D01*
X53261904Y-89835642D02*
X53214285Y-89930880D01*
X53214285Y-89930880D02*
X53166666Y-89978500D01*
X53166666Y-89978500D02*
X53071428Y-90026119D01*
X53071428Y-90026119D02*
X52833333Y-90026119D01*
X52833333Y-90026119D02*
X52738095Y-89978500D01*
X52738095Y-89978500D02*
X52690476Y-89930880D01*
X66261905Y-38456119D02*
X66261905Y-37456119D01*
X66261905Y-37456119D02*
X66500000Y-37456119D01*
X66500000Y-37456119D02*
X66642857Y-37503738D01*
X66642857Y-37503738D02*
X66738095Y-37598976D01*
X66738095Y-37598976D02*
X66785714Y-37694214D01*
X66785714Y-37694214D02*
X66833333Y-37884690D01*
X66833333Y-37884690D02*
X66833333Y-38027547D01*
X66833333Y-38027547D02*
X66785714Y-38218023D01*
X66785714Y-38218023D02*
X66738095Y-38313261D01*
X66738095Y-38313261D02*
X66642857Y-38408500D01*
X66642857Y-38408500D02*
X66500000Y-38456119D01*
X66500000Y-38456119D02*
X66261905Y-38456119D01*
X67785714Y-38456119D02*
X67214286Y-38456119D01*
X67500000Y-38456119D02*
X67500000Y-37456119D01*
X67500000Y-37456119D02*
X67404762Y-37598976D01*
X67404762Y-37598976D02*
X67309524Y-37694214D01*
X67309524Y-37694214D02*
X67214286Y-37741833D01*
X54357142Y-68026119D02*
X54023809Y-67549928D01*
X53785714Y-68026119D02*
X53785714Y-67026119D01*
X53785714Y-67026119D02*
X54166666Y-67026119D01*
X54166666Y-67026119D02*
X54261904Y-67073738D01*
X54261904Y-67073738D02*
X54309523Y-67121357D01*
X54309523Y-67121357D02*
X54357142Y-67216595D01*
X54357142Y-67216595D02*
X54357142Y-67359452D01*
X54357142Y-67359452D02*
X54309523Y-67454690D01*
X54309523Y-67454690D02*
X54261904Y-67502309D01*
X54261904Y-67502309D02*
X54166666Y-67549928D01*
X54166666Y-67549928D02*
X53785714Y-67549928D01*
X54690476Y-67026119D02*
X55309523Y-67026119D01*
X55309523Y-67026119D02*
X54976190Y-67407071D01*
X54976190Y-67407071D02*
X55119047Y-67407071D01*
X55119047Y-67407071D02*
X55214285Y-67454690D01*
X55214285Y-67454690D02*
X55261904Y-67502309D01*
X55261904Y-67502309D02*
X55309523Y-67597547D01*
X55309523Y-67597547D02*
X55309523Y-67835642D01*
X55309523Y-67835642D02*
X55261904Y-67930880D01*
X55261904Y-67930880D02*
X55214285Y-67978500D01*
X55214285Y-67978500D02*
X55119047Y-68026119D01*
X55119047Y-68026119D02*
X54833333Y-68026119D01*
X54833333Y-68026119D02*
X54738095Y-67978500D01*
X54738095Y-67978500D02*
X54690476Y-67930880D01*
X56261904Y-68026119D02*
X55690476Y-68026119D01*
X55976190Y-68026119D02*
X55976190Y-67026119D01*
X55976190Y-67026119D02*
X55880952Y-67168976D01*
X55880952Y-67168976D02*
X55785714Y-67264214D01*
X55785714Y-67264214D02*
X55690476Y-67311833D01*
X64357142Y-63930880D02*
X64309523Y-63978500D01*
X64309523Y-63978500D02*
X64166666Y-64026119D01*
X64166666Y-64026119D02*
X64071428Y-64026119D01*
X64071428Y-64026119D02*
X63928571Y-63978500D01*
X63928571Y-63978500D02*
X63833333Y-63883261D01*
X63833333Y-63883261D02*
X63785714Y-63788023D01*
X63785714Y-63788023D02*
X63738095Y-63597547D01*
X63738095Y-63597547D02*
X63738095Y-63454690D01*
X63738095Y-63454690D02*
X63785714Y-63264214D01*
X63785714Y-63264214D02*
X63833333Y-63168976D01*
X63833333Y-63168976D02*
X63928571Y-63073738D01*
X63928571Y-63073738D02*
X64071428Y-63026119D01*
X64071428Y-63026119D02*
X64166666Y-63026119D01*
X64166666Y-63026119D02*
X64309523Y-63073738D01*
X64309523Y-63073738D02*
X64357142Y-63121357D01*
X65309523Y-64026119D02*
X64738095Y-64026119D01*
X65023809Y-64026119D02*
X65023809Y-63026119D01*
X65023809Y-63026119D02*
X64928571Y-63168976D01*
X64928571Y-63168976D02*
X64833333Y-63264214D01*
X64833333Y-63264214D02*
X64738095Y-63311833D01*
X65642857Y-63026119D02*
X66261904Y-63026119D01*
X66261904Y-63026119D02*
X65928571Y-63407071D01*
X65928571Y-63407071D02*
X66071428Y-63407071D01*
X66071428Y-63407071D02*
X66166666Y-63454690D01*
X66166666Y-63454690D02*
X66214285Y-63502309D01*
X66214285Y-63502309D02*
X66261904Y-63597547D01*
X66261904Y-63597547D02*
X66261904Y-63835642D01*
X66261904Y-63835642D02*
X66214285Y-63930880D01*
X66214285Y-63930880D02*
X66166666Y-63978500D01*
X66166666Y-63978500D02*
X66071428Y-64026119D01*
X66071428Y-64026119D02*
X65785714Y-64026119D01*
X65785714Y-64026119D02*
X65690476Y-63978500D01*
X65690476Y-63978500D02*
X65642857Y-63930880D01*
X76261905Y-92958119D02*
X76833333Y-92958119D01*
X76547619Y-93958119D02*
X76547619Y-92958119D01*
X77166667Y-93958119D02*
X77166667Y-92958119D01*
X77166667Y-92958119D02*
X77547619Y-92958119D01*
X77547619Y-92958119D02*
X77642857Y-93005738D01*
X77642857Y-93005738D02*
X77690476Y-93053357D01*
X77690476Y-93053357D02*
X77738095Y-93148595D01*
X77738095Y-93148595D02*
X77738095Y-93291452D01*
X77738095Y-93291452D02*
X77690476Y-93386690D01*
X77690476Y-93386690D02*
X77642857Y-93434309D01*
X77642857Y-93434309D02*
X77547619Y-93481928D01*
X77547619Y-93481928D02*
X77166667Y-93481928D01*
X78690476Y-93958119D02*
X78119048Y-93958119D01*
X78404762Y-93958119D02*
X78404762Y-92958119D01*
X78404762Y-92958119D02*
X78309524Y-93100976D01*
X78309524Y-93100976D02*
X78214286Y-93196214D01*
X78214286Y-93196214D02*
X78119048Y-93243833D01*
X79595238Y-92958119D02*
X79119048Y-92958119D01*
X79119048Y-92958119D02*
X79071429Y-93434309D01*
X79071429Y-93434309D02*
X79119048Y-93386690D01*
X79119048Y-93386690D02*
X79214286Y-93339071D01*
X79214286Y-93339071D02*
X79452381Y-93339071D01*
X79452381Y-93339071D02*
X79547619Y-93386690D01*
X79547619Y-93386690D02*
X79595238Y-93434309D01*
X79595238Y-93434309D02*
X79642857Y-93529547D01*
X79642857Y-93529547D02*
X79642857Y-93767642D01*
X79642857Y-93767642D02*
X79595238Y-93862880D01*
X79595238Y-93862880D02*
X79547619Y-93910500D01*
X79547619Y-93910500D02*
X79452381Y-93958119D01*
X79452381Y-93958119D02*
X79214286Y-93958119D01*
X79214286Y-93958119D02*
X79119048Y-93910500D01*
X79119048Y-93910500D02*
X79071429Y-93862880D01*
X71238095Y-53456119D02*
X71238095Y-54265642D01*
X71238095Y-54265642D02*
X71285714Y-54360880D01*
X71285714Y-54360880D02*
X71333333Y-54408500D01*
X71333333Y-54408500D02*
X71428571Y-54456119D01*
X71428571Y-54456119D02*
X71619047Y-54456119D01*
X71619047Y-54456119D02*
X71714285Y-54408500D01*
X71714285Y-54408500D02*
X71761904Y-54360880D01*
X71761904Y-54360880D02*
X71809523Y-54265642D01*
X71809523Y-54265642D02*
X71809523Y-53456119D01*
X72809523Y-54456119D02*
X72238095Y-54456119D01*
X72523809Y-54456119D02*
X72523809Y-53456119D01*
X72523809Y-53456119D02*
X72428571Y-53598976D01*
X72428571Y-53598976D02*
X72333333Y-53694214D01*
X72333333Y-53694214D02*
X72238095Y-53741833D01*
X65833333Y-47930880D02*
X65785714Y-47978500D01*
X65785714Y-47978500D02*
X65642857Y-48026119D01*
X65642857Y-48026119D02*
X65547619Y-48026119D01*
X65547619Y-48026119D02*
X65404762Y-47978500D01*
X65404762Y-47978500D02*
X65309524Y-47883261D01*
X65309524Y-47883261D02*
X65261905Y-47788023D01*
X65261905Y-47788023D02*
X65214286Y-47597547D01*
X65214286Y-47597547D02*
X65214286Y-47454690D01*
X65214286Y-47454690D02*
X65261905Y-47264214D01*
X65261905Y-47264214D02*
X65309524Y-47168976D01*
X65309524Y-47168976D02*
X65404762Y-47073738D01*
X65404762Y-47073738D02*
X65547619Y-47026119D01*
X65547619Y-47026119D02*
X65642857Y-47026119D01*
X65642857Y-47026119D02*
X65785714Y-47073738D01*
X65785714Y-47073738D02*
X65833333Y-47121357D01*
X66690476Y-47359452D02*
X66690476Y-48026119D01*
X66452381Y-46978500D02*
X66214286Y-47692785D01*
X66214286Y-47692785D02*
X66833333Y-47692785D01*
X91738095Y-97958119D02*
X92309523Y-97958119D01*
X92023809Y-98958119D02*
X92023809Y-97958119D01*
X92642857Y-98958119D02*
X92642857Y-97958119D01*
X92642857Y-97958119D02*
X93023809Y-97958119D01*
X93023809Y-97958119D02*
X93119047Y-98005738D01*
X93119047Y-98005738D02*
X93166666Y-98053357D01*
X93166666Y-98053357D02*
X93214285Y-98148595D01*
X93214285Y-98148595D02*
X93214285Y-98291452D01*
X93214285Y-98291452D02*
X93166666Y-98386690D01*
X93166666Y-98386690D02*
X93119047Y-98434309D01*
X93119047Y-98434309D02*
X93023809Y-98481928D01*
X93023809Y-98481928D02*
X92642857Y-98481928D01*
X93690476Y-98958119D02*
X93880952Y-98958119D01*
X93880952Y-98958119D02*
X93976190Y-98910500D01*
X93976190Y-98910500D02*
X94023809Y-98862880D01*
X94023809Y-98862880D02*
X94119047Y-98720023D01*
X94119047Y-98720023D02*
X94166666Y-98529547D01*
X94166666Y-98529547D02*
X94166666Y-98148595D01*
X94166666Y-98148595D02*
X94119047Y-98053357D01*
X94119047Y-98053357D02*
X94071428Y-98005738D01*
X94071428Y-98005738D02*
X93976190Y-97958119D01*
X93976190Y-97958119D02*
X93785714Y-97958119D01*
X93785714Y-97958119D02*
X93690476Y-98005738D01*
X93690476Y-98005738D02*
X93642857Y-98053357D01*
X93642857Y-98053357D02*
X93595238Y-98148595D01*
X93595238Y-98148595D02*
X93595238Y-98386690D01*
X93595238Y-98386690D02*
X93642857Y-98481928D01*
X93642857Y-98481928D02*
X93690476Y-98529547D01*
X93690476Y-98529547D02*
X93785714Y-98577166D01*
X93785714Y-98577166D02*
X93976190Y-98577166D01*
X93976190Y-98577166D02*
X94071428Y-98529547D01*
X94071428Y-98529547D02*
X94119047Y-98481928D01*
X94119047Y-98481928D02*
X94166666Y-98386690D01*
X63357142Y-90026119D02*
X63023809Y-89549928D01*
X62785714Y-90026119D02*
X62785714Y-89026119D01*
X62785714Y-89026119D02*
X63166666Y-89026119D01*
X63166666Y-89026119D02*
X63261904Y-89073738D01*
X63261904Y-89073738D02*
X63309523Y-89121357D01*
X63309523Y-89121357D02*
X63357142Y-89216595D01*
X63357142Y-89216595D02*
X63357142Y-89359452D01*
X63357142Y-89359452D02*
X63309523Y-89454690D01*
X63309523Y-89454690D02*
X63261904Y-89502309D01*
X63261904Y-89502309D02*
X63166666Y-89549928D01*
X63166666Y-89549928D02*
X62785714Y-89549928D01*
X64309523Y-90026119D02*
X63738095Y-90026119D01*
X64023809Y-90026119D02*
X64023809Y-89026119D01*
X64023809Y-89026119D02*
X63928571Y-89168976D01*
X63928571Y-89168976D02*
X63833333Y-89264214D01*
X63833333Y-89264214D02*
X63738095Y-89311833D01*
X64880952Y-89454690D02*
X64785714Y-89407071D01*
X64785714Y-89407071D02*
X64738095Y-89359452D01*
X64738095Y-89359452D02*
X64690476Y-89264214D01*
X64690476Y-89264214D02*
X64690476Y-89216595D01*
X64690476Y-89216595D02*
X64738095Y-89121357D01*
X64738095Y-89121357D02*
X64785714Y-89073738D01*
X64785714Y-89073738D02*
X64880952Y-89026119D01*
X64880952Y-89026119D02*
X65071428Y-89026119D01*
X65071428Y-89026119D02*
X65166666Y-89073738D01*
X65166666Y-89073738D02*
X65214285Y-89121357D01*
X65214285Y-89121357D02*
X65261904Y-89216595D01*
X65261904Y-89216595D02*
X65261904Y-89264214D01*
X65261904Y-89264214D02*
X65214285Y-89359452D01*
X65214285Y-89359452D02*
X65166666Y-89407071D01*
X65166666Y-89407071D02*
X65071428Y-89454690D01*
X65071428Y-89454690D02*
X64880952Y-89454690D01*
X64880952Y-89454690D02*
X64785714Y-89502309D01*
X64785714Y-89502309D02*
X64738095Y-89549928D01*
X64738095Y-89549928D02*
X64690476Y-89645166D01*
X64690476Y-89645166D02*
X64690476Y-89835642D01*
X64690476Y-89835642D02*
X64738095Y-89930880D01*
X64738095Y-89930880D02*
X64785714Y-89978500D01*
X64785714Y-89978500D02*
X64880952Y-90026119D01*
X64880952Y-90026119D02*
X65071428Y-90026119D01*
X65071428Y-90026119D02*
X65166666Y-89978500D01*
X65166666Y-89978500D02*
X65214285Y-89930880D01*
X65214285Y-89930880D02*
X65261904Y-89835642D01*
X65261904Y-89835642D02*
X65261904Y-89645166D01*
X65261904Y-89645166D02*
X65214285Y-89549928D01*
X65214285Y-89549928D02*
X65166666Y-89502309D01*
X65166666Y-89502309D02*
X65071428Y-89454690D01*
X91357142Y-83026119D02*
X91023809Y-82549928D01*
X90785714Y-83026119D02*
X90785714Y-82026119D01*
X90785714Y-82026119D02*
X91166666Y-82026119D01*
X91166666Y-82026119D02*
X91261904Y-82073738D01*
X91261904Y-82073738D02*
X91309523Y-82121357D01*
X91309523Y-82121357D02*
X91357142Y-82216595D01*
X91357142Y-82216595D02*
X91357142Y-82359452D01*
X91357142Y-82359452D02*
X91309523Y-82454690D01*
X91309523Y-82454690D02*
X91261904Y-82502309D01*
X91261904Y-82502309D02*
X91166666Y-82549928D01*
X91166666Y-82549928D02*
X90785714Y-82549928D01*
X91738095Y-82121357D02*
X91785714Y-82073738D01*
X91785714Y-82073738D02*
X91880952Y-82026119D01*
X91880952Y-82026119D02*
X92119047Y-82026119D01*
X92119047Y-82026119D02*
X92214285Y-82073738D01*
X92214285Y-82073738D02*
X92261904Y-82121357D01*
X92261904Y-82121357D02*
X92309523Y-82216595D01*
X92309523Y-82216595D02*
X92309523Y-82311833D01*
X92309523Y-82311833D02*
X92261904Y-82454690D01*
X92261904Y-82454690D02*
X91690476Y-83026119D01*
X91690476Y-83026119D02*
X92309523Y-83026119D01*
X92880952Y-82454690D02*
X92785714Y-82407071D01*
X92785714Y-82407071D02*
X92738095Y-82359452D01*
X92738095Y-82359452D02*
X92690476Y-82264214D01*
X92690476Y-82264214D02*
X92690476Y-82216595D01*
X92690476Y-82216595D02*
X92738095Y-82121357D01*
X92738095Y-82121357D02*
X92785714Y-82073738D01*
X92785714Y-82073738D02*
X92880952Y-82026119D01*
X92880952Y-82026119D02*
X93071428Y-82026119D01*
X93071428Y-82026119D02*
X93166666Y-82073738D01*
X93166666Y-82073738D02*
X93214285Y-82121357D01*
X93214285Y-82121357D02*
X93261904Y-82216595D01*
X93261904Y-82216595D02*
X93261904Y-82264214D01*
X93261904Y-82264214D02*
X93214285Y-82359452D01*
X93214285Y-82359452D02*
X93166666Y-82407071D01*
X93166666Y-82407071D02*
X93071428Y-82454690D01*
X93071428Y-82454690D02*
X92880952Y-82454690D01*
X92880952Y-82454690D02*
X92785714Y-82502309D01*
X92785714Y-82502309D02*
X92738095Y-82549928D01*
X92738095Y-82549928D02*
X92690476Y-82645166D01*
X92690476Y-82645166D02*
X92690476Y-82835642D01*
X92690476Y-82835642D02*
X92738095Y-82930880D01*
X92738095Y-82930880D02*
X92785714Y-82978500D01*
X92785714Y-82978500D02*
X92880952Y-83026119D01*
X92880952Y-83026119D02*
X93071428Y-83026119D01*
X93071428Y-83026119D02*
X93166666Y-82978500D01*
X93166666Y-82978500D02*
X93214285Y-82930880D01*
X93214285Y-82930880D02*
X93261904Y-82835642D01*
X93261904Y-82835642D02*
X93261904Y-82645166D01*
X93261904Y-82645166D02*
X93214285Y-82549928D01*
X93214285Y-82549928D02*
X93166666Y-82502309D01*
X93166666Y-82502309D02*
X93071428Y-82454690D01*
X98357142Y-95026119D02*
X98023809Y-94549928D01*
X97785714Y-95026119D02*
X97785714Y-94026119D01*
X97785714Y-94026119D02*
X98166666Y-94026119D01*
X98166666Y-94026119D02*
X98261904Y-94073738D01*
X98261904Y-94073738D02*
X98309523Y-94121357D01*
X98309523Y-94121357D02*
X98357142Y-94216595D01*
X98357142Y-94216595D02*
X98357142Y-94359452D01*
X98357142Y-94359452D02*
X98309523Y-94454690D01*
X98309523Y-94454690D02*
X98261904Y-94502309D01*
X98261904Y-94502309D02*
X98166666Y-94549928D01*
X98166666Y-94549928D02*
X97785714Y-94549928D01*
X98738095Y-94121357D02*
X98785714Y-94073738D01*
X98785714Y-94073738D02*
X98880952Y-94026119D01*
X98880952Y-94026119D02*
X99119047Y-94026119D01*
X99119047Y-94026119D02*
X99214285Y-94073738D01*
X99214285Y-94073738D02*
X99261904Y-94121357D01*
X99261904Y-94121357D02*
X99309523Y-94216595D01*
X99309523Y-94216595D02*
X99309523Y-94311833D01*
X99309523Y-94311833D02*
X99261904Y-94454690D01*
X99261904Y-94454690D02*
X98690476Y-95026119D01*
X98690476Y-95026119D02*
X99309523Y-95026119D01*
X100214285Y-94026119D02*
X99738095Y-94026119D01*
X99738095Y-94026119D02*
X99690476Y-94502309D01*
X99690476Y-94502309D02*
X99738095Y-94454690D01*
X99738095Y-94454690D02*
X99833333Y-94407071D01*
X99833333Y-94407071D02*
X100071428Y-94407071D01*
X100071428Y-94407071D02*
X100166666Y-94454690D01*
X100166666Y-94454690D02*
X100214285Y-94502309D01*
X100214285Y-94502309D02*
X100261904Y-94597547D01*
X100261904Y-94597547D02*
X100261904Y-94835642D01*
X100261904Y-94835642D02*
X100214285Y-94930880D01*
X100214285Y-94930880D02*
X100166666Y-94978500D01*
X100166666Y-94978500D02*
X100071428Y-95026119D01*
X100071428Y-95026119D02*
X99833333Y-95026119D01*
X99833333Y-95026119D02*
X99738095Y-94978500D01*
X99738095Y-94978500D02*
X99690476Y-94930880D01*
X95357142Y-83026119D02*
X95023809Y-82549928D01*
X94785714Y-83026119D02*
X94785714Y-82026119D01*
X94785714Y-82026119D02*
X95166666Y-82026119D01*
X95166666Y-82026119D02*
X95261904Y-82073738D01*
X95261904Y-82073738D02*
X95309523Y-82121357D01*
X95309523Y-82121357D02*
X95357142Y-82216595D01*
X95357142Y-82216595D02*
X95357142Y-82359452D01*
X95357142Y-82359452D02*
X95309523Y-82454690D01*
X95309523Y-82454690D02*
X95261904Y-82502309D01*
X95261904Y-82502309D02*
X95166666Y-82549928D01*
X95166666Y-82549928D02*
X94785714Y-82549928D01*
X95738095Y-82121357D02*
X95785714Y-82073738D01*
X95785714Y-82073738D02*
X95880952Y-82026119D01*
X95880952Y-82026119D02*
X96119047Y-82026119D01*
X96119047Y-82026119D02*
X96214285Y-82073738D01*
X96214285Y-82073738D02*
X96261904Y-82121357D01*
X96261904Y-82121357D02*
X96309523Y-82216595D01*
X96309523Y-82216595D02*
X96309523Y-82311833D01*
X96309523Y-82311833D02*
X96261904Y-82454690D01*
X96261904Y-82454690D02*
X95690476Y-83026119D01*
X95690476Y-83026119D02*
X96309523Y-83026119D01*
X96785714Y-83026119D02*
X96976190Y-83026119D01*
X96976190Y-83026119D02*
X97071428Y-82978500D01*
X97071428Y-82978500D02*
X97119047Y-82930880D01*
X97119047Y-82930880D02*
X97214285Y-82788023D01*
X97214285Y-82788023D02*
X97261904Y-82597547D01*
X97261904Y-82597547D02*
X97261904Y-82216595D01*
X97261904Y-82216595D02*
X97214285Y-82121357D01*
X97214285Y-82121357D02*
X97166666Y-82073738D01*
X97166666Y-82073738D02*
X97071428Y-82026119D01*
X97071428Y-82026119D02*
X96880952Y-82026119D01*
X96880952Y-82026119D02*
X96785714Y-82073738D01*
X96785714Y-82073738D02*
X96738095Y-82121357D01*
X96738095Y-82121357D02*
X96690476Y-82216595D01*
X96690476Y-82216595D02*
X96690476Y-82454690D01*
X96690476Y-82454690D02*
X96738095Y-82549928D01*
X96738095Y-82549928D02*
X96785714Y-82597547D01*
X96785714Y-82597547D02*
X96880952Y-82645166D01*
X96880952Y-82645166D02*
X97071428Y-82645166D01*
X97071428Y-82645166D02*
X97166666Y-82597547D01*
X97166666Y-82597547D02*
X97214285Y-82549928D01*
X97214285Y-82549928D02*
X97261904Y-82454690D01*
X103904761Y-94151357D02*
X103809523Y-94103738D01*
X103809523Y-94103738D02*
X103714285Y-94008500D01*
X103714285Y-94008500D02*
X103571428Y-93865642D01*
X103571428Y-93865642D02*
X103476190Y-93818023D01*
X103476190Y-93818023D02*
X103380952Y-93818023D01*
X103428571Y-94056119D02*
X103333333Y-94008500D01*
X103333333Y-94008500D02*
X103238095Y-93913261D01*
X103238095Y-93913261D02*
X103190476Y-93722785D01*
X103190476Y-93722785D02*
X103190476Y-93389452D01*
X103190476Y-93389452D02*
X103238095Y-93198976D01*
X103238095Y-93198976D02*
X103333333Y-93103738D01*
X103333333Y-93103738D02*
X103428571Y-93056119D01*
X103428571Y-93056119D02*
X103619047Y-93056119D01*
X103619047Y-93056119D02*
X103714285Y-93103738D01*
X103714285Y-93103738D02*
X103809523Y-93198976D01*
X103809523Y-93198976D02*
X103857142Y-93389452D01*
X103857142Y-93389452D02*
X103857142Y-93722785D01*
X103857142Y-93722785D02*
X103809523Y-93913261D01*
X103809523Y-93913261D02*
X103714285Y-94008500D01*
X103714285Y-94008500D02*
X103619047Y-94056119D01*
X103619047Y-94056119D02*
X103428571Y-94056119D01*
X104238095Y-93151357D02*
X104285714Y-93103738D01*
X104285714Y-93103738D02*
X104380952Y-93056119D01*
X104380952Y-93056119D02*
X104619047Y-93056119D01*
X104619047Y-93056119D02*
X104714285Y-93103738D01*
X104714285Y-93103738D02*
X104761904Y-93151357D01*
X104761904Y-93151357D02*
X104809523Y-93246595D01*
X104809523Y-93246595D02*
X104809523Y-93341833D01*
X104809523Y-93341833D02*
X104761904Y-93484690D01*
X104761904Y-93484690D02*
X104190476Y-94056119D01*
X104190476Y-94056119D02*
X104809523Y-94056119D01*
X76738095Y-97958119D02*
X77309523Y-97958119D01*
X77023809Y-98958119D02*
X77023809Y-97958119D01*
X77642857Y-98958119D02*
X77642857Y-97958119D01*
X77642857Y-97958119D02*
X78023809Y-97958119D01*
X78023809Y-97958119D02*
X78119047Y-98005738D01*
X78119047Y-98005738D02*
X78166666Y-98053357D01*
X78166666Y-98053357D02*
X78214285Y-98148595D01*
X78214285Y-98148595D02*
X78214285Y-98291452D01*
X78214285Y-98291452D02*
X78166666Y-98386690D01*
X78166666Y-98386690D02*
X78119047Y-98434309D01*
X78119047Y-98434309D02*
X78023809Y-98481928D01*
X78023809Y-98481928D02*
X77642857Y-98481928D01*
X79071428Y-97958119D02*
X78880952Y-97958119D01*
X78880952Y-97958119D02*
X78785714Y-98005738D01*
X78785714Y-98005738D02*
X78738095Y-98053357D01*
X78738095Y-98053357D02*
X78642857Y-98196214D01*
X78642857Y-98196214D02*
X78595238Y-98386690D01*
X78595238Y-98386690D02*
X78595238Y-98767642D01*
X78595238Y-98767642D02*
X78642857Y-98862880D01*
X78642857Y-98862880D02*
X78690476Y-98910500D01*
X78690476Y-98910500D02*
X78785714Y-98958119D01*
X78785714Y-98958119D02*
X78976190Y-98958119D01*
X78976190Y-98958119D02*
X79071428Y-98910500D01*
X79071428Y-98910500D02*
X79119047Y-98862880D01*
X79119047Y-98862880D02*
X79166666Y-98767642D01*
X79166666Y-98767642D02*
X79166666Y-98529547D01*
X79166666Y-98529547D02*
X79119047Y-98434309D01*
X79119047Y-98434309D02*
X79071428Y-98386690D01*
X79071428Y-98386690D02*
X78976190Y-98339071D01*
X78976190Y-98339071D02*
X78785714Y-98339071D01*
X78785714Y-98339071D02*
X78690476Y-98386690D01*
X78690476Y-98386690D02*
X78642857Y-98434309D01*
X78642857Y-98434309D02*
X78595238Y-98529547D01*
X98357142Y-91026119D02*
X98023809Y-90549928D01*
X97785714Y-91026119D02*
X97785714Y-90026119D01*
X97785714Y-90026119D02*
X98166666Y-90026119D01*
X98166666Y-90026119D02*
X98261904Y-90073738D01*
X98261904Y-90073738D02*
X98309523Y-90121357D01*
X98309523Y-90121357D02*
X98357142Y-90216595D01*
X98357142Y-90216595D02*
X98357142Y-90359452D01*
X98357142Y-90359452D02*
X98309523Y-90454690D01*
X98309523Y-90454690D02*
X98261904Y-90502309D01*
X98261904Y-90502309D02*
X98166666Y-90549928D01*
X98166666Y-90549928D02*
X97785714Y-90549928D01*
X98738095Y-90121357D02*
X98785714Y-90073738D01*
X98785714Y-90073738D02*
X98880952Y-90026119D01*
X98880952Y-90026119D02*
X99119047Y-90026119D01*
X99119047Y-90026119D02*
X99214285Y-90073738D01*
X99214285Y-90073738D02*
X99261904Y-90121357D01*
X99261904Y-90121357D02*
X99309523Y-90216595D01*
X99309523Y-90216595D02*
X99309523Y-90311833D01*
X99309523Y-90311833D02*
X99261904Y-90454690D01*
X99261904Y-90454690D02*
X98690476Y-91026119D01*
X98690476Y-91026119D02*
X99309523Y-91026119D01*
X100166666Y-90359452D02*
X100166666Y-91026119D01*
X99928571Y-89978500D02*
X99690476Y-90692785D01*
X99690476Y-90692785D02*
X100309523Y-90692785D01*
X90904761Y-76151357D02*
X90809523Y-76103738D01*
X90809523Y-76103738D02*
X90714285Y-76008500D01*
X90714285Y-76008500D02*
X90571428Y-75865642D01*
X90571428Y-75865642D02*
X90476190Y-75818023D01*
X90476190Y-75818023D02*
X90380952Y-75818023D01*
X90428571Y-76056119D02*
X90333333Y-76008500D01*
X90333333Y-76008500D02*
X90238095Y-75913261D01*
X90238095Y-75913261D02*
X90190476Y-75722785D01*
X90190476Y-75722785D02*
X90190476Y-75389452D01*
X90190476Y-75389452D02*
X90238095Y-75198976D01*
X90238095Y-75198976D02*
X90333333Y-75103738D01*
X90333333Y-75103738D02*
X90428571Y-75056119D01*
X90428571Y-75056119D02*
X90619047Y-75056119D01*
X90619047Y-75056119D02*
X90714285Y-75103738D01*
X90714285Y-75103738D02*
X90809523Y-75198976D01*
X90809523Y-75198976D02*
X90857142Y-75389452D01*
X90857142Y-75389452D02*
X90857142Y-75722785D01*
X90857142Y-75722785D02*
X90809523Y-75913261D01*
X90809523Y-75913261D02*
X90714285Y-76008500D01*
X90714285Y-76008500D02*
X90619047Y-76056119D01*
X90619047Y-76056119D02*
X90428571Y-76056119D01*
X91190476Y-75056119D02*
X91809523Y-75056119D01*
X91809523Y-75056119D02*
X91476190Y-75437071D01*
X91476190Y-75437071D02*
X91619047Y-75437071D01*
X91619047Y-75437071D02*
X91714285Y-75484690D01*
X91714285Y-75484690D02*
X91761904Y-75532309D01*
X91761904Y-75532309D02*
X91809523Y-75627547D01*
X91809523Y-75627547D02*
X91809523Y-75865642D01*
X91809523Y-75865642D02*
X91761904Y-75960880D01*
X91761904Y-75960880D02*
X91714285Y-76008500D01*
X91714285Y-76008500D02*
X91619047Y-76056119D01*
X91619047Y-76056119D02*
X91333333Y-76056119D01*
X91333333Y-76056119D02*
X91238095Y-76008500D01*
X91238095Y-76008500D02*
X91190476Y-75960880D01*
X82833333Y-42026119D02*
X82500000Y-41549928D01*
X82261905Y-42026119D02*
X82261905Y-41026119D01*
X82261905Y-41026119D02*
X82642857Y-41026119D01*
X82642857Y-41026119D02*
X82738095Y-41073738D01*
X82738095Y-41073738D02*
X82785714Y-41121357D01*
X82785714Y-41121357D02*
X82833333Y-41216595D01*
X82833333Y-41216595D02*
X82833333Y-41359452D01*
X82833333Y-41359452D02*
X82785714Y-41454690D01*
X82785714Y-41454690D02*
X82738095Y-41502309D01*
X82738095Y-41502309D02*
X82642857Y-41549928D01*
X82642857Y-41549928D02*
X82261905Y-41549928D01*
X83690476Y-41026119D02*
X83500000Y-41026119D01*
X83500000Y-41026119D02*
X83404762Y-41073738D01*
X83404762Y-41073738D02*
X83357143Y-41121357D01*
X83357143Y-41121357D02*
X83261905Y-41264214D01*
X83261905Y-41264214D02*
X83214286Y-41454690D01*
X83214286Y-41454690D02*
X83214286Y-41835642D01*
X83214286Y-41835642D02*
X83261905Y-41930880D01*
X83261905Y-41930880D02*
X83309524Y-41978500D01*
X83309524Y-41978500D02*
X83404762Y-42026119D01*
X83404762Y-42026119D02*
X83595238Y-42026119D01*
X83595238Y-42026119D02*
X83690476Y-41978500D01*
X83690476Y-41978500D02*
X83738095Y-41930880D01*
X83738095Y-41930880D02*
X83785714Y-41835642D01*
X83785714Y-41835642D02*
X83785714Y-41597547D01*
X83785714Y-41597547D02*
X83738095Y-41502309D01*
X83738095Y-41502309D02*
X83690476Y-41454690D01*
X83690476Y-41454690D02*
X83595238Y-41407071D01*
X83595238Y-41407071D02*
X83404762Y-41407071D01*
X83404762Y-41407071D02*
X83309524Y-41454690D01*
X83309524Y-41454690D02*
X83261905Y-41502309D01*
X83261905Y-41502309D02*
X83214286Y-41597547D01*
X56738095Y-97958119D02*
X57309523Y-97958119D01*
X57023809Y-98958119D02*
X57023809Y-97958119D01*
X57642857Y-98958119D02*
X57642857Y-97958119D01*
X57642857Y-97958119D02*
X58023809Y-97958119D01*
X58023809Y-97958119D02*
X58119047Y-98005738D01*
X58119047Y-98005738D02*
X58166666Y-98053357D01*
X58166666Y-98053357D02*
X58214285Y-98148595D01*
X58214285Y-98148595D02*
X58214285Y-98291452D01*
X58214285Y-98291452D02*
X58166666Y-98386690D01*
X58166666Y-98386690D02*
X58119047Y-98434309D01*
X58119047Y-98434309D02*
X58023809Y-98481928D01*
X58023809Y-98481928D02*
X57642857Y-98481928D01*
X58595238Y-98053357D02*
X58642857Y-98005738D01*
X58642857Y-98005738D02*
X58738095Y-97958119D01*
X58738095Y-97958119D02*
X58976190Y-97958119D01*
X58976190Y-97958119D02*
X59071428Y-98005738D01*
X59071428Y-98005738D02*
X59119047Y-98053357D01*
X59119047Y-98053357D02*
X59166666Y-98148595D01*
X59166666Y-98148595D02*
X59166666Y-98243833D01*
X59166666Y-98243833D02*
X59119047Y-98386690D01*
X59119047Y-98386690D02*
X58547619Y-98958119D01*
X58547619Y-98958119D02*
X59166666Y-98958119D01*
X71833333Y-43680880D02*
X71785714Y-43728500D01*
X71785714Y-43728500D02*
X71642857Y-43776119D01*
X71642857Y-43776119D02*
X71547619Y-43776119D01*
X71547619Y-43776119D02*
X71404762Y-43728500D01*
X71404762Y-43728500D02*
X71309524Y-43633261D01*
X71309524Y-43633261D02*
X71261905Y-43538023D01*
X71261905Y-43538023D02*
X71214286Y-43347547D01*
X71214286Y-43347547D02*
X71214286Y-43204690D01*
X71214286Y-43204690D02*
X71261905Y-43014214D01*
X71261905Y-43014214D02*
X71309524Y-42918976D01*
X71309524Y-42918976D02*
X71404762Y-42823738D01*
X71404762Y-42823738D02*
X71547619Y-42776119D01*
X71547619Y-42776119D02*
X71642857Y-42776119D01*
X71642857Y-42776119D02*
X71785714Y-42823738D01*
X71785714Y-42823738D02*
X71833333Y-42871357D01*
X72738095Y-42776119D02*
X72261905Y-42776119D01*
X72261905Y-42776119D02*
X72214286Y-43252309D01*
X72214286Y-43252309D02*
X72261905Y-43204690D01*
X72261905Y-43204690D02*
X72357143Y-43157071D01*
X72357143Y-43157071D02*
X72595238Y-43157071D01*
X72595238Y-43157071D02*
X72690476Y-43204690D01*
X72690476Y-43204690D02*
X72738095Y-43252309D01*
X72738095Y-43252309D02*
X72785714Y-43347547D01*
X72785714Y-43347547D02*
X72785714Y-43585642D01*
X72785714Y-43585642D02*
X72738095Y-43680880D01*
X72738095Y-43680880D02*
X72690476Y-43728500D01*
X72690476Y-43728500D02*
X72595238Y-43776119D01*
X72595238Y-43776119D02*
X72357143Y-43776119D01*
X72357143Y-43776119D02*
X72261905Y-43728500D01*
X72261905Y-43728500D02*
X72214286Y-43680880D01*
X87357142Y-66026119D02*
X87023809Y-65549928D01*
X86785714Y-66026119D02*
X86785714Y-65026119D01*
X86785714Y-65026119D02*
X87166666Y-65026119D01*
X87166666Y-65026119D02*
X87261904Y-65073738D01*
X87261904Y-65073738D02*
X87309523Y-65121357D01*
X87309523Y-65121357D02*
X87357142Y-65216595D01*
X87357142Y-65216595D02*
X87357142Y-65359452D01*
X87357142Y-65359452D02*
X87309523Y-65454690D01*
X87309523Y-65454690D02*
X87261904Y-65502309D01*
X87261904Y-65502309D02*
X87166666Y-65549928D01*
X87166666Y-65549928D02*
X86785714Y-65549928D01*
X88309523Y-66026119D02*
X87738095Y-66026119D01*
X88023809Y-66026119D02*
X88023809Y-65026119D01*
X88023809Y-65026119D02*
X87928571Y-65168976D01*
X87928571Y-65168976D02*
X87833333Y-65264214D01*
X87833333Y-65264214D02*
X87738095Y-65311833D01*
X89166666Y-65359452D02*
X89166666Y-66026119D01*
X88928571Y-64978500D02*
X88690476Y-65692785D01*
X88690476Y-65692785D02*
X89309523Y-65692785D01*
X47238095Y-79056119D02*
X47238095Y-79865642D01*
X47238095Y-79865642D02*
X47285714Y-79960880D01*
X47285714Y-79960880D02*
X47333333Y-80008500D01*
X47333333Y-80008500D02*
X47428571Y-80056119D01*
X47428571Y-80056119D02*
X47619047Y-80056119D01*
X47619047Y-80056119D02*
X47714285Y-80008500D01*
X47714285Y-80008500D02*
X47761904Y-79960880D01*
X47761904Y-79960880D02*
X47809523Y-79865642D01*
X47809523Y-79865642D02*
X47809523Y-79056119D01*
X48714285Y-79389452D02*
X48714285Y-80056119D01*
X48476190Y-79008500D02*
X48238095Y-79722785D01*
X48238095Y-79722785D02*
X48857142Y-79722785D01*
X59357142Y-90026119D02*
X59023809Y-89549928D01*
X58785714Y-90026119D02*
X58785714Y-89026119D01*
X58785714Y-89026119D02*
X59166666Y-89026119D01*
X59166666Y-89026119D02*
X59261904Y-89073738D01*
X59261904Y-89073738D02*
X59309523Y-89121357D01*
X59309523Y-89121357D02*
X59357142Y-89216595D01*
X59357142Y-89216595D02*
X59357142Y-89359452D01*
X59357142Y-89359452D02*
X59309523Y-89454690D01*
X59309523Y-89454690D02*
X59261904Y-89502309D01*
X59261904Y-89502309D02*
X59166666Y-89549928D01*
X59166666Y-89549928D02*
X58785714Y-89549928D01*
X60309523Y-90026119D02*
X59738095Y-90026119D01*
X60023809Y-90026119D02*
X60023809Y-89026119D01*
X60023809Y-89026119D02*
X59928571Y-89168976D01*
X59928571Y-89168976D02*
X59833333Y-89264214D01*
X59833333Y-89264214D02*
X59738095Y-89311833D01*
X60642857Y-89026119D02*
X61309523Y-89026119D01*
X61309523Y-89026119D02*
X60880952Y-90026119D01*
X71261905Y-92958119D02*
X71833333Y-92958119D01*
X71547619Y-93958119D02*
X71547619Y-92958119D01*
X72166667Y-93958119D02*
X72166667Y-92958119D01*
X72166667Y-92958119D02*
X72547619Y-92958119D01*
X72547619Y-92958119D02*
X72642857Y-93005738D01*
X72642857Y-93005738D02*
X72690476Y-93053357D01*
X72690476Y-93053357D02*
X72738095Y-93148595D01*
X72738095Y-93148595D02*
X72738095Y-93291452D01*
X72738095Y-93291452D02*
X72690476Y-93386690D01*
X72690476Y-93386690D02*
X72642857Y-93434309D01*
X72642857Y-93434309D02*
X72547619Y-93481928D01*
X72547619Y-93481928D02*
X72166667Y-93481928D01*
X73690476Y-93958119D02*
X73119048Y-93958119D01*
X73404762Y-93958119D02*
X73404762Y-92958119D01*
X73404762Y-92958119D02*
X73309524Y-93100976D01*
X73309524Y-93100976D02*
X73214286Y-93196214D01*
X73214286Y-93196214D02*
X73119048Y-93243833D01*
X74547619Y-93291452D02*
X74547619Y-93958119D01*
X74309524Y-92910500D02*
X74071429Y-93624785D01*
X74071429Y-93624785D02*
X74690476Y-93624785D01*
X67833333Y-42026119D02*
X67500000Y-41549928D01*
X67261905Y-42026119D02*
X67261905Y-41026119D01*
X67261905Y-41026119D02*
X67642857Y-41026119D01*
X67642857Y-41026119D02*
X67738095Y-41073738D01*
X67738095Y-41073738D02*
X67785714Y-41121357D01*
X67785714Y-41121357D02*
X67833333Y-41216595D01*
X67833333Y-41216595D02*
X67833333Y-41359452D01*
X67833333Y-41359452D02*
X67785714Y-41454690D01*
X67785714Y-41454690D02*
X67738095Y-41502309D01*
X67738095Y-41502309D02*
X67642857Y-41549928D01*
X67642857Y-41549928D02*
X67261905Y-41549928D01*
X68214286Y-41121357D02*
X68261905Y-41073738D01*
X68261905Y-41073738D02*
X68357143Y-41026119D01*
X68357143Y-41026119D02*
X68595238Y-41026119D01*
X68595238Y-41026119D02*
X68690476Y-41073738D01*
X68690476Y-41073738D02*
X68738095Y-41121357D01*
X68738095Y-41121357D02*
X68785714Y-41216595D01*
X68785714Y-41216595D02*
X68785714Y-41311833D01*
X68785714Y-41311833D02*
X68738095Y-41454690D01*
X68738095Y-41454690D02*
X68166667Y-42026119D01*
X68166667Y-42026119D02*
X68785714Y-42026119D01*
X112238095Y-61456119D02*
X112238095Y-62265642D01*
X112238095Y-62265642D02*
X112285714Y-62360880D01*
X112285714Y-62360880D02*
X112333333Y-62408500D01*
X112333333Y-62408500D02*
X112428571Y-62456119D01*
X112428571Y-62456119D02*
X112619047Y-62456119D01*
X112619047Y-62456119D02*
X112714285Y-62408500D01*
X112714285Y-62408500D02*
X112761904Y-62360880D01*
X112761904Y-62360880D02*
X112809523Y-62265642D01*
X112809523Y-62265642D02*
X112809523Y-61456119D01*
X113238095Y-61551357D02*
X113285714Y-61503738D01*
X113285714Y-61503738D02*
X113380952Y-61456119D01*
X113380952Y-61456119D02*
X113619047Y-61456119D01*
X113619047Y-61456119D02*
X113714285Y-61503738D01*
X113714285Y-61503738D02*
X113761904Y-61551357D01*
X113761904Y-61551357D02*
X113809523Y-61646595D01*
X113809523Y-61646595D02*
X113809523Y-61741833D01*
X113809523Y-61741833D02*
X113761904Y-61884690D01*
X113761904Y-61884690D02*
X113190476Y-62456119D01*
X113190476Y-62456119D02*
X113809523Y-62456119D01*
X98357142Y-99026119D02*
X98023809Y-98549928D01*
X97785714Y-99026119D02*
X97785714Y-98026119D01*
X97785714Y-98026119D02*
X98166666Y-98026119D01*
X98166666Y-98026119D02*
X98261904Y-98073738D01*
X98261904Y-98073738D02*
X98309523Y-98121357D01*
X98309523Y-98121357D02*
X98357142Y-98216595D01*
X98357142Y-98216595D02*
X98357142Y-98359452D01*
X98357142Y-98359452D02*
X98309523Y-98454690D01*
X98309523Y-98454690D02*
X98261904Y-98502309D01*
X98261904Y-98502309D02*
X98166666Y-98549928D01*
X98166666Y-98549928D02*
X97785714Y-98549928D01*
X98738095Y-98121357D02*
X98785714Y-98073738D01*
X98785714Y-98073738D02*
X98880952Y-98026119D01*
X98880952Y-98026119D02*
X99119047Y-98026119D01*
X99119047Y-98026119D02*
X99214285Y-98073738D01*
X99214285Y-98073738D02*
X99261904Y-98121357D01*
X99261904Y-98121357D02*
X99309523Y-98216595D01*
X99309523Y-98216595D02*
X99309523Y-98311833D01*
X99309523Y-98311833D02*
X99261904Y-98454690D01*
X99261904Y-98454690D02*
X98690476Y-99026119D01*
X98690476Y-99026119D02*
X99309523Y-99026119D01*
X100166666Y-98026119D02*
X99976190Y-98026119D01*
X99976190Y-98026119D02*
X99880952Y-98073738D01*
X99880952Y-98073738D02*
X99833333Y-98121357D01*
X99833333Y-98121357D02*
X99738095Y-98264214D01*
X99738095Y-98264214D02*
X99690476Y-98454690D01*
X99690476Y-98454690D02*
X99690476Y-98835642D01*
X99690476Y-98835642D02*
X99738095Y-98930880D01*
X99738095Y-98930880D02*
X99785714Y-98978500D01*
X99785714Y-98978500D02*
X99880952Y-99026119D01*
X99880952Y-99026119D02*
X100071428Y-99026119D01*
X100071428Y-99026119D02*
X100166666Y-98978500D01*
X100166666Y-98978500D02*
X100214285Y-98930880D01*
X100214285Y-98930880D02*
X100261904Y-98835642D01*
X100261904Y-98835642D02*
X100261904Y-98597547D01*
X100261904Y-98597547D02*
X100214285Y-98502309D01*
X100214285Y-98502309D02*
X100166666Y-98454690D01*
X100166666Y-98454690D02*
X100071428Y-98407071D01*
X100071428Y-98407071D02*
X99880952Y-98407071D01*
X99880952Y-98407071D02*
X99785714Y-98454690D01*
X99785714Y-98454690D02*
X99738095Y-98502309D01*
X99738095Y-98502309D02*
X99690476Y-98597547D01*
X55357142Y-90026119D02*
X55023809Y-89549928D01*
X54785714Y-90026119D02*
X54785714Y-89026119D01*
X54785714Y-89026119D02*
X55166666Y-89026119D01*
X55166666Y-89026119D02*
X55261904Y-89073738D01*
X55261904Y-89073738D02*
X55309523Y-89121357D01*
X55309523Y-89121357D02*
X55357142Y-89216595D01*
X55357142Y-89216595D02*
X55357142Y-89359452D01*
X55357142Y-89359452D02*
X55309523Y-89454690D01*
X55309523Y-89454690D02*
X55261904Y-89502309D01*
X55261904Y-89502309D02*
X55166666Y-89549928D01*
X55166666Y-89549928D02*
X54785714Y-89549928D01*
X56309523Y-90026119D02*
X55738095Y-90026119D01*
X56023809Y-90026119D02*
X56023809Y-89026119D01*
X56023809Y-89026119D02*
X55928571Y-89168976D01*
X55928571Y-89168976D02*
X55833333Y-89264214D01*
X55833333Y-89264214D02*
X55738095Y-89311833D01*
X57166666Y-89026119D02*
X56976190Y-89026119D01*
X56976190Y-89026119D02*
X56880952Y-89073738D01*
X56880952Y-89073738D02*
X56833333Y-89121357D01*
X56833333Y-89121357D02*
X56738095Y-89264214D01*
X56738095Y-89264214D02*
X56690476Y-89454690D01*
X56690476Y-89454690D02*
X56690476Y-89835642D01*
X56690476Y-89835642D02*
X56738095Y-89930880D01*
X56738095Y-89930880D02*
X56785714Y-89978500D01*
X56785714Y-89978500D02*
X56880952Y-90026119D01*
X56880952Y-90026119D02*
X57071428Y-90026119D01*
X57071428Y-90026119D02*
X57166666Y-89978500D01*
X57166666Y-89978500D02*
X57214285Y-89930880D01*
X57214285Y-89930880D02*
X57261904Y-89835642D01*
X57261904Y-89835642D02*
X57261904Y-89597547D01*
X57261904Y-89597547D02*
X57214285Y-89502309D01*
X57214285Y-89502309D02*
X57166666Y-89454690D01*
X57166666Y-89454690D02*
X57071428Y-89407071D01*
X57071428Y-89407071D02*
X56880952Y-89407071D01*
X56880952Y-89407071D02*
X56785714Y-89454690D01*
X56785714Y-89454690D02*
X56738095Y-89502309D01*
X56738095Y-89502309D02*
X56690476Y-89597547D01*
X94904761Y-76151357D02*
X94809523Y-76103738D01*
X94809523Y-76103738D02*
X94714285Y-76008500D01*
X94714285Y-76008500D02*
X94571428Y-75865642D01*
X94571428Y-75865642D02*
X94476190Y-75818023D01*
X94476190Y-75818023D02*
X94380952Y-75818023D01*
X94428571Y-76056119D02*
X94333333Y-76008500D01*
X94333333Y-76008500D02*
X94238095Y-75913261D01*
X94238095Y-75913261D02*
X94190476Y-75722785D01*
X94190476Y-75722785D02*
X94190476Y-75389452D01*
X94190476Y-75389452D02*
X94238095Y-75198976D01*
X94238095Y-75198976D02*
X94333333Y-75103738D01*
X94333333Y-75103738D02*
X94428571Y-75056119D01*
X94428571Y-75056119D02*
X94619047Y-75056119D01*
X94619047Y-75056119D02*
X94714285Y-75103738D01*
X94714285Y-75103738D02*
X94809523Y-75198976D01*
X94809523Y-75198976D02*
X94857142Y-75389452D01*
X94857142Y-75389452D02*
X94857142Y-75722785D01*
X94857142Y-75722785D02*
X94809523Y-75913261D01*
X94809523Y-75913261D02*
X94714285Y-76008500D01*
X94714285Y-76008500D02*
X94619047Y-76056119D01*
X94619047Y-76056119D02*
X94428571Y-76056119D01*
X95714285Y-75389452D02*
X95714285Y-76056119D01*
X95476190Y-75008500D02*
X95238095Y-75722785D01*
X95238095Y-75722785D02*
X95857142Y-75722785D01*
X49833333Y-44026119D02*
X49500000Y-43549928D01*
X49261905Y-44026119D02*
X49261905Y-43026119D01*
X49261905Y-43026119D02*
X49642857Y-43026119D01*
X49642857Y-43026119D02*
X49738095Y-43073738D01*
X49738095Y-43073738D02*
X49785714Y-43121357D01*
X49785714Y-43121357D02*
X49833333Y-43216595D01*
X49833333Y-43216595D02*
X49833333Y-43359452D01*
X49833333Y-43359452D02*
X49785714Y-43454690D01*
X49785714Y-43454690D02*
X49738095Y-43502309D01*
X49738095Y-43502309D02*
X49642857Y-43549928D01*
X49642857Y-43549928D02*
X49261905Y-43549928D01*
X50785714Y-44026119D02*
X50214286Y-44026119D01*
X50500000Y-44026119D02*
X50500000Y-43026119D01*
X50500000Y-43026119D02*
X50404762Y-43168976D01*
X50404762Y-43168976D02*
X50309524Y-43264214D01*
X50309524Y-43264214D02*
X50214286Y-43311833D01*
X83833333Y-53026119D02*
X83500000Y-52549928D01*
X83261905Y-53026119D02*
X83261905Y-52026119D01*
X83261905Y-52026119D02*
X83642857Y-52026119D01*
X83642857Y-52026119D02*
X83738095Y-52073738D01*
X83738095Y-52073738D02*
X83785714Y-52121357D01*
X83785714Y-52121357D02*
X83833333Y-52216595D01*
X83833333Y-52216595D02*
X83833333Y-52359452D01*
X83833333Y-52359452D02*
X83785714Y-52454690D01*
X83785714Y-52454690D02*
X83738095Y-52502309D01*
X83738095Y-52502309D02*
X83642857Y-52549928D01*
X83642857Y-52549928D02*
X83261905Y-52549928D01*
X84690476Y-52359452D02*
X84690476Y-53026119D01*
X84452381Y-51978500D02*
X84214286Y-52692785D01*
X84214286Y-52692785D02*
X84833333Y-52692785D01*
X52916666Y-21932309D02*
X52583333Y-21932309D01*
X52583333Y-22456119D02*
X52583333Y-21456119D01*
X52583333Y-21456119D02*
X53059523Y-21456119D01*
X53964285Y-22456119D02*
X53392857Y-22456119D01*
X53678571Y-22456119D02*
X53678571Y-21456119D01*
X53678571Y-21456119D02*
X53583333Y-21598976D01*
X53583333Y-21598976D02*
X53488095Y-21694214D01*
X53488095Y-21694214D02*
X53392857Y-21741833D01*
X91261905Y-92958119D02*
X91833333Y-92958119D01*
X91547619Y-93958119D02*
X91547619Y-92958119D01*
X92166667Y-93958119D02*
X92166667Y-92958119D01*
X92166667Y-92958119D02*
X92547619Y-92958119D01*
X92547619Y-92958119D02*
X92642857Y-93005738D01*
X92642857Y-93005738D02*
X92690476Y-93053357D01*
X92690476Y-93053357D02*
X92738095Y-93148595D01*
X92738095Y-93148595D02*
X92738095Y-93291452D01*
X92738095Y-93291452D02*
X92690476Y-93386690D01*
X92690476Y-93386690D02*
X92642857Y-93434309D01*
X92642857Y-93434309D02*
X92547619Y-93481928D01*
X92547619Y-93481928D02*
X92166667Y-93481928D01*
X93690476Y-93958119D02*
X93119048Y-93958119D01*
X93404762Y-93958119D02*
X93404762Y-92958119D01*
X93404762Y-92958119D02*
X93309524Y-93100976D01*
X93309524Y-93100976D02*
X93214286Y-93196214D01*
X93214286Y-93196214D02*
X93119048Y-93243833D01*
X94261905Y-93386690D02*
X94166667Y-93339071D01*
X94166667Y-93339071D02*
X94119048Y-93291452D01*
X94119048Y-93291452D02*
X94071429Y-93196214D01*
X94071429Y-93196214D02*
X94071429Y-93148595D01*
X94071429Y-93148595D02*
X94119048Y-93053357D01*
X94119048Y-93053357D02*
X94166667Y-93005738D01*
X94166667Y-93005738D02*
X94261905Y-92958119D01*
X94261905Y-92958119D02*
X94452381Y-92958119D01*
X94452381Y-92958119D02*
X94547619Y-93005738D01*
X94547619Y-93005738D02*
X94595238Y-93053357D01*
X94595238Y-93053357D02*
X94642857Y-93148595D01*
X94642857Y-93148595D02*
X94642857Y-93196214D01*
X94642857Y-93196214D02*
X94595238Y-93291452D01*
X94595238Y-93291452D02*
X94547619Y-93339071D01*
X94547619Y-93339071D02*
X94452381Y-93386690D01*
X94452381Y-93386690D02*
X94261905Y-93386690D01*
X94261905Y-93386690D02*
X94166667Y-93434309D01*
X94166667Y-93434309D02*
X94119048Y-93481928D01*
X94119048Y-93481928D02*
X94071429Y-93577166D01*
X94071429Y-93577166D02*
X94071429Y-93767642D01*
X94071429Y-93767642D02*
X94119048Y-93862880D01*
X94119048Y-93862880D02*
X94166667Y-93910500D01*
X94166667Y-93910500D02*
X94261905Y-93958119D01*
X94261905Y-93958119D02*
X94452381Y-93958119D01*
X94452381Y-93958119D02*
X94547619Y-93910500D01*
X94547619Y-93910500D02*
X94595238Y-93862880D01*
X94595238Y-93862880D02*
X94642857Y-93767642D01*
X94642857Y-93767642D02*
X94642857Y-93577166D01*
X94642857Y-93577166D02*
X94595238Y-93481928D01*
X94595238Y-93481928D02*
X94547619Y-93434309D01*
X94547619Y-93434309D02*
X94452381Y-93386690D01*
X124238095Y-105156119D02*
X124238095Y-104156119D01*
X124238095Y-104632309D02*
X124809523Y-104632309D01*
X124809523Y-105156119D02*
X124809523Y-104156119D01*
X125714285Y-104489452D02*
X125714285Y-105156119D01*
X125476190Y-104108500D02*
X125238095Y-104822785D01*
X125238095Y-104822785D02*
X125857142Y-104822785D01*
X75357142Y-78026119D02*
X75023809Y-77549928D01*
X74785714Y-78026119D02*
X74785714Y-77026119D01*
X74785714Y-77026119D02*
X75166666Y-77026119D01*
X75166666Y-77026119D02*
X75261904Y-77073738D01*
X75261904Y-77073738D02*
X75309523Y-77121357D01*
X75309523Y-77121357D02*
X75357142Y-77216595D01*
X75357142Y-77216595D02*
X75357142Y-77359452D01*
X75357142Y-77359452D02*
X75309523Y-77454690D01*
X75309523Y-77454690D02*
X75261904Y-77502309D01*
X75261904Y-77502309D02*
X75166666Y-77549928D01*
X75166666Y-77549928D02*
X74785714Y-77549928D01*
X75738095Y-77121357D02*
X75785714Y-77073738D01*
X75785714Y-77073738D02*
X75880952Y-77026119D01*
X75880952Y-77026119D02*
X76119047Y-77026119D01*
X76119047Y-77026119D02*
X76214285Y-77073738D01*
X76214285Y-77073738D02*
X76261904Y-77121357D01*
X76261904Y-77121357D02*
X76309523Y-77216595D01*
X76309523Y-77216595D02*
X76309523Y-77311833D01*
X76309523Y-77311833D02*
X76261904Y-77454690D01*
X76261904Y-77454690D02*
X75690476Y-78026119D01*
X75690476Y-78026119D02*
X76309523Y-78026119D01*
X76928571Y-77026119D02*
X77023809Y-77026119D01*
X77023809Y-77026119D02*
X77119047Y-77073738D01*
X77119047Y-77073738D02*
X77166666Y-77121357D01*
X77166666Y-77121357D02*
X77214285Y-77216595D01*
X77214285Y-77216595D02*
X77261904Y-77407071D01*
X77261904Y-77407071D02*
X77261904Y-77645166D01*
X77261904Y-77645166D02*
X77214285Y-77835642D01*
X77214285Y-77835642D02*
X77166666Y-77930880D01*
X77166666Y-77930880D02*
X77119047Y-77978500D01*
X77119047Y-77978500D02*
X77023809Y-78026119D01*
X77023809Y-78026119D02*
X76928571Y-78026119D01*
X76928571Y-78026119D02*
X76833333Y-77978500D01*
X76833333Y-77978500D02*
X76785714Y-77930880D01*
X76785714Y-77930880D02*
X76738095Y-77835642D01*
X76738095Y-77835642D02*
X76690476Y-77645166D01*
X76690476Y-77645166D02*
X76690476Y-77407071D01*
X76690476Y-77407071D02*
X76738095Y-77216595D01*
X76738095Y-77216595D02*
X76785714Y-77121357D01*
X76785714Y-77121357D02*
X76833333Y-77073738D01*
X76833333Y-77073738D02*
X76928571Y-77026119D01*
X112666667Y-95908500D02*
X112809524Y-95956119D01*
X112809524Y-95956119D02*
X113047619Y-95956119D01*
X113047619Y-95956119D02*
X113142857Y-95908500D01*
X113142857Y-95908500D02*
X113190476Y-95860880D01*
X113190476Y-95860880D02*
X113238095Y-95765642D01*
X113238095Y-95765642D02*
X113238095Y-95670404D01*
X113238095Y-95670404D02*
X113190476Y-95575166D01*
X113190476Y-95575166D02*
X113142857Y-95527547D01*
X113142857Y-95527547D02*
X113047619Y-95479928D01*
X113047619Y-95479928D02*
X112857143Y-95432309D01*
X112857143Y-95432309D02*
X112761905Y-95384690D01*
X112761905Y-95384690D02*
X112714286Y-95337071D01*
X112714286Y-95337071D02*
X112666667Y-95241833D01*
X112666667Y-95241833D02*
X112666667Y-95146595D01*
X112666667Y-95146595D02*
X112714286Y-95051357D01*
X112714286Y-95051357D02*
X112761905Y-95003738D01*
X112761905Y-95003738D02*
X112857143Y-94956119D01*
X112857143Y-94956119D02*
X113095238Y-94956119D01*
X113095238Y-94956119D02*
X113238095Y-95003738D01*
X113571429Y-94956119D02*
X113809524Y-95956119D01*
X113809524Y-95956119D02*
X114000000Y-95241833D01*
X114000000Y-95241833D02*
X114190476Y-95956119D01*
X114190476Y-95956119D02*
X114428572Y-94956119D01*
X115333333Y-95956119D02*
X114761905Y-95956119D01*
X115047619Y-95956119D02*
X115047619Y-94956119D01*
X115047619Y-94956119D02*
X114952381Y-95098976D01*
X114952381Y-95098976D02*
X114857143Y-95194214D01*
X114857143Y-95194214D02*
X114761905Y-95241833D01*
X51738095Y-97958119D02*
X52309523Y-97958119D01*
X52023809Y-98958119D02*
X52023809Y-97958119D01*
X52642857Y-98958119D02*
X52642857Y-97958119D01*
X52642857Y-97958119D02*
X53023809Y-97958119D01*
X53023809Y-97958119D02*
X53119047Y-98005738D01*
X53119047Y-98005738D02*
X53166666Y-98053357D01*
X53166666Y-98053357D02*
X53214285Y-98148595D01*
X53214285Y-98148595D02*
X53214285Y-98291452D01*
X53214285Y-98291452D02*
X53166666Y-98386690D01*
X53166666Y-98386690D02*
X53119047Y-98434309D01*
X53119047Y-98434309D02*
X53023809Y-98481928D01*
X53023809Y-98481928D02*
X52642857Y-98481928D01*
X54166666Y-98958119D02*
X53595238Y-98958119D01*
X53880952Y-98958119D02*
X53880952Y-97958119D01*
X53880952Y-97958119D02*
X53785714Y-98100976D01*
X53785714Y-98100976D02*
X53690476Y-98196214D01*
X53690476Y-98196214D02*
X53595238Y-98243833D01*
X54357142Y-71026119D02*
X54023809Y-70549928D01*
X53785714Y-71026119D02*
X53785714Y-70026119D01*
X53785714Y-70026119D02*
X54166666Y-70026119D01*
X54166666Y-70026119D02*
X54261904Y-70073738D01*
X54261904Y-70073738D02*
X54309523Y-70121357D01*
X54309523Y-70121357D02*
X54357142Y-70216595D01*
X54357142Y-70216595D02*
X54357142Y-70359452D01*
X54357142Y-70359452D02*
X54309523Y-70454690D01*
X54309523Y-70454690D02*
X54261904Y-70502309D01*
X54261904Y-70502309D02*
X54166666Y-70549928D01*
X54166666Y-70549928D02*
X53785714Y-70549928D01*
X54690476Y-70026119D02*
X55309523Y-70026119D01*
X55309523Y-70026119D02*
X54976190Y-70407071D01*
X54976190Y-70407071D02*
X55119047Y-70407071D01*
X55119047Y-70407071D02*
X55214285Y-70454690D01*
X55214285Y-70454690D02*
X55261904Y-70502309D01*
X55261904Y-70502309D02*
X55309523Y-70597547D01*
X55309523Y-70597547D02*
X55309523Y-70835642D01*
X55309523Y-70835642D02*
X55261904Y-70930880D01*
X55261904Y-70930880D02*
X55214285Y-70978500D01*
X55214285Y-70978500D02*
X55119047Y-71026119D01*
X55119047Y-71026119D02*
X54833333Y-71026119D01*
X54833333Y-71026119D02*
X54738095Y-70978500D01*
X54738095Y-70978500D02*
X54690476Y-70930880D01*
X55690476Y-70121357D02*
X55738095Y-70073738D01*
X55738095Y-70073738D02*
X55833333Y-70026119D01*
X55833333Y-70026119D02*
X56071428Y-70026119D01*
X56071428Y-70026119D02*
X56166666Y-70073738D01*
X56166666Y-70073738D02*
X56214285Y-70121357D01*
X56214285Y-70121357D02*
X56261904Y-70216595D01*
X56261904Y-70216595D02*
X56261904Y-70311833D01*
X56261904Y-70311833D02*
X56214285Y-70454690D01*
X56214285Y-70454690D02*
X55642857Y-71026119D01*
X55642857Y-71026119D02*
X56261904Y-71026119D01*
X47238095Y-69056119D02*
X47238095Y-69865642D01*
X47238095Y-69865642D02*
X47285714Y-69960880D01*
X47285714Y-69960880D02*
X47333333Y-70008500D01*
X47333333Y-70008500D02*
X47428571Y-70056119D01*
X47428571Y-70056119D02*
X47619047Y-70056119D01*
X47619047Y-70056119D02*
X47714285Y-70008500D01*
X47714285Y-70008500D02*
X47761904Y-69960880D01*
X47761904Y-69960880D02*
X47809523Y-69865642D01*
X47809523Y-69865642D02*
X47809523Y-69056119D01*
X48190476Y-69056119D02*
X48809523Y-69056119D01*
X48809523Y-69056119D02*
X48476190Y-69437071D01*
X48476190Y-69437071D02*
X48619047Y-69437071D01*
X48619047Y-69437071D02*
X48714285Y-69484690D01*
X48714285Y-69484690D02*
X48761904Y-69532309D01*
X48761904Y-69532309D02*
X48809523Y-69627547D01*
X48809523Y-69627547D02*
X48809523Y-69865642D01*
X48809523Y-69865642D02*
X48761904Y-69960880D01*
X48761904Y-69960880D02*
X48714285Y-70008500D01*
X48714285Y-70008500D02*
X48619047Y-70056119D01*
X48619047Y-70056119D02*
X48333333Y-70056119D01*
X48333333Y-70056119D02*
X48238095Y-70008500D01*
X48238095Y-70008500D02*
X48190476Y-69960880D01*
X61738095Y-97958119D02*
X62309523Y-97958119D01*
X62023809Y-98958119D02*
X62023809Y-97958119D01*
X62642857Y-98958119D02*
X62642857Y-97958119D01*
X62642857Y-97958119D02*
X63023809Y-97958119D01*
X63023809Y-97958119D02*
X63119047Y-98005738D01*
X63119047Y-98005738D02*
X63166666Y-98053357D01*
X63166666Y-98053357D02*
X63214285Y-98148595D01*
X63214285Y-98148595D02*
X63214285Y-98291452D01*
X63214285Y-98291452D02*
X63166666Y-98386690D01*
X63166666Y-98386690D02*
X63119047Y-98434309D01*
X63119047Y-98434309D02*
X63023809Y-98481928D01*
X63023809Y-98481928D02*
X62642857Y-98481928D01*
X63547619Y-97958119D02*
X64166666Y-97958119D01*
X64166666Y-97958119D02*
X63833333Y-98339071D01*
X63833333Y-98339071D02*
X63976190Y-98339071D01*
X63976190Y-98339071D02*
X64071428Y-98386690D01*
X64071428Y-98386690D02*
X64119047Y-98434309D01*
X64119047Y-98434309D02*
X64166666Y-98529547D01*
X64166666Y-98529547D02*
X64166666Y-98767642D01*
X64166666Y-98767642D02*
X64119047Y-98862880D01*
X64119047Y-98862880D02*
X64071428Y-98910500D01*
X64071428Y-98910500D02*
X63976190Y-98958119D01*
X63976190Y-98958119D02*
X63690476Y-98958119D01*
X63690476Y-98958119D02*
X63595238Y-98910500D01*
X63595238Y-98910500D02*
X63547619Y-98862880D01*
X91357142Y-63026119D02*
X91023809Y-62549928D01*
X90785714Y-63026119D02*
X90785714Y-62026119D01*
X90785714Y-62026119D02*
X91166666Y-62026119D01*
X91166666Y-62026119D02*
X91261904Y-62073738D01*
X91261904Y-62073738D02*
X91309523Y-62121357D01*
X91309523Y-62121357D02*
X91357142Y-62216595D01*
X91357142Y-62216595D02*
X91357142Y-62359452D01*
X91357142Y-62359452D02*
X91309523Y-62454690D01*
X91309523Y-62454690D02*
X91261904Y-62502309D01*
X91261904Y-62502309D02*
X91166666Y-62549928D01*
X91166666Y-62549928D02*
X90785714Y-62549928D01*
X92309523Y-63026119D02*
X91738095Y-63026119D01*
X92023809Y-63026119D02*
X92023809Y-62026119D01*
X92023809Y-62026119D02*
X91928571Y-62168976D01*
X91928571Y-62168976D02*
X91833333Y-62264214D01*
X91833333Y-62264214D02*
X91738095Y-62311833D01*
X92690476Y-62121357D02*
X92738095Y-62073738D01*
X92738095Y-62073738D02*
X92833333Y-62026119D01*
X92833333Y-62026119D02*
X93071428Y-62026119D01*
X93071428Y-62026119D02*
X93166666Y-62073738D01*
X93166666Y-62073738D02*
X93214285Y-62121357D01*
X93214285Y-62121357D02*
X93261904Y-62216595D01*
X93261904Y-62216595D02*
X93261904Y-62311833D01*
X93261904Y-62311833D02*
X93214285Y-62454690D01*
X93214285Y-62454690D02*
X92642857Y-63026119D01*
X92642857Y-63026119D02*
X93261904Y-63026119D01*
X60357142Y-64026119D02*
X60023809Y-63549928D01*
X59785714Y-64026119D02*
X59785714Y-63026119D01*
X59785714Y-63026119D02*
X60166666Y-63026119D01*
X60166666Y-63026119D02*
X60261904Y-63073738D01*
X60261904Y-63073738D02*
X60309523Y-63121357D01*
X60309523Y-63121357D02*
X60357142Y-63216595D01*
X60357142Y-63216595D02*
X60357142Y-63359452D01*
X60357142Y-63359452D02*
X60309523Y-63454690D01*
X60309523Y-63454690D02*
X60261904Y-63502309D01*
X60261904Y-63502309D02*
X60166666Y-63549928D01*
X60166666Y-63549928D02*
X59785714Y-63549928D01*
X60738095Y-63121357D02*
X60785714Y-63073738D01*
X60785714Y-63073738D02*
X60880952Y-63026119D01*
X60880952Y-63026119D02*
X61119047Y-63026119D01*
X61119047Y-63026119D02*
X61214285Y-63073738D01*
X61214285Y-63073738D02*
X61261904Y-63121357D01*
X61261904Y-63121357D02*
X61309523Y-63216595D01*
X61309523Y-63216595D02*
X61309523Y-63311833D01*
X61309523Y-63311833D02*
X61261904Y-63454690D01*
X61261904Y-63454690D02*
X60690476Y-64026119D01*
X60690476Y-64026119D02*
X61309523Y-64026119D01*
X61642857Y-63026119D02*
X62261904Y-63026119D01*
X62261904Y-63026119D02*
X61928571Y-63407071D01*
X61928571Y-63407071D02*
X62071428Y-63407071D01*
X62071428Y-63407071D02*
X62166666Y-63454690D01*
X62166666Y-63454690D02*
X62214285Y-63502309D01*
X62214285Y-63502309D02*
X62261904Y-63597547D01*
X62261904Y-63597547D02*
X62261904Y-63835642D01*
X62261904Y-63835642D02*
X62214285Y-63930880D01*
X62214285Y-63930880D02*
X62166666Y-63978500D01*
X62166666Y-63978500D02*
X62071428Y-64026119D01*
X62071428Y-64026119D02*
X61785714Y-64026119D01*
X61785714Y-64026119D02*
X61690476Y-63978500D01*
X61690476Y-63978500D02*
X61642857Y-63930880D01*
X86833333Y-59026119D02*
X86500000Y-58549928D01*
X86261905Y-59026119D02*
X86261905Y-58026119D01*
X86261905Y-58026119D02*
X86642857Y-58026119D01*
X86642857Y-58026119D02*
X86738095Y-58073738D01*
X86738095Y-58073738D02*
X86785714Y-58121357D01*
X86785714Y-58121357D02*
X86833333Y-58216595D01*
X86833333Y-58216595D02*
X86833333Y-58359452D01*
X86833333Y-58359452D02*
X86785714Y-58454690D01*
X86785714Y-58454690D02*
X86738095Y-58502309D01*
X86738095Y-58502309D02*
X86642857Y-58549928D01*
X86642857Y-58549928D02*
X86261905Y-58549928D01*
X87309524Y-59026119D02*
X87500000Y-59026119D01*
X87500000Y-59026119D02*
X87595238Y-58978500D01*
X87595238Y-58978500D02*
X87642857Y-58930880D01*
X87642857Y-58930880D02*
X87738095Y-58788023D01*
X87738095Y-58788023D02*
X87785714Y-58597547D01*
X87785714Y-58597547D02*
X87785714Y-58216595D01*
X87785714Y-58216595D02*
X87738095Y-58121357D01*
X87738095Y-58121357D02*
X87690476Y-58073738D01*
X87690476Y-58073738D02*
X87595238Y-58026119D01*
X87595238Y-58026119D02*
X87404762Y-58026119D01*
X87404762Y-58026119D02*
X87309524Y-58073738D01*
X87309524Y-58073738D02*
X87261905Y-58121357D01*
X87261905Y-58121357D02*
X87214286Y-58216595D01*
X87214286Y-58216595D02*
X87214286Y-58454690D01*
X87214286Y-58454690D02*
X87261905Y-58549928D01*
X87261905Y-58549928D02*
X87309524Y-58597547D01*
X87309524Y-58597547D02*
X87404762Y-58645166D01*
X87404762Y-58645166D02*
X87595238Y-58645166D01*
X87595238Y-58645166D02*
X87690476Y-58597547D01*
X87690476Y-58597547D02*
X87738095Y-58549928D01*
X87738095Y-58549928D02*
X87785714Y-58454690D01*
X51261905Y-92958119D02*
X51833333Y-92958119D01*
X51547619Y-93958119D02*
X51547619Y-92958119D01*
X52166667Y-93958119D02*
X52166667Y-92958119D01*
X52166667Y-92958119D02*
X52547619Y-92958119D01*
X52547619Y-92958119D02*
X52642857Y-93005738D01*
X52642857Y-93005738D02*
X52690476Y-93053357D01*
X52690476Y-93053357D02*
X52738095Y-93148595D01*
X52738095Y-93148595D02*
X52738095Y-93291452D01*
X52738095Y-93291452D02*
X52690476Y-93386690D01*
X52690476Y-93386690D02*
X52642857Y-93434309D01*
X52642857Y-93434309D02*
X52547619Y-93481928D01*
X52547619Y-93481928D02*
X52166667Y-93481928D01*
X53690476Y-93958119D02*
X53119048Y-93958119D01*
X53404762Y-93958119D02*
X53404762Y-92958119D01*
X53404762Y-92958119D02*
X53309524Y-93100976D01*
X53309524Y-93100976D02*
X53214286Y-93196214D01*
X53214286Y-93196214D02*
X53119048Y-93243833D01*
X54309524Y-92958119D02*
X54404762Y-92958119D01*
X54404762Y-92958119D02*
X54500000Y-93005738D01*
X54500000Y-93005738D02*
X54547619Y-93053357D01*
X54547619Y-93053357D02*
X54595238Y-93148595D01*
X54595238Y-93148595D02*
X54642857Y-93339071D01*
X54642857Y-93339071D02*
X54642857Y-93577166D01*
X54642857Y-93577166D02*
X54595238Y-93767642D01*
X54595238Y-93767642D02*
X54547619Y-93862880D01*
X54547619Y-93862880D02*
X54500000Y-93910500D01*
X54500000Y-93910500D02*
X54404762Y-93958119D01*
X54404762Y-93958119D02*
X54309524Y-93958119D01*
X54309524Y-93958119D02*
X54214286Y-93910500D01*
X54214286Y-93910500D02*
X54166667Y-93862880D01*
X54166667Y-93862880D02*
X54119048Y-93767642D01*
X54119048Y-93767642D02*
X54071429Y-93577166D01*
X54071429Y-93577166D02*
X54071429Y-93339071D01*
X54071429Y-93339071D02*
X54119048Y-93148595D01*
X54119048Y-93148595D02*
X54166667Y-93053357D01*
X54166667Y-93053357D02*
X54214286Y-93005738D01*
X54214286Y-93005738D02*
X54309524Y-92958119D01*
X79333333Y-25110880D02*
X79285714Y-25158500D01*
X79285714Y-25158500D02*
X79142857Y-25206119D01*
X79142857Y-25206119D02*
X79047619Y-25206119D01*
X79047619Y-25206119D02*
X78904762Y-25158500D01*
X78904762Y-25158500D02*
X78809524Y-25063261D01*
X78809524Y-25063261D02*
X78761905Y-24968023D01*
X78761905Y-24968023D02*
X78714286Y-24777547D01*
X78714286Y-24777547D02*
X78714286Y-24634690D01*
X78714286Y-24634690D02*
X78761905Y-24444214D01*
X78761905Y-24444214D02*
X78809524Y-24348976D01*
X78809524Y-24348976D02*
X78904762Y-24253738D01*
X78904762Y-24253738D02*
X79047619Y-24206119D01*
X79047619Y-24206119D02*
X79142857Y-24206119D01*
X79142857Y-24206119D02*
X79285714Y-24253738D01*
X79285714Y-24253738D02*
X79333333Y-24301357D01*
X80285714Y-25206119D02*
X79714286Y-25206119D01*
X80000000Y-25206119D02*
X80000000Y-24206119D01*
X80000000Y-24206119D02*
X79904762Y-24348976D01*
X79904762Y-24348976D02*
X79809524Y-24444214D01*
X79809524Y-24444214D02*
X79714286Y-24491833D01*
X56261905Y-44956119D02*
X56261905Y-43956119D01*
X56261905Y-43956119D02*
X56500000Y-43956119D01*
X56500000Y-43956119D02*
X56642857Y-44003738D01*
X56642857Y-44003738D02*
X56738095Y-44098976D01*
X56738095Y-44098976D02*
X56785714Y-44194214D01*
X56785714Y-44194214D02*
X56833333Y-44384690D01*
X56833333Y-44384690D02*
X56833333Y-44527547D01*
X56833333Y-44527547D02*
X56785714Y-44718023D01*
X56785714Y-44718023D02*
X56738095Y-44813261D01*
X56738095Y-44813261D02*
X56642857Y-44908500D01*
X56642857Y-44908500D02*
X56500000Y-44956119D01*
X56500000Y-44956119D02*
X56261905Y-44956119D01*
X57214286Y-44051357D02*
X57261905Y-44003738D01*
X57261905Y-44003738D02*
X57357143Y-43956119D01*
X57357143Y-43956119D02*
X57595238Y-43956119D01*
X57595238Y-43956119D02*
X57690476Y-44003738D01*
X57690476Y-44003738D02*
X57738095Y-44051357D01*
X57738095Y-44051357D02*
X57785714Y-44146595D01*
X57785714Y-44146595D02*
X57785714Y-44241833D01*
X57785714Y-44241833D02*
X57738095Y-44384690D01*
X57738095Y-44384690D02*
X57166667Y-44956119D01*
X57166667Y-44956119D02*
X57785714Y-44956119D01*
X86833333Y-42026119D02*
X86500000Y-41549928D01*
X86261905Y-42026119D02*
X86261905Y-41026119D01*
X86261905Y-41026119D02*
X86642857Y-41026119D01*
X86642857Y-41026119D02*
X86738095Y-41073738D01*
X86738095Y-41073738D02*
X86785714Y-41121357D01*
X86785714Y-41121357D02*
X86833333Y-41216595D01*
X86833333Y-41216595D02*
X86833333Y-41359452D01*
X86833333Y-41359452D02*
X86785714Y-41454690D01*
X86785714Y-41454690D02*
X86738095Y-41502309D01*
X86738095Y-41502309D02*
X86642857Y-41549928D01*
X86642857Y-41549928D02*
X86261905Y-41549928D01*
X87166667Y-41026119D02*
X87833333Y-41026119D01*
X87833333Y-41026119D02*
X87404762Y-42026119D01*
X44357142Y-66026119D02*
X44023809Y-65549928D01*
X43785714Y-66026119D02*
X43785714Y-65026119D01*
X43785714Y-65026119D02*
X44166666Y-65026119D01*
X44166666Y-65026119D02*
X44261904Y-65073738D01*
X44261904Y-65073738D02*
X44309523Y-65121357D01*
X44309523Y-65121357D02*
X44357142Y-65216595D01*
X44357142Y-65216595D02*
X44357142Y-65359452D01*
X44357142Y-65359452D02*
X44309523Y-65454690D01*
X44309523Y-65454690D02*
X44261904Y-65502309D01*
X44261904Y-65502309D02*
X44166666Y-65549928D01*
X44166666Y-65549928D02*
X43785714Y-65549928D01*
X44690476Y-65026119D02*
X45309523Y-65026119D01*
X45309523Y-65026119D02*
X44976190Y-65407071D01*
X44976190Y-65407071D02*
X45119047Y-65407071D01*
X45119047Y-65407071D02*
X45214285Y-65454690D01*
X45214285Y-65454690D02*
X45261904Y-65502309D01*
X45261904Y-65502309D02*
X45309523Y-65597547D01*
X45309523Y-65597547D02*
X45309523Y-65835642D01*
X45309523Y-65835642D02*
X45261904Y-65930880D01*
X45261904Y-65930880D02*
X45214285Y-65978500D01*
X45214285Y-65978500D02*
X45119047Y-66026119D01*
X45119047Y-66026119D02*
X44833333Y-66026119D01*
X44833333Y-66026119D02*
X44738095Y-65978500D01*
X44738095Y-65978500D02*
X44690476Y-65930880D01*
X46166666Y-65359452D02*
X46166666Y-66026119D01*
X45928571Y-64978500D02*
X45690476Y-65692785D01*
X45690476Y-65692785D02*
X46309523Y-65692785D01*
%TO.C,R21*%
D11*
X75745276Y-81477500D02*
X76254724Y-81477500D01*
X75745276Y-82522500D02*
X76254724Y-82522500D01*
%TO.C,C10*%
X79853733Y-75490000D02*
X80146267Y-75490000D01*
X79853733Y-76510000D02*
X80146267Y-76510000D01*
%TO.C,R19*%
X75745276Y-75477500D02*
X76254724Y-75477500D01*
X75745276Y-76522500D02*
X76254724Y-76522500D01*
%TO.C,TP12*%
X64700000Y-96000000D02*
G75*
G02*
X61300000Y-96000000I-1700000J0D01*
G01*
X61300000Y-96000000D02*
G75*
G02*
X64700000Y-96000000I1700000J0D01*
G01*
%TO.C,TP8*%
X89700000Y-101000000D02*
G75*
G02*
X86300000Y-101000000I-1700000J0D01*
G01*
X86300000Y-101000000D02*
G75*
G02*
X89700000Y-101000000I1700000J0D01*
G01*
%TO.C,J2*%
X20680001Y-42380001D02*
X30720000Y-42380001D01*
X20680001Y-57620001D02*
X20680001Y-42380001D01*
X23700000Y-57620001D02*
X23700000Y-42380001D01*
X28600000Y-57620001D02*
X28600000Y-42380001D01*
X30100000Y-57620001D02*
X30100000Y-42380001D01*
X30720000Y-42380001D02*
X30720000Y-54700000D01*
X30720000Y-55300000D02*
X30720000Y-57620001D01*
X30720000Y-57620001D02*
X20680001Y-57620001D01*
X30720000Y-55000000D02*
X31330001Y-54560000D01*
X31330001Y-55440000D01*
X30720000Y-55000000D01*
G36*
X31330001Y-55440000D02*
G01*
X30720000Y-55000000D01*
X31330001Y-54560000D01*
X31330001Y-55440000D01*
G37*
%TO.C,TP11*%
X59700000Y-96000000D02*
G75*
G02*
X56300000Y-96000000I-1700000J0D01*
G01*
X56300000Y-96000000D02*
G75*
G02*
X59700000Y-96000000I1700000J0D01*
G01*
%TO.C,C3*%
X65853733Y-46490000D02*
X66146267Y-46490000D01*
X65853733Y-47510000D02*
X66146267Y-47510000D01*
%TO.C,R11*%
X87745276Y-63477500D02*
X88254724Y-63477500D01*
X87745276Y-64522500D02*
X88254724Y-64522500D01*
%TO.C,C12*%
X79853733Y-81490000D02*
X80146267Y-81490000D01*
X79853733Y-82510001D02*
X80146267Y-82510001D01*
%TO.C,R5*%
X83745276Y-56477500D02*
X84254724Y-56477500D01*
X83745276Y-57522500D02*
X84254724Y-57522500D01*
%TO.C,R8*%
X82745276Y-59477500D02*
X83254724Y-59477500D01*
X82745276Y-60522500D02*
X83254724Y-60522500D01*
%TO.C,TP13*%
X69700000Y-96000000D02*
G75*
G02*
X66300000Y-96000000I-1700000J0D01*
G01*
X66300000Y-96000000D02*
G75*
G02*
X69700000Y-96000000I1700000J0D01*
G01*
%TO.C,TP4*%
X69700000Y-101000000D02*
G75*
G02*
X66300000Y-101000000I-1700000J0D01*
G01*
X66300000Y-101000000D02*
G75*
G02*
X69700000Y-101000000I1700000J0D01*
G01*
%TO.C,C11*%
X79853733Y-78489999D02*
X80146267Y-78489999D01*
X79853733Y-79510000D02*
X80146267Y-79510000D01*
%TO.C,C6*%
X66853733Y-53490000D02*
X67146267Y-53490000D01*
X66853733Y-54510000D02*
X67146267Y-54510000D01*
%TO.C,R33*%
X54745276Y-74477500D02*
X55254724Y-74477500D01*
X54745276Y-75522500D02*
X55254724Y-75522500D01*
%TO.C,R27*%
X86745276Y-74477500D02*
X87254724Y-74477500D01*
X86745276Y-75522500D02*
X87254724Y-75522500D01*
%TO.C,TP17*%
X89700000Y-96000000D02*
G75*
G02*
X86300000Y-96000000I-1700000J0D01*
G01*
X86300000Y-96000000D02*
G75*
G02*
X89700000Y-96000000I1700000J0D01*
G01*
%TO.C,C7*%
X66853733Y-57490000D02*
X67146267Y-57490000D01*
X66853733Y-58510000D02*
X67146267Y-58510000D01*
%TO.C,Q1*%
X54690000Y-36550000D02*
X54690000Y-36820000D01*
X54690000Y-43450000D02*
X54690000Y-43180000D01*
X61110000Y-36550000D02*
X54690000Y-36550000D01*
X61110000Y-43450000D02*
X54690000Y-43450000D01*
X52960000Y-36860001D02*
X52620000Y-36390000D01*
X53300000Y-36390000D01*
X52960000Y-36860001D01*
G36*
X52960000Y-36860001D02*
G01*
X52620000Y-36390000D01*
X53300000Y-36390000D01*
X52960000Y-36860001D01*
G37*
%TO.C,C8*%
X78853733Y-45489999D02*
X79146267Y-45489999D01*
X78853733Y-46510000D02*
X79146267Y-46510000D01*
%TO.C,J1*%
X20680000Y-28380000D02*
X30720000Y-28380000D01*
X20680000Y-38620000D02*
X20680000Y-28380000D01*
X23699999Y-38620000D02*
X23699999Y-28380000D01*
X28599999Y-38620000D02*
X28599999Y-28380000D01*
X30099999Y-38620000D02*
X30099999Y-28380000D01*
X30720000Y-28380000D02*
X30720000Y-35700000D01*
X30720000Y-36300000D02*
X30720000Y-38620000D01*
X30720000Y-38620000D02*
X20680000Y-38620000D01*
X30720000Y-36000000D02*
X31330000Y-35560000D01*
X31330000Y-36440000D01*
X30720000Y-36000000D01*
G36*
X31330000Y-36440000D02*
G01*
X30720000Y-36000000D01*
X31330000Y-35560000D01*
X31330000Y-36440000D01*
G37*
%TO.C,R36*%
X91745276Y-66477500D02*
X92254724Y-66477500D01*
X91745276Y-67522500D02*
X92254724Y-67522500D01*
%TO.C,C9*%
X77853733Y-59490000D02*
X78146267Y-59490000D01*
X77853733Y-60510000D02*
X78146267Y-60510000D01*
%TO.C,R22*%
X60745276Y-61477500D02*
X61254724Y-61477500D01*
X60745276Y-62522500D02*
X61254724Y-62522500D01*
%TO.C,TP16*%
X84700000Y-96000000D02*
G75*
G02*
X81300000Y-96000000I-1700000J0D01*
G01*
X81300000Y-96000000D02*
G75*
G02*
X84700000Y-96000000I1700000J0D01*
G01*
%TO.C,TP7*%
X84700000Y-101000000D02*
G75*
G02*
X81300000Y-101000000I-1700000J0D01*
G01*
X81300000Y-101000000D02*
G75*
G02*
X84700000Y-101000000I1700000J0D01*
G01*
%TO.C,J3*%
X33620000Y-98380000D02*
X33620000Y-97000000D01*
X35000000Y-98380000D02*
X33620000Y-98380000D01*
X36270000Y-95620001D02*
X49080000Y-95620001D01*
X36270000Y-98380000D02*
X36270000Y-95620001D01*
X36270000Y-98380000D02*
X49080000Y-98380000D01*
X49080000Y-98380000D02*
X49080000Y-95620001D01*
%TO.C,R10*%
X83745276Y-63477500D02*
X84254724Y-63477500D01*
X83745276Y-64522500D02*
X84254724Y-64522500D01*
%TO.C,Q5*%
X34690000Y-69550001D02*
X34690000Y-69820000D01*
X34690000Y-76450001D02*
X34690000Y-76180000D01*
X41110000Y-69550001D02*
X34690000Y-69550001D01*
X41110000Y-76450001D02*
X34690000Y-76450001D01*
X32960000Y-69860001D02*
X32620000Y-69390000D01*
X33300000Y-69390000D01*
X32960000Y-69860001D01*
G36*
X32960000Y-69860001D02*
G01*
X32620000Y-69390000D01*
X33300000Y-69390000D01*
X32960000Y-69860001D01*
G37*
%TO.C,TP5*%
X74700000Y-101000000D02*
G75*
G02*
X71300000Y-101000000I-1700000J0D01*
G01*
X71300000Y-101000000D02*
G75*
G02*
X74700000Y-101000000I1700000J0D01*
G01*
%TO.C,C2*%
X87020354Y-28125000D02*
X88020353Y-28125000D01*
X87520354Y-27625000D02*
X87520354Y-28625000D01*
X92500000Y-25920000D02*
X92500000Y-36080000D01*
X92540000Y-25920000D02*
X92540000Y-36080000D01*
X92580000Y-25921000D02*
X92580000Y-36079000D01*
X92619999Y-25921000D02*
X92619999Y-36079000D01*
X92660000Y-25923000D02*
X92660000Y-36077000D01*
X92700000Y-25924000D02*
X92700000Y-36076000D01*
X92740000Y-25926000D02*
X92740000Y-36073999D01*
X92779999Y-25928000D02*
X92779999Y-36072000D01*
X92820000Y-25930000D02*
X92820000Y-36070000D01*
X92859999Y-25933000D02*
X92859999Y-36067000D01*
X92900000Y-25936000D02*
X92900000Y-36064000D01*
X92939999Y-25939000D02*
X92939999Y-36061000D01*
X92980000Y-25943000D02*
X92980000Y-36057000D01*
X93019999Y-25946000D02*
X93019999Y-36054000D01*
X93060000Y-25951000D02*
X93060000Y-36049000D01*
X93100000Y-25955000D02*
X93100000Y-36045000D01*
X93140000Y-25960000D02*
X93140000Y-36040000D01*
X93180000Y-25965000D02*
X93180000Y-36035000D01*
X93220000Y-25971000D02*
X93220000Y-36029000D01*
X93260000Y-25977000D02*
X93260000Y-36023000D01*
X93299999Y-25983000D02*
X93299999Y-36017000D01*
X93340000Y-25989000D02*
X93340000Y-36011000D01*
X93380000Y-25996000D02*
X93380000Y-36003999D01*
X93420000Y-26003000D02*
X93420000Y-35997000D01*
X93459999Y-26011000D02*
X93459999Y-35989000D01*
X93500000Y-26019000D02*
X93500000Y-35981000D01*
X93540000Y-26027000D02*
X93540000Y-35973000D01*
X93580000Y-26035000D02*
X93580000Y-35965000D01*
X93619999Y-26044000D02*
X93619999Y-35956000D01*
X93660000Y-26053000D02*
X93660000Y-35947000D01*
X93700000Y-26062999D02*
X93700000Y-35937000D01*
X93740000Y-26072000D02*
X93740000Y-35928000D01*
X93779999Y-26083000D02*
X93779999Y-29760000D01*
X93779999Y-32240000D02*
X93779999Y-35917000D01*
X93820000Y-26093000D02*
X93820000Y-29760000D01*
X93820000Y-32240000D02*
X93820000Y-35907000D01*
X93859999Y-26104000D02*
X93859999Y-29760000D01*
X93859999Y-32240000D02*
X93859999Y-35896000D01*
X93900000Y-26115000D02*
X93900000Y-29760000D01*
X93900000Y-32240000D02*
X93900000Y-35884999D01*
X93939999Y-26126999D02*
X93939999Y-29760000D01*
X93939999Y-32240000D02*
X93939999Y-35873000D01*
X93980000Y-26139000D02*
X93980000Y-29760000D01*
X93980000Y-32240000D02*
X93980000Y-35861000D01*
X94019999Y-26151000D02*
X94019999Y-29760000D01*
X94019999Y-32240000D02*
X94019999Y-35849000D01*
X94060000Y-26163000D02*
X94060000Y-29760000D01*
X94060000Y-32240000D02*
X94060000Y-35837000D01*
X94100000Y-26176000D02*
X94100000Y-29760000D01*
X94100000Y-32240000D02*
X94100000Y-35823999D01*
X94139999Y-26190000D02*
X94139999Y-29760000D01*
X94139999Y-32240000D02*
X94139999Y-35810000D01*
X94180000Y-26203000D02*
X94180000Y-29760000D01*
X94180000Y-32240000D02*
X94180000Y-35797000D01*
X94220000Y-26218000D02*
X94220000Y-29760000D01*
X94220000Y-32240000D02*
X94220000Y-35782000D01*
X94260000Y-26232000D02*
X94260000Y-29760000D01*
X94260000Y-32240000D02*
X94260000Y-35768000D01*
X94299999Y-26247000D02*
X94299999Y-29760000D01*
X94299999Y-32240000D02*
X94299999Y-35753000D01*
X94340000Y-26262000D02*
X94340000Y-29760000D01*
X94340000Y-32240000D02*
X94340000Y-35738000D01*
X94380000Y-26277999D02*
X94380000Y-29760000D01*
X94380000Y-32240000D02*
X94380000Y-35722000D01*
X94420000Y-26294000D02*
X94420000Y-29760000D01*
X94420000Y-32240000D02*
X94420000Y-35706000D01*
X94459999Y-26309999D02*
X94459999Y-29760000D01*
X94459999Y-32240000D02*
X94459999Y-35690000D01*
X94500000Y-26326999D02*
X94500000Y-29760000D01*
X94500000Y-32240000D02*
X94500000Y-35673000D01*
X94540000Y-26344000D02*
X94540000Y-29760000D01*
X94540000Y-32240000D02*
X94540000Y-35656000D01*
X94580000Y-26362000D02*
X94580000Y-29760000D01*
X94580000Y-32240000D02*
X94580000Y-35637999D01*
X94619999Y-26379999D02*
X94619999Y-29760000D01*
X94619999Y-32240000D02*
X94619999Y-35620000D01*
X94660000Y-26398000D02*
X94660000Y-29760000D01*
X94660000Y-32240000D02*
X94660000Y-35602000D01*
X94700000Y-26417000D02*
X94700000Y-29760000D01*
X94700000Y-32240000D02*
X94700000Y-35583000D01*
X94740000Y-26436000D02*
X94740000Y-29760000D01*
X94740000Y-32240000D02*
X94740000Y-35564000D01*
X94779999Y-26456000D02*
X94779999Y-29760000D01*
X94779999Y-32240000D02*
X94779999Y-35544000D01*
X94820000Y-26476000D02*
X94820000Y-29760000D01*
X94820000Y-32240000D02*
X94820000Y-35524000D01*
X94860000Y-26496000D02*
X94860000Y-29760000D01*
X94860000Y-32240000D02*
X94860000Y-35503999D01*
X94900000Y-26517000D02*
X94900000Y-29760000D01*
X94900000Y-32240000D02*
X94900000Y-35483000D01*
X94939999Y-26539000D02*
X94939999Y-29760000D01*
X94939999Y-32240000D02*
X94939999Y-35461000D01*
X94980000Y-26561000D02*
X94980000Y-29760000D01*
X94980000Y-32240000D02*
X94980000Y-35439000D01*
X95019999Y-26582999D02*
X95019999Y-29760000D01*
X95019999Y-32240000D02*
X95019999Y-35417000D01*
X95060000Y-26606000D02*
X95060000Y-29760000D01*
X95060000Y-32240000D02*
X95060000Y-35394000D01*
X95100000Y-26628999D02*
X95100000Y-29760000D01*
X95100000Y-32240000D02*
X95100000Y-35371000D01*
X95139999Y-26652999D02*
X95139999Y-29760000D01*
X95139999Y-32240000D02*
X95139999Y-35347000D01*
X95180000Y-26677000D02*
X95180000Y-29760000D01*
X95180000Y-32240000D02*
X95180000Y-35323000D01*
X95220000Y-26701999D02*
X95220000Y-29760000D01*
X95220000Y-32240000D02*
X95220000Y-35298000D01*
X95260000Y-26728000D02*
X95260000Y-29760000D01*
X95260000Y-32240000D02*
X95260000Y-35272000D01*
X95299999Y-26753000D02*
X95299999Y-29760000D01*
X95299999Y-32240000D02*
X95299999Y-35247000D01*
X95340000Y-26780000D02*
X95340000Y-29760000D01*
X95340000Y-32240000D02*
X95340000Y-35220000D01*
X95380000Y-26807000D02*
X95380000Y-29760000D01*
X95380000Y-32240000D02*
X95380000Y-35192999D01*
X95420000Y-26834000D02*
X95420000Y-29760000D01*
X95420000Y-32240000D02*
X95420000Y-35166000D01*
X95459999Y-26862000D02*
X95459999Y-29760000D01*
X95459999Y-32240000D02*
X95459999Y-35137999D01*
X95500000Y-26890999D02*
X95500000Y-29760000D01*
X95500000Y-32240000D02*
X95500000Y-35109000D01*
X95540000Y-26920000D02*
X95540000Y-29760000D01*
X95540000Y-32240000D02*
X95540000Y-35080000D01*
X95580000Y-26950000D02*
X95580000Y-29760000D01*
X95580000Y-32240000D02*
X95580000Y-35050000D01*
X95619999Y-26980000D02*
X95619999Y-29760000D01*
X95619999Y-32240000D02*
X95619999Y-35020000D01*
X95659999Y-27012000D02*
X95659999Y-29760000D01*
X95659999Y-32240000D02*
X95659999Y-34988000D01*
X95700000Y-27043000D02*
X95700000Y-29760000D01*
X95700000Y-32240000D02*
X95700000Y-34957000D01*
X95740000Y-27076000D02*
X95740000Y-29760000D01*
X95740000Y-32240000D02*
X95740000Y-34924000D01*
X95779999Y-27109000D02*
X95779999Y-29760000D01*
X95779999Y-32240000D02*
X95779999Y-34891000D01*
X95820000Y-27142000D02*
X95820000Y-29760000D01*
X95820000Y-32240000D02*
X95820000Y-34858000D01*
X95860000Y-27177000D02*
X95860000Y-29760000D01*
X95860000Y-32240000D02*
X95860000Y-34823000D01*
X95900000Y-27212000D02*
X95900000Y-29760000D01*
X95900000Y-32240000D02*
X95900000Y-34788000D01*
X95939999Y-27248000D02*
X95939999Y-29760000D01*
X95939999Y-32240000D02*
X95939999Y-34752000D01*
X95979999Y-27284000D02*
X95979999Y-29760000D01*
X95979999Y-32240000D02*
X95979999Y-34716000D01*
X96019999Y-27322000D02*
X96019999Y-29760000D01*
X96019999Y-32240000D02*
X96019999Y-34678000D01*
X96060000Y-27360000D02*
X96060000Y-29760000D01*
X96060000Y-32240000D02*
X96060000Y-34640000D01*
X96100000Y-27399000D02*
X96100000Y-29760000D01*
X96100000Y-32240000D02*
X96100000Y-34601000D01*
X96139999Y-27439000D02*
X96139999Y-29760000D01*
X96139999Y-32240000D02*
X96139999Y-34561000D01*
X96180000Y-27480000D02*
X96180000Y-29760000D01*
X96180000Y-32240000D02*
X96180000Y-34520000D01*
X96220000Y-27522000D02*
X96220000Y-29760000D01*
X96220000Y-32240000D02*
X96220000Y-34478000D01*
X96260000Y-27565000D02*
X96260000Y-34435000D01*
X96299999Y-27609000D02*
X96299999Y-34391000D01*
X96339999Y-27653000D02*
X96339999Y-34347000D01*
X96380000Y-27698999D02*
X96380000Y-34301000D01*
X96420000Y-27746000D02*
X96420000Y-34254000D01*
X96460000Y-27795000D02*
X96460000Y-34205000D01*
X96500000Y-27844000D02*
X96500000Y-34156000D01*
X96540000Y-27895000D02*
X96540000Y-34105000D01*
X96580000Y-27947000D02*
X96580000Y-34053000D01*
X96620000Y-28000000D02*
X96620000Y-34000000D01*
X96659999Y-28055000D02*
X96659999Y-33945000D01*
X96700000Y-28112000D02*
X96700000Y-33887999D01*
X96740000Y-28170000D02*
X96740000Y-33830000D01*
X96780000Y-28230000D02*
X96780000Y-33770000D01*
X96820000Y-28292000D02*
X96820000Y-33708000D01*
X96860000Y-28356000D02*
X96860000Y-33644000D01*
X96900000Y-28422000D02*
X96900000Y-33578000D01*
X96940000Y-28490000D02*
X96940000Y-33509999D01*
X96979999Y-28561000D02*
X96979999Y-33439000D01*
X97019999Y-28634999D02*
X97019999Y-33365000D01*
X97060000Y-28712000D02*
X97060000Y-33288000D01*
X97100000Y-28792000D02*
X97100000Y-33208000D01*
X97140000Y-28876000D02*
X97140000Y-33124000D01*
X97180000Y-28963000D02*
X97180000Y-33037000D01*
X97220000Y-29056000D02*
X97220000Y-32944000D01*
X97260000Y-29154000D02*
X97260000Y-32846000D01*
X97300000Y-29258000D02*
X97300000Y-32742000D01*
X97339999Y-29370000D02*
X97339999Y-32630000D01*
X97380000Y-29491000D02*
X97380000Y-32509000D01*
X97420000Y-29623000D02*
X97420000Y-32377000D01*
X97460000Y-29770000D02*
X97460000Y-32230000D01*
X97500000Y-29938000D02*
X97500000Y-32062000D01*
X97540000Y-30138000D02*
X97540000Y-31862000D01*
X97580000Y-30401000D02*
X97580000Y-31599000D01*
X97620000Y-31000000D02*
G75*
G02*
X87380000Y-31000000I-5120000J0D01*
G01*
X87380000Y-31000000D02*
G75*
G02*
X97620000Y-31000000I5120000J0D01*
G01*
%TO.C,D3*%
X38640000Y-80000000D02*
X38640000Y-82000000D01*
X38640000Y-80000000D02*
X42650000Y-80000000D01*
X38640000Y-82000000D02*
X42650000Y-82000000D01*
%TO.C,R13*%
X83745276Y-66477500D02*
X84254724Y-66477500D01*
X83745276Y-67522500D02*
X84254724Y-67522500D01*
%TO.C,J4*%
X20680001Y-65380000D02*
X30720000Y-65380000D01*
X20680001Y-75620000D02*
X20680001Y-65380000D01*
X23700000Y-75620000D02*
X23700000Y-65380000D01*
X28600000Y-75620000D02*
X28600000Y-65380000D01*
X30100000Y-75620000D02*
X30100000Y-65380000D01*
X30720000Y-65380000D02*
X30720000Y-72700000D01*
X30720000Y-73300000D02*
X30720000Y-75620000D01*
X30720000Y-75620000D02*
X20680001Y-75620000D01*
X30720000Y-73000000D02*
X31330001Y-72560000D01*
X31330001Y-73440000D01*
X30720000Y-73000000D01*
G36*
X31330001Y-73440000D02*
G01*
X30720000Y-73000000D01*
X31330001Y-72560000D01*
X31330001Y-73440000D01*
G37*
%TO.C,R30*%
X52745276Y-79477500D02*
X53254724Y-79477500D01*
X52745276Y-80522500D02*
X53254724Y-80522500D01*
%TO.C,R3*%
X83745276Y-50477500D02*
X84254724Y-50477500D01*
X83745276Y-51522500D02*
X84254724Y-51522500D01*
%TO.C,R15*%
X51745276Y-90477500D02*
X52254724Y-90477500D01*
X51745276Y-91522500D02*
X52254724Y-91522500D01*
%TO.C,D1*%
X64640000Y-39000000D02*
X64640000Y-41000000D01*
X64640000Y-39000000D02*
X68650000Y-39000000D01*
X64640000Y-41000000D02*
X68650000Y-41000000D01*
%TO.C,R31*%
X54745276Y-68477500D02*
X55254724Y-68477500D01*
X54745276Y-69522500D02*
X55254724Y-69522500D01*
%TO.C,C13*%
X64853733Y-64490000D02*
X65146267Y-64490000D01*
X64853733Y-65510000D02*
X65146267Y-65510000D01*
%TO.C,TP15*%
X79700000Y-96000000D02*
G75*
G02*
X76300000Y-96000000I-1700000J0D01*
G01*
X76300000Y-96000000D02*
G75*
G02*
X79700000Y-96000000I1700000J0D01*
G01*
%TO.C,U1*%
X68900001Y-50900000D02*
X75100000Y-50900000D01*
X75100000Y-59100000D01*
X68900001Y-59100000D01*
X68900001Y-50900000D01*
D12*
X69450000Y-50500000D02*
G75*
G02*
X69250000Y-50500000I-100000J0D01*
G01*
X69250000Y-50500000D02*
G75*
G02*
X69450000Y-50500000I100000J0D01*
G01*
%TO.C,C4*%
D11*
X65853733Y-48490000D02*
X66146267Y-48490000D01*
X65853733Y-49509999D02*
X66146267Y-49509999D01*
%TO.C,TP9*%
X94700000Y-101000000D02*
G75*
G02*
X91300000Y-101000000I-1700000J0D01*
G01*
X91300000Y-101000000D02*
G75*
G02*
X94700000Y-101000000I1700000J0D01*
G01*
%TO.C,R18*%
X63745276Y-90477500D02*
X64254724Y-90477500D01*
X63745276Y-91522500D02*
X64254724Y-91522500D01*
%TO.C,R28*%
X91745276Y-83477500D02*
X92254724Y-83477500D01*
X91745276Y-84522500D02*
X92254724Y-84522500D01*
%TO.C,R25*%
X98745276Y-95477500D02*
X99254724Y-95477500D01*
X98745276Y-96522500D02*
X99254724Y-96522500D01*
%TO.C,R29*%
X95745276Y-83477500D02*
X96254724Y-83477500D01*
X95745276Y-84522500D02*
X96254724Y-84522500D01*
%TO.C,Q2*%
X103240000Y-94440000D02*
X104759999Y-94440000D01*
X103240000Y-94490000D02*
X103240000Y-94440000D01*
X103240000Y-96390000D02*
X103240000Y-95610000D01*
X103240000Y-97560000D02*
X103240000Y-97510000D01*
X104759999Y-94440000D02*
X104759999Y-95440000D01*
X104759999Y-96560000D02*
X104759999Y-97560000D01*
X104759999Y-97560000D02*
X103240000Y-97560000D01*
X102700000Y-95620000D02*
X102939999Y-95950000D01*
X102460000Y-95950000D01*
X102700000Y-95620000D01*
G36*
X102939999Y-95950000D02*
G01*
X102460000Y-95950000D01*
X102700000Y-95620000D01*
X102939999Y-95950000D01*
G37*
%TO.C,TP6*%
X79700000Y-101000000D02*
G75*
G02*
X76300000Y-101000000I-1700000J0D01*
G01*
X76300000Y-101000000D02*
G75*
G02*
X79700000Y-101000000I1700000J0D01*
G01*
%TO.C,R24*%
X98745276Y-91477500D02*
X99254724Y-91477500D01*
X98745276Y-92522500D02*
X99254724Y-92522500D01*
%TO.C,Q3*%
X90240000Y-76440000D02*
X91759999Y-76440000D01*
X90240000Y-76490000D02*
X90240000Y-76440000D01*
X90240000Y-78390000D02*
X90240000Y-77610000D01*
X90240000Y-79560000D02*
X90240000Y-79510000D01*
X91759999Y-76440000D02*
X91759999Y-77440000D01*
X91759999Y-78560000D02*
X91759999Y-79560000D01*
X91759999Y-79560000D02*
X90240000Y-79560000D01*
X89700000Y-77620000D02*
X89939999Y-77950000D01*
X89460000Y-77950000D01*
X89700000Y-77620000D01*
G36*
X89939999Y-77950000D02*
G01*
X89460000Y-77950000D01*
X89700000Y-77620000D01*
X89939999Y-77950000D01*
G37*
%TO.C,R6*%
X82745276Y-42477500D02*
X83254724Y-42477500D01*
X82745276Y-43522500D02*
X83254724Y-43522500D01*
%TO.C,TP2*%
X59700000Y-101000000D02*
G75*
G02*
X56300000Y-101000000I-1700000J0D01*
G01*
X56300000Y-101000000D02*
G75*
G02*
X59700000Y-101000000I1700000J0D01*
G01*
%TO.C,C5*%
X71738748Y-44265000D02*
X72261252Y-44265000D01*
X71738748Y-45735000D02*
X72261252Y-45735000D01*
%TO.C,R14*%
X87745276Y-66477500D02*
X88254724Y-66477500D01*
X87745276Y-67522500D02*
X88254724Y-67522500D01*
%TO.C,U4*%
X47240000Y-80440000D02*
X48759999Y-80440000D01*
X47240000Y-80490000D02*
X47240000Y-80440000D01*
X47240000Y-82390000D02*
X47240000Y-81610000D01*
X47240000Y-83560000D02*
X47240000Y-83510000D01*
X48759999Y-80440000D02*
X48759999Y-81440000D01*
X48759999Y-82560000D02*
X48759999Y-83560000D01*
X48759999Y-83560000D02*
X47240000Y-83560000D01*
X46700000Y-81620000D02*
X46939999Y-81950000D01*
X46460000Y-81950000D01*
X46700000Y-81620000D01*
G36*
X46939999Y-81950000D02*
G01*
X46460000Y-81950000D01*
X46700000Y-81620000D01*
X46939999Y-81950000D01*
G37*
%TO.C,R17*%
X59745276Y-90477500D02*
X60254724Y-90477500D01*
X59745276Y-91522500D02*
X60254724Y-91522500D01*
%TO.C,TP14*%
X74700000Y-96000000D02*
G75*
G02*
X71300000Y-96000000I-1700000J0D01*
G01*
X71300000Y-96000000D02*
G75*
G02*
X74700000Y-96000000I1700000J0D01*
G01*
%TO.C,R2*%
X67745276Y-42477501D02*
X68254724Y-42477501D01*
X67745276Y-43522500D02*
X68254724Y-43522500D01*
%TO.C,U2*%
X100545000Y-42925000D02*
X125454999Y-42925000D01*
X125454999Y-83075000D01*
X100545000Y-83075000D01*
X100545000Y-42925000D01*
D12*
X101670000Y-42525000D02*
G75*
G02*
X101470000Y-42525000I-100000J0D01*
G01*
X101470000Y-42525000D02*
G75*
G02*
X101670000Y-42525000I100000J0D01*
G01*
%TO.C,R26*%
D11*
X98745276Y-99477500D02*
X99254724Y-99477500D01*
X98745276Y-100522500D02*
X99254724Y-100522500D01*
%TO.C,R16*%
X55745276Y-90477500D02*
X56254724Y-90477500D01*
X55745276Y-91522500D02*
X56254724Y-91522500D01*
%TO.C,Q4*%
X94240000Y-76440000D02*
X95759999Y-76440000D01*
X94240000Y-76490000D02*
X94240000Y-76440000D01*
X94240000Y-78390000D02*
X94240000Y-77610000D01*
X94240000Y-79560000D02*
X94240000Y-79510000D01*
X95759999Y-76440000D02*
X95759999Y-77440000D01*
X95759999Y-78560000D02*
X95759999Y-79560000D01*
X95759999Y-79560000D02*
X94240000Y-79560000D01*
X93700000Y-77620000D02*
X93939999Y-77950000D01*
X93460000Y-77950000D01*
X93700000Y-77620000D01*
G36*
X93939999Y-77950000D02*
G01*
X93460000Y-77950000D01*
X93700000Y-77620000D01*
X93939999Y-77950000D01*
G37*
%TO.C,R1*%
X49745276Y-44477501D02*
X50254724Y-44477501D01*
X49745276Y-45522500D02*
X50254724Y-45522500D01*
%TO.C,R4*%
X83745276Y-53477500D02*
X84254724Y-53477500D01*
X83745276Y-54522500D02*
X84254724Y-54522500D01*
%TO.C,F1*%
X41890000Y-23090000D02*
X64610000Y-23090000D01*
X41890000Y-26250000D02*
X41890000Y-23090000D01*
X41890000Y-32910000D02*
X41890000Y-29750000D01*
X41890000Y-32910000D02*
X64610000Y-32910000D01*
X64610000Y-26250000D02*
X64610000Y-23090000D01*
X64610000Y-32910000D02*
X64610000Y-29750000D01*
%TO.C,TP18*%
X94700000Y-96000000D02*
G75*
G02*
X91300000Y-96000000I-1700000J0D01*
G01*
X91300000Y-96000000D02*
G75*
G02*
X94700000Y-96000000I1700000J0D01*
G01*
%TO.C,R20*%
X75745276Y-78477500D02*
X76254724Y-78477500D01*
X75745276Y-79522500D02*
X76254724Y-79522500D01*
%TO.C,SW1*%
X112350000Y-96600000D02*
X115650000Y-96600000D01*
X112350000Y-96900000D02*
X112350000Y-96600000D01*
X112350000Y-99100000D02*
X112350000Y-99400000D01*
X112350000Y-99400000D02*
X115650000Y-99400000D01*
X115650000Y-96600000D02*
X115650000Y-96900000D01*
X115650000Y-99400000D02*
X115650000Y-99100000D01*
%TO.C,TP1*%
X54700000Y-101000000D02*
G75*
G02*
X51300000Y-101000000I-1700000J0D01*
G01*
X51300000Y-101000000D02*
G75*
G02*
X54700000Y-101000000I1700000J0D01*
G01*
%TO.C,R32*%
X54745276Y-71477500D02*
X55254724Y-71477500D01*
X54745276Y-72522500D02*
X55254724Y-72522500D01*
%TO.C,U3*%
X45939999Y-70440000D02*
X50060000Y-70440000D01*
X45939999Y-70535000D02*
X45939999Y-70440000D01*
X45939999Y-75560000D02*
X45939999Y-75465000D01*
X50060000Y-70440000D02*
X50060000Y-70535000D01*
X50060000Y-75465000D02*
X50060000Y-75560000D01*
X50060000Y-75560000D02*
X45939999Y-75560000D01*
X45400000Y-70530000D02*
X45159999Y-70200000D01*
X45640000Y-70200000D01*
X45400000Y-70530000D01*
G36*
X45400000Y-70530000D02*
G01*
X45159999Y-70200000D01*
X45640000Y-70200000D01*
X45400000Y-70530000D01*
G37*
%TO.C,TP3*%
X64700000Y-101000000D02*
G75*
G02*
X61300000Y-101000000I-1700000J0D01*
G01*
X61300000Y-101000000D02*
G75*
G02*
X64700000Y-101000000I1700000J0D01*
G01*
%TO.C,R12*%
X91745276Y-63477500D02*
X92254724Y-63477500D01*
X91745276Y-64522500D02*
X92254724Y-64522500D01*
%TO.C,R23*%
X60745276Y-64477500D02*
X61254724Y-64477500D01*
X60745276Y-65522500D02*
X61254724Y-65522500D01*
%TO.C,R9*%
X86745276Y-59477500D02*
X87254724Y-59477500D01*
X86745276Y-60522500D02*
X87254724Y-60522500D01*
%TO.C,TP10*%
X54700000Y-96000000D02*
G75*
G02*
X51300000Y-96000000I-1700000J0D01*
G01*
X51300000Y-96000000D02*
G75*
G02*
X54700000Y-96000000I1700000J0D01*
G01*
%TO.C,C1*%
X74020354Y-28125000D02*
X75020353Y-28125000D01*
X74520354Y-27625000D02*
X74520354Y-28625000D01*
X79500000Y-25919999D02*
X79500000Y-36080000D01*
X79540000Y-25919999D02*
X79540000Y-36080000D01*
X79580000Y-25921000D02*
X79580000Y-36079000D01*
X79619999Y-25921000D02*
X79619999Y-36079000D01*
X79660000Y-25923000D02*
X79660000Y-36077000D01*
X79700000Y-25924000D02*
X79700000Y-36076000D01*
X79740000Y-25926000D02*
X79740000Y-36074000D01*
X79779999Y-25927999D02*
X79779999Y-36072000D01*
X79820000Y-25929999D02*
X79820000Y-36070000D01*
X79859999Y-25932999D02*
X79859999Y-36067000D01*
X79900000Y-25935999D02*
X79900000Y-36064000D01*
X79939999Y-25939000D02*
X79939999Y-36061000D01*
X79980000Y-25942999D02*
X79980000Y-36057000D01*
X80019999Y-25945999D02*
X80019999Y-36054000D01*
X80060000Y-25950999D02*
X80060000Y-36049000D01*
X80100000Y-25955000D02*
X80100000Y-36045000D01*
X80140000Y-25959999D02*
X80140000Y-36040000D01*
X80180000Y-25964999D02*
X80180000Y-36035000D01*
X80220000Y-25971000D02*
X80220000Y-36029000D01*
X80260000Y-25977000D02*
X80260000Y-36023000D01*
X80299999Y-25982999D02*
X80299999Y-36017000D01*
X80340000Y-25988999D02*
X80340000Y-36011000D01*
X80380000Y-25996000D02*
X80380000Y-36004000D01*
X80420000Y-26003000D02*
X80420000Y-35997000D01*
X80459999Y-26011000D02*
X80459999Y-35989000D01*
X80500000Y-26019000D02*
X80500000Y-35981000D01*
X80540000Y-26027000D02*
X80540000Y-35972999D01*
X80580000Y-26035000D02*
X80580000Y-35965000D01*
X80619999Y-26043999D02*
X80619999Y-35956000D01*
X80660000Y-26052999D02*
X80660000Y-35947000D01*
X80700000Y-26062999D02*
X80700000Y-35937000D01*
X80740000Y-26072000D02*
X80740000Y-35928000D01*
X80779999Y-26083000D02*
X80779999Y-29760000D01*
X80779999Y-32240000D02*
X80779999Y-35917000D01*
X80820000Y-26093000D02*
X80820000Y-29760000D01*
X80820000Y-32240000D02*
X80820000Y-35907000D01*
X80859999Y-26104000D02*
X80859999Y-29760000D01*
X80859999Y-32240000D02*
X80859999Y-35896000D01*
X80900000Y-26115000D02*
X80900000Y-29760000D01*
X80900000Y-32240000D02*
X80900000Y-35885000D01*
X80939999Y-26126999D02*
X80939999Y-29760000D01*
X80939999Y-32240000D02*
X80939999Y-35873000D01*
X80980000Y-26139000D02*
X80980000Y-29760000D01*
X80980000Y-32240000D02*
X80980000Y-35861000D01*
X81019999Y-26150999D02*
X81019999Y-29760000D01*
X81019999Y-32240000D02*
X81019999Y-35849000D01*
X81060000Y-26163000D02*
X81060000Y-29760000D01*
X81060000Y-32240000D02*
X81060000Y-35837000D01*
X81100000Y-26176000D02*
X81100000Y-29760000D01*
X81100000Y-32240000D02*
X81100000Y-35824000D01*
X81139999Y-26190000D02*
X81139999Y-29760000D01*
X81139999Y-32240000D02*
X81139999Y-35809999D01*
X81180000Y-26203000D02*
X81180000Y-29760000D01*
X81180000Y-32240000D02*
X81180000Y-35797000D01*
X81220000Y-26218000D02*
X81220000Y-29760000D01*
X81220000Y-32240000D02*
X81220000Y-35782000D01*
X81260000Y-26232000D02*
X81260000Y-29760000D01*
X81260000Y-32240000D02*
X81260000Y-35768000D01*
X81299999Y-26246999D02*
X81299999Y-29760000D01*
X81299999Y-32240000D02*
X81299999Y-35753000D01*
X81340000Y-26261999D02*
X81340000Y-29760000D01*
X81340000Y-32240000D02*
X81340000Y-35738000D01*
X81380000Y-26277999D02*
X81380000Y-29760000D01*
X81380000Y-32240000D02*
X81380000Y-35722000D01*
X81420000Y-26293999D02*
X81420000Y-29760000D01*
X81420000Y-32240000D02*
X81420000Y-35706000D01*
X81459999Y-26309999D02*
X81459999Y-29760000D01*
X81459999Y-32240000D02*
X81459999Y-35690000D01*
X81500000Y-26327000D02*
X81500000Y-29760000D01*
X81500000Y-32240000D02*
X81500000Y-35673000D01*
X81540000Y-26344000D02*
X81540000Y-29760000D01*
X81540000Y-32240000D02*
X81540000Y-35655999D01*
X81580000Y-26362000D02*
X81580000Y-29760000D01*
X81580000Y-32240000D02*
X81580000Y-35638000D01*
X81619999Y-26379999D02*
X81619999Y-29760000D01*
X81619999Y-32240000D02*
X81619999Y-35620000D01*
X81660000Y-26397999D02*
X81660000Y-29760000D01*
X81660000Y-32240000D02*
X81660000Y-35602000D01*
X81700000Y-26416999D02*
X81700000Y-29760000D01*
X81700000Y-32240000D02*
X81700000Y-35583000D01*
X81740000Y-26436000D02*
X81740000Y-29760000D01*
X81740000Y-32240000D02*
X81740000Y-35564000D01*
X81779999Y-26456000D02*
X81779999Y-29760000D01*
X81779999Y-32240000D02*
X81779999Y-35544000D01*
X81820000Y-26476000D02*
X81820000Y-29760000D01*
X81820000Y-32240000D02*
X81820000Y-35524000D01*
X81860000Y-26496000D02*
X81860000Y-29760000D01*
X81860000Y-32240000D02*
X81860000Y-35504000D01*
X81900000Y-26517000D02*
X81900000Y-29760000D01*
X81900000Y-32240000D02*
X81900000Y-35483000D01*
X81939999Y-26538999D02*
X81939999Y-29760000D01*
X81939999Y-32240000D02*
X81939999Y-35461000D01*
X81980000Y-26561000D02*
X81980000Y-29760000D01*
X81980000Y-32240000D02*
X81980000Y-35439000D01*
X82019999Y-26583000D02*
X82019999Y-29760000D01*
X82019999Y-32240000D02*
X82019999Y-35417000D01*
X82060000Y-26605999D02*
X82060000Y-29760000D01*
X82060000Y-32240000D02*
X82060000Y-35394000D01*
X82100000Y-26628999D02*
X82100000Y-29760000D01*
X82100000Y-32240000D02*
X82100000Y-35371000D01*
X82139999Y-26652999D02*
X82139999Y-29760000D01*
X82139999Y-32240000D02*
X82139999Y-35347000D01*
X82180000Y-26676999D02*
X82180000Y-29760000D01*
X82180000Y-32240000D02*
X82180000Y-35323000D01*
X82220000Y-26702000D02*
X82220000Y-29760000D01*
X82220000Y-32240000D02*
X82220000Y-35298000D01*
X82260000Y-26727999D02*
X82260000Y-29760000D01*
X82260000Y-32240000D02*
X82260000Y-35272000D01*
X82299999Y-26753000D02*
X82299999Y-29760000D01*
X82299999Y-32240000D02*
X82299999Y-35247000D01*
X82340000Y-26780000D02*
X82340000Y-29760000D01*
X82340000Y-32240000D02*
X82340000Y-35219999D01*
X82380000Y-26807000D02*
X82380000Y-29760000D01*
X82380000Y-32240000D02*
X82380000Y-35193000D01*
X82420000Y-26833999D02*
X82420000Y-29760000D01*
X82420000Y-32240000D02*
X82420000Y-35166000D01*
X82459999Y-26862000D02*
X82459999Y-29760000D01*
X82459999Y-32240000D02*
X82459999Y-35138000D01*
X82500000Y-26891000D02*
X82500000Y-29760000D01*
X82500000Y-32240000D02*
X82500000Y-35109000D01*
X82540000Y-26920000D02*
X82540000Y-29760000D01*
X82540000Y-32240000D02*
X82540000Y-35080000D01*
X82580000Y-26950000D02*
X82580000Y-29760000D01*
X82580000Y-32240000D02*
X82580000Y-35050000D01*
X82619999Y-26980000D02*
X82619999Y-29760000D01*
X82619999Y-32240000D02*
X82619999Y-35020000D01*
X82659999Y-27012000D02*
X82659999Y-29760000D01*
X82659999Y-32240000D02*
X82659999Y-34988000D01*
X82700000Y-27043000D02*
X82700000Y-29760000D01*
X82700000Y-32240000D02*
X82700000Y-34957000D01*
X82740000Y-27076000D02*
X82740000Y-29760000D01*
X82740000Y-32240000D02*
X82740000Y-34924000D01*
X82779999Y-27109000D02*
X82779999Y-29760000D01*
X82779999Y-32240000D02*
X82779999Y-34891000D01*
X82820000Y-27142000D02*
X82820000Y-29760000D01*
X82820000Y-32240000D02*
X82820000Y-34858000D01*
X82860000Y-27177000D02*
X82860000Y-29760000D01*
X82860000Y-32240000D02*
X82860000Y-34823000D01*
X82900000Y-27212000D02*
X82900000Y-29760000D01*
X82900000Y-32240000D02*
X82900000Y-34788000D01*
X82939999Y-27248000D02*
X82939999Y-29760000D01*
X82939999Y-32240000D02*
X82939999Y-34751999D01*
X82979999Y-27283999D02*
X82979999Y-29760000D01*
X82979999Y-32240000D02*
X82979999Y-34716000D01*
X83019999Y-27322000D02*
X83019999Y-29760000D01*
X83019999Y-32240000D02*
X83019999Y-34678000D01*
X83060000Y-27359999D02*
X83060000Y-29760000D01*
X83060000Y-32240000D02*
X83060000Y-34640000D01*
X83100000Y-27399000D02*
X83100000Y-29760000D01*
X83100000Y-32240000D02*
X83100000Y-34601000D01*
X83139999Y-27439000D02*
X83139999Y-29760000D01*
X83139999Y-32240000D02*
X83139999Y-34561000D01*
X83180000Y-27480000D02*
X83180000Y-29760000D01*
X83180000Y-32240000D02*
X83180000Y-34520000D01*
X83220000Y-27521999D02*
X83220000Y-29760000D01*
X83220000Y-32240000D02*
X83220000Y-34478000D01*
X83260000Y-27565000D02*
X83260000Y-34435000D01*
X83299999Y-27609000D02*
X83299999Y-34391000D01*
X83339999Y-27653000D02*
X83339999Y-34347000D01*
X83380000Y-27698999D02*
X83380000Y-34301000D01*
X83420000Y-27746000D02*
X83420000Y-34254000D01*
X83460000Y-27795000D02*
X83460000Y-34205000D01*
X83500000Y-27843999D02*
X83500000Y-34156000D01*
X83540000Y-27895000D02*
X83540000Y-34105000D01*
X83580000Y-27947000D02*
X83580000Y-34053000D01*
X83620000Y-28000000D02*
X83620000Y-34000000D01*
X83659999Y-28055000D02*
X83659999Y-33945000D01*
X83700000Y-28112000D02*
X83700000Y-33888000D01*
X83740000Y-28170000D02*
X83740000Y-33830000D01*
X83780000Y-28230000D02*
X83780000Y-33770000D01*
X83820000Y-28292000D02*
X83820000Y-33708000D01*
X83860000Y-28356000D02*
X83860000Y-33644000D01*
X83900000Y-28422000D02*
X83900000Y-33577999D01*
X83940000Y-28490000D02*
X83940000Y-33510000D01*
X83979999Y-28561000D02*
X83979999Y-33439000D01*
X84019999Y-28635000D02*
X84019999Y-33365000D01*
X84060000Y-28712000D02*
X84060000Y-33288000D01*
X84100000Y-28792000D02*
X84100000Y-33208000D01*
X84140000Y-28876000D02*
X84140000Y-33124000D01*
X84180000Y-28963000D02*
X84180000Y-33037000D01*
X84220000Y-29056000D02*
X84220000Y-32944000D01*
X84260000Y-29154000D02*
X84260000Y-32846000D01*
X84300000Y-29258000D02*
X84300000Y-32742000D01*
X84339999Y-29370000D02*
X84339999Y-32630000D01*
X84380000Y-29491000D02*
X84380000Y-32509000D01*
X84420000Y-29623000D02*
X84420000Y-32377000D01*
X84460000Y-29769999D02*
X84460000Y-32230000D01*
X84500000Y-29937999D02*
X84500000Y-32062000D01*
X84540000Y-30138000D02*
X84540000Y-31862000D01*
X84580000Y-30401000D02*
X84580000Y-31599000D01*
X84620000Y-31000000D02*
G75*
G02*
X74380000Y-31000000I-5120000J0D01*
G01*
X74380000Y-31000000D02*
G75*
G02*
X84620000Y-31000000I5120000J0D01*
G01*
%TO.C,D2*%
X52490000Y-45350000D02*
X52490000Y-48650000D01*
X52490000Y-45350000D02*
X59500000Y-45350000D01*
X52490000Y-48650000D02*
X59500000Y-48650000D01*
%TO.C,R7*%
X86745276Y-42477500D02*
X87254724Y-42477500D01*
X86745276Y-43522500D02*
X87254724Y-43522500D01*
%TO.C,R34*%
X44745276Y-66477500D02*
X45254724Y-66477500D01*
X44745276Y-67522500D02*
X45254724Y-67522500D01*
%TD*%
M02*
