%TF.GenerationSoftware,KiCad,Pcbnew,10.0.6*%
%TF.CreationDate,2026-09-10T22:57:20+02:00*%
%TF.ProjectId,haptic_controller,68617074-6963-45f6-936f-6e74726f6c6c,rev?*%
%TF.SameCoordinates,Original*%
%TF.FileFunction,Soldermask,Top*%
%TF.FilePolarity,Negative*%
%FSLAX46Y46*%
G04 Gerber Fmt 4.6, Leading zero omitted, Abs format (unit mm)*
G04 Created by KiCad (PCBNEW 10.0.6) date 2026-09-10 22:57:20*
%MOMM*%
%LPD*%
G01*
G04 APERTURE LIST*
G04 Aperture macros list*
%AMRoundRect*
0 Rectangle with rounded corners*
0 $1 Rounding radius*
0 $2 $3 $4 $5 $6 $7 $8 $9 X,Y pos of 4 corners*
0 Add a 4 corners polygon primitive as box body*
4,1,4,$2,$3,$4,$5,$6,$7,$8,$9,$2,$3,0*
0 Add four circle primitives for the rounded corners*
1,1,$1+$1,$2,$3*
1,1,$1+$1,$4,$5*
1,1,$1+$1,$6,$7*
1,1,$1+$1,$8,$9*
0 Add four rect primitives between the rounded corners*
20,1,$1+$1,$2,$3,$4,$5,0*
20,1,$1+$1,$4,$5,$6,$7,0*
20,1,$1+$1,$6,$7,$8,$9,0*
20,1,$1+$1,$8,$9,$2,$3,0*%
G04 Aperture macros list end*
%ADD10RoundRect,0.287500X-0.250000X-0.237500X0.250000X-0.237500X0.250000X0.237500X-0.250000X0.237500X0*%
%ADD11RoundRect,0.287500X-0.300000X-0.237500X0.300000X-0.237500X0.300000X0.237500X-0.300000X0.237500X0*%
%ADD12C,3.100000*%
%ADD13RoundRect,0.300000X1.050000X-1.050000X1.050000X1.050000X-1.050000X1.050000X-1.050000X-1.050000X0*%
%ADD14C,2.700000*%
%ADD15C,3.800000*%
%ADD16RoundRect,0.300000X-0.850000X-0.350000X0.850000X-0.350000X0.850000X0.350000X-0.850000X0.350000X0*%
%ADD17RoundRect,0.299997X-2.950003X-2.650003X2.950003X-2.650003X2.950003X2.650003X-2.950003X2.650003X0*%
%ADD18RoundRect,0.050000X0.850000X-0.850000X0.850000X0.850000X-0.850000X0.850000X-0.850000X-0.850000X0*%
%ADD19C,1.800000*%
%ADD20RoundRect,0.300000X-0.750000X-0.750000X0.750000X-0.750000X0.750000X0.750000X-0.750000X0.750000X0*%
%ADD21C,2.100000*%
%ADD22RoundRect,0.275000X-0.225000X-0.375000X0.225000X-0.375000X0.225000X0.375000X-0.225000X0.375000X0*%
%ADD23RoundRect,0.050000X-0.300000X-0.125000X0.300000X-0.125000X0.300000X0.125000X-0.300000X0.125000X0*%
%ADD24RoundRect,0.100000X-0.250000X-0.075000X0.250000X-0.075000X0.250000X0.075000X-0.250000X0.075000X0*%
%ADD25RoundRect,0.100000X-0.075000X-0.250000X0.075000X-0.250000X0.075000X0.250000X-0.075000X0.250000X0*%
%ADD26RoundRect,0.050000X-1.750000X-2.750000X1.750000X-2.750000X1.750000X2.750000X-1.750000X2.750000X0*%
%ADD27RoundRect,0.200000X-0.587500X-0.150000X0.587500X-0.150000X0.587500X0.150000X-0.587500X0.150000X0*%
%ADD28RoundRect,0.300000X-0.337500X-0.475000X0.337500X-0.475000X0.337500X0.475000X-0.337500X0.475000X0*%
%ADD29RoundRect,0.050000X-0.875000X-0.875000X0.875000X-0.875000X0.875000X0.875000X-0.875000X0.875000X0*%
%ADD30C,1.850000*%
%ADD31C,2.800000*%
%ADD32RoundRect,0.050000X-0.450000X-0.850000X0.450000X-0.850000X0.450000X0.850000X-0.450000X0.850000X0*%
%ADD33RoundRect,0.200000X-0.725000X-0.150000X0.725000X-0.150000X0.725000X0.150000X-0.725000X0.150000X0*%
%ADD34RoundRect,0.300000X-1.500000X-0.650000X1.500000X-0.650000X1.500000X0.650000X-1.500000X0.650000X0*%
G04 APERTURE END LIST*
D10*
%TO.C,R21*%
X75087500Y-82000000D03*
X76912500Y-82000000D03*
%TD*%
D11*
%TO.C,C10*%
X79137500Y-76000000D03*
X80862500Y-76000000D03*
%TD*%
D10*
%TO.C,R19*%
X75087500Y-76000000D03*
X76912500Y-76000000D03*
%TD*%
D12*
%TO.C,TP12*%
X63000000Y-96000000D03*
%TD*%
%TO.C,TP8*%
X88000000Y-101000000D03*
%TD*%
D13*
%TO.C,J2*%
X26000000Y-55000000D03*
D14*
X26000000Y-50000000D03*
X26000000Y-45000000D03*
%TD*%
D12*
%TO.C,TP11*%
X58000000Y-96000000D03*
%TD*%
D11*
%TO.C,C3*%
X65137500Y-47000000D03*
X66862500Y-47000000D03*
%TD*%
D10*
%TO.C,R11*%
X87087500Y-64000000D03*
X88912500Y-64000000D03*
%TD*%
D11*
%TO.C,C12*%
X79137500Y-82000000D03*
X80862500Y-82000000D03*
%TD*%
D10*
%TO.C,R5*%
X83087500Y-57000000D03*
X84912500Y-57000000D03*
%TD*%
%TO.C,R8*%
X82087500Y-60000000D03*
X83912500Y-60000000D03*
%TD*%
D12*
%TO.C,TP13*%
X68000000Y-96000000D03*
%TD*%
%TO.C,TP4*%
X68000000Y-101000000D03*
%TD*%
D11*
%TO.C,C11*%
X79137500Y-79000000D03*
X80862500Y-79000000D03*
%TD*%
%TO.C,C6*%
X66137500Y-54000000D03*
X67862500Y-54000000D03*
%TD*%
D15*
%TO.C,H1*%
X25000000Y-25000000D03*
%TD*%
D10*
%TO.C,R33*%
X54087500Y-75000000D03*
X55912500Y-75000000D03*
%TD*%
%TO.C,R27*%
X86087500Y-75000000D03*
X87912500Y-75000000D03*
%TD*%
D15*
%TO.C,H3*%
X25000000Y-100000000D03*
%TD*%
%TO.C,H2*%
X125000000Y-25000000D03*
%TD*%
D12*
%TO.C,TP17*%
X88000000Y-96000000D03*
%TD*%
D11*
%TO.C,C7*%
X66137500Y-58000000D03*
X67862500Y-58000000D03*
%TD*%
D16*
%TO.C,Q1*%
X52960000Y-37720000D03*
D17*
X59260000Y-40000000D03*
D16*
X52960000Y-42280000D03*
%TD*%
D11*
%TO.C,C8*%
X78137500Y-46000000D03*
X79862500Y-46000000D03*
%TD*%
D13*
%TO.C,J1*%
X26000000Y-36000000D03*
D14*
X26000000Y-31000000D03*
%TD*%
D10*
%TO.C,R36*%
X91087500Y-67000000D03*
X92912500Y-67000000D03*
%TD*%
D11*
%TO.C,C9*%
X77137500Y-60000000D03*
X78862500Y-60000000D03*
%TD*%
D10*
%TO.C,R22*%
X60087500Y-62000000D03*
X61912500Y-62000000D03*
%TD*%
D12*
%TO.C,TP16*%
X83000000Y-96000000D03*
%TD*%
%TO.C,TP7*%
X83000000Y-101000000D03*
%TD*%
D18*
%TO.C,J3*%
X35000000Y-97000000D03*
D19*
X37540000Y-97000000D03*
X40080000Y-97000000D03*
X42620000Y-97000000D03*
X45160000Y-97000000D03*
X47700000Y-97000000D03*
%TD*%
D10*
%TO.C,R10*%
X83087500Y-64000000D03*
X84912500Y-64000000D03*
%TD*%
D16*
%TO.C,Q5*%
X32960000Y-70720000D03*
D17*
X39260000Y-73000000D03*
D16*
X32960000Y-75280000D03*
%TD*%
D12*
%TO.C,TP5*%
X73000000Y-101000000D03*
%TD*%
D20*
%TO.C,C2*%
X90000000Y-31000000D03*
D21*
X95000000Y-31000000D03*
%TD*%
D22*
%TO.C,D3*%
X39350000Y-81000000D03*
X42650000Y-81000000D03*
%TD*%
D10*
%TO.C,R13*%
X83087500Y-67000000D03*
X84912500Y-67000000D03*
%TD*%
D13*
%TO.C,J4*%
X26000000Y-73000000D03*
D14*
X26000000Y-68000000D03*
%TD*%
D10*
%TO.C,R30*%
X52087500Y-80000000D03*
X53912500Y-80000000D03*
%TD*%
%TO.C,R3*%
X83087500Y-51000000D03*
X84912500Y-51000000D03*
%TD*%
%TO.C,R15*%
X51087500Y-91000000D03*
X52912500Y-91000000D03*
%TD*%
D22*
%TO.C,D1*%
X65350000Y-40000000D03*
X68650000Y-40000000D03*
%TD*%
D10*
%TO.C,R31*%
X54087500Y-69000000D03*
X55912500Y-69000000D03*
%TD*%
D11*
%TO.C,C13*%
X64137500Y-65000000D03*
X65862500Y-65000000D03*
%TD*%
D12*
%TO.C,TP15*%
X78000000Y-96000000D03*
%TD*%
D23*
%TO.C,U1*%
X69350000Y-52250000D03*
D24*
X69350000Y-52750000D03*
X69350000Y-53250000D03*
X69350000Y-53750000D03*
X69350000Y-54250000D03*
X69350000Y-54750000D03*
X69350000Y-55250000D03*
X69350000Y-55750000D03*
X69350000Y-56250000D03*
X69350000Y-56750000D03*
X69350000Y-57250000D03*
X69350000Y-57750000D03*
D25*
X70250000Y-58650000D03*
X70750000Y-58650000D03*
X71250000Y-58650000D03*
X71750000Y-58650000D03*
X72250001Y-58650000D03*
X72750001Y-58650000D03*
X73250001Y-58650000D03*
X73750001Y-58650000D03*
D24*
X74650001Y-57750000D03*
X74650001Y-57250000D03*
X74650001Y-56750000D03*
X74650001Y-56250000D03*
X74650001Y-55750000D03*
X74650001Y-55250000D03*
X74650001Y-54750000D03*
X74650001Y-54250000D03*
X74650001Y-53750000D03*
X74650001Y-53250000D03*
X74650001Y-52750000D03*
X74650001Y-52250000D03*
D25*
X73750001Y-51350000D03*
X73250001Y-51350000D03*
X72750001Y-51350000D03*
X72250001Y-51350000D03*
X71750000Y-51350000D03*
X71250000Y-51350000D03*
X70750000Y-51350000D03*
X70250000Y-51350000D03*
D26*
X72000000Y-55000000D03*
%TD*%
D11*
%TO.C,C4*%
X65137500Y-49000000D03*
X66862500Y-49000000D03*
%TD*%
D12*
%TO.C,TP9*%
X93000000Y-101000000D03*
%TD*%
D10*
%TO.C,R18*%
X63087500Y-91000000D03*
X64912500Y-91000000D03*
%TD*%
%TO.C,R28*%
X91087500Y-84000000D03*
X92912500Y-84000000D03*
%TD*%
%TO.C,R25*%
X98087500Y-96000000D03*
X99912500Y-96000000D03*
%TD*%
%TO.C,R29*%
X95087500Y-84000000D03*
X96912500Y-84000000D03*
%TD*%
D27*
%TO.C,Q2*%
X103062500Y-95050000D03*
X103062500Y-96950000D03*
X104937500Y-96000000D03*
%TD*%
D12*
%TO.C,TP6*%
X78000000Y-101000000D03*
%TD*%
D10*
%TO.C,R24*%
X98087500Y-92000000D03*
X99912500Y-92000000D03*
%TD*%
D27*
%TO.C,Q3*%
X90062500Y-77050000D03*
X90062500Y-78950000D03*
X91937500Y-78000000D03*
%TD*%
D10*
%TO.C,R6*%
X82087500Y-43000000D03*
X83912500Y-43000000D03*
%TD*%
D12*
%TO.C,TP2*%
X58000000Y-101000000D03*
%TD*%
D28*
%TO.C,C5*%
X70962499Y-45000000D03*
X73037500Y-45000000D03*
%TD*%
D10*
%TO.C,R14*%
X87087500Y-67000000D03*
X88912500Y-67000000D03*
%TD*%
D27*
%TO.C,U4*%
X47062500Y-81050000D03*
X47062500Y-82950000D03*
X48937500Y-82000000D03*
%TD*%
D10*
%TO.C,R17*%
X59087500Y-91000000D03*
X60912500Y-91000000D03*
%TD*%
D12*
%TO.C,TP14*%
X73000000Y-96000000D03*
%TD*%
D10*
%TO.C,R2*%
X67087500Y-43000000D03*
X68912500Y-43000000D03*
%TD*%
D29*
%TO.C,U2*%
X101570000Y-43950000D03*
D30*
X101570000Y-46490000D03*
X101570000Y-49030000D03*
X101570000Y-51570000D03*
X101570000Y-54110000D03*
X101570000Y-56650000D03*
X101570000Y-59190000D03*
X101570000Y-61730000D03*
X101570000Y-64270000D03*
X101570000Y-66810000D03*
X101570000Y-69350000D03*
X101570000Y-71890000D03*
X101570000Y-74430000D03*
X101570000Y-76970000D03*
X101570000Y-79510000D03*
X101570000Y-82050000D03*
X124430000Y-43950000D03*
X124430000Y-46490000D03*
X124430000Y-49030000D03*
X124430000Y-51570000D03*
X124430000Y-54110000D03*
X124430000Y-56650000D03*
X124430000Y-59190000D03*
X124430000Y-61730000D03*
X124430000Y-64270000D03*
X124430000Y-66810000D03*
X124430000Y-69350000D03*
X124430000Y-71890000D03*
X124430000Y-74430000D03*
X124430000Y-76970000D03*
X124430000Y-79510000D03*
X124430000Y-82050000D03*
%TD*%
D10*
%TO.C,R26*%
X98087500Y-100000000D03*
X99912500Y-100000000D03*
%TD*%
%TO.C,R16*%
X55087500Y-91000000D03*
X56912500Y-91000000D03*
%TD*%
D27*
%TO.C,Q4*%
X94062500Y-77050000D03*
X94062500Y-78950000D03*
X95937500Y-78000000D03*
%TD*%
D10*
%TO.C,R1*%
X49087500Y-45000000D03*
X50912500Y-45000000D03*
%TD*%
%TO.C,R4*%
X83087500Y-54000000D03*
X84912500Y-54000000D03*
%TD*%
D31*
%TO.C,F1*%
X53250000Y-28000000D03*
D12*
X42000000Y-28000000D03*
X64500000Y-28000000D03*
%TD*%
%TO.C,TP18*%
X93000000Y-96000000D03*
%TD*%
D15*
%TO.C,H4*%
X125000000Y-100000000D03*
%TD*%
D10*
%TO.C,R20*%
X75087500Y-79000000D03*
X76912500Y-79000000D03*
%TD*%
D32*
%TO.C,SW1*%
X112300000Y-98000000D03*
X115700000Y-98000000D03*
%TD*%
D12*
%TO.C,TP1*%
X53000000Y-101000000D03*
%TD*%
D10*
%TO.C,R32*%
X54087500Y-72000000D03*
X55912500Y-72000000D03*
%TD*%
D33*
%TO.C,U3*%
X45424999Y-71095000D03*
X45424999Y-72365000D03*
X45424999Y-73635000D03*
X45424999Y-74905000D03*
X50574999Y-74905000D03*
X50574999Y-73635000D03*
X50574999Y-72365000D03*
X50574999Y-71095000D03*
%TD*%
D12*
%TO.C,TP3*%
X63000000Y-101000000D03*
%TD*%
D10*
%TO.C,R12*%
X91087500Y-64000000D03*
X92912500Y-64000000D03*
%TD*%
%TO.C,R23*%
X60087500Y-65000000D03*
X61912500Y-65000000D03*
%TD*%
%TO.C,R9*%
X86087500Y-60000000D03*
X87912500Y-60000000D03*
%TD*%
D12*
%TO.C,TP10*%
X53000000Y-96000000D03*
%TD*%
D20*
%TO.C,C1*%
X77000000Y-31000000D03*
D21*
X82000000Y-31000000D03*
%TD*%
D34*
%TO.C,D2*%
X54500000Y-47000000D03*
X59500000Y-47000000D03*
%TD*%
D10*
%TO.C,R7*%
X86087500Y-43000000D03*
X87912500Y-43000000D03*
%TD*%
%TO.C,R34*%
X44087500Y-67000000D03*
X45912500Y-67000000D03*
%TD*%
M02*
