%TF.GenerationSoftware,KiCad,Pcbnew,10.0.6*%
%TF.CreationDate,2026-09-10T22:57:20+02:00*%
%TF.ProjectId,haptic_controller,68617074-6963-45f6-936f-6e74726f6c6c,rev?*%
%TF.SameCoordinates,Original*%
%TF.FileFunction,Paste,Top*%
%TF.FilePolarity,Positive*%
%FSLAX46Y46*%
G04 Gerber Fmt 4.6, Leading zero omitted, Abs format (unit mm)*
G04 Created by KiCad (PCBNEW 10.0.6) date 2026-09-10 22:57:20*
%MOMM*%
%LPD*%
G01*
G04 APERTURE LIST*
G04 Aperture macros list*
%AMRoundRect*
0 Rectangle with rounded corners*
0 $1 Rounding radius*
0 $2 $3 $4 $5 $6 $7 $8 $9 X,Y pos of 4 corners*
0 Add a 4 corners polygon primitive as box body*
4,1,4,$2,$3,$4,$5,$6,$7,$8,$9,$2,$3,0*
0 Add four circle primitives for the rounded corners*
1,1,$1+$1,$2,$3*
1,1,$1+$1,$4,$5*
1,1,$1+$1,$6,$7*
1,1,$1+$1,$8,$9*
0 Add four rect primitives between the rounded corners*
20,1,$1+$1,$2,$3,$4,$5,0*
20,1,$1+$1,$4,$5,$6,$7,0*
20,1,$1+$1,$6,$7,$8,$9,0*
20,1,$1+$1,$8,$9,$2,$3,0*%
G04 Aperture macros list end*
%ADD10RoundRect,0.237500X-0.250000X-0.237500X0.250000X-0.237500X0.250000X0.237500X-0.250000X0.237500X0*%
%ADD11RoundRect,0.237500X-0.300000X-0.237500X0.300000X-0.237500X0.300000X0.237500X-0.300000X0.237500X0*%
%ADD12RoundRect,0.250000X-1.275000X-1.125000X1.275000X-1.125000X1.275000X1.125000X-1.275000X1.125000X0*%
%ADD13RoundRect,0.250000X-0.850000X-0.350000X0.850000X-0.350000X0.850000X0.350000X-0.850000X0.350000X0*%
%ADD14RoundRect,0.225000X-0.225000X-0.375000X0.225000X-0.375000X0.225000X0.375000X-0.225000X0.375000X0*%
%ADD15RoundRect,0.135000X-0.315000X-0.490000X0.315000X-0.490000X0.315000X0.490000X-0.315000X0.490000X0*%
%ADD16R,0.600000X0.250000*%
%ADD17RoundRect,0.050000X-0.250000X-0.075000X0.250000X-0.075000X0.250000X0.075000X-0.250000X0.075000X0*%
%ADD18RoundRect,0.050000X-0.075000X-0.250000X0.075000X-0.250000X0.075000X0.250000X-0.075000X0.250000X0*%
%ADD19RoundRect,0.150000X-0.587500X-0.150000X0.587500X-0.150000X0.587500X0.150000X-0.587500X0.150000X0*%
%ADD20RoundRect,0.250000X-0.337500X-0.475000X0.337500X-0.475000X0.337500X0.475000X-0.337500X0.475000X0*%
%ADD21R,0.900000X1.700000*%
%ADD22RoundRect,0.150000X-0.725000X-0.150000X0.725000X-0.150000X0.725000X0.150000X-0.725000X0.150000X0*%
%ADD23RoundRect,0.250000X-1.500000X-0.650000X1.500000X-0.650000X1.500000X0.650000X-1.500000X0.650000X0*%
G04 APERTURE END LIST*
D10*
%TO.C,R21*%
X75087500Y-82000000D03*
X76912500Y-82000000D03*
%TD*%
D11*
%TO.C,C10*%
X79137500Y-76000000D03*
X80862500Y-76000000D03*
%TD*%
D10*
%TO.C,R19*%
X75087500Y-76000000D03*
X76912500Y-76000000D03*
%TD*%
D11*
%TO.C,C3*%
X65137500Y-47000000D03*
X66862500Y-47000000D03*
%TD*%
D10*
%TO.C,R11*%
X87087500Y-64000000D03*
X88912500Y-64000000D03*
%TD*%
D11*
%TO.C,C12*%
X79137500Y-82000000D03*
X80862500Y-82000000D03*
%TD*%
D10*
%TO.C,R5*%
X83087500Y-57000000D03*
X84912500Y-57000000D03*
%TD*%
%TO.C,R8*%
X82087500Y-60000000D03*
X83912500Y-60000000D03*
%TD*%
D11*
%TO.C,C11*%
X79137500Y-79000000D03*
X80862500Y-79000000D03*
%TD*%
%TO.C,C6*%
X66137500Y-54000000D03*
X67862500Y-54000000D03*
%TD*%
D10*
%TO.C,R33*%
X54087500Y-75000000D03*
X55912500Y-75000000D03*
%TD*%
%TO.C,R27*%
X86087500Y-75000000D03*
X87912500Y-75000000D03*
%TD*%
D11*
%TO.C,C7*%
X66137500Y-58000000D03*
X67862500Y-58000000D03*
%TD*%
D12*
%TO.C,Q1*%
X57585000Y-38475000D03*
X57585000Y-41525000D03*
X60935000Y-38475000D03*
X60935000Y-41525000D03*
D13*
X52960000Y-37720000D03*
X52960000Y-42280000D03*
%TD*%
D11*
%TO.C,C8*%
X78137500Y-46000000D03*
X79862500Y-46000000D03*
%TD*%
D10*
%TO.C,R36*%
X91087500Y-67000000D03*
X92912500Y-67000000D03*
%TD*%
D11*
%TO.C,C9*%
X77137500Y-60000000D03*
X78862500Y-60000000D03*
%TD*%
D10*
%TO.C,R22*%
X60087500Y-62000000D03*
X61912500Y-62000000D03*
%TD*%
%TO.C,R10*%
X83087500Y-64000000D03*
X84912500Y-64000000D03*
%TD*%
D12*
%TO.C,Q5*%
X37585000Y-71475000D03*
X37585000Y-74525000D03*
X40935000Y-71475000D03*
X40935000Y-74525000D03*
D13*
X32960000Y-70720000D03*
X32960000Y-75280000D03*
%TD*%
D14*
%TO.C,D3*%
X39350000Y-81000000D03*
X42650000Y-81000000D03*
%TD*%
D10*
%TO.C,R13*%
X83087500Y-67000000D03*
X84912500Y-67000000D03*
%TD*%
%TO.C,R30*%
X52087500Y-80000000D03*
X53912500Y-80000000D03*
%TD*%
%TO.C,R3*%
X83087500Y-51000000D03*
X84912500Y-51000000D03*
%TD*%
%TO.C,R15*%
X51087500Y-91000000D03*
X52912500Y-91000000D03*
%TD*%
D14*
%TO.C,D1*%
X65350000Y-40000000D03*
X68650000Y-40000000D03*
%TD*%
D10*
%TO.C,R31*%
X54087500Y-69000000D03*
X55912500Y-69000000D03*
%TD*%
D11*
%TO.C,C13*%
X64137500Y-65000000D03*
X65862500Y-65000000D03*
%TD*%
D15*
%TO.C,U1*%
X70900001Y-53250000D03*
X70900001Y-55000000D03*
X70900001Y-56750000D03*
X72000000Y-53250000D03*
X72000000Y-55000000D03*
X72000000Y-56750000D03*
X73100000Y-53250000D03*
X73100000Y-55000000D03*
X73100000Y-56750000D03*
D16*
X69350000Y-52250000D03*
D17*
X69350000Y-52750000D03*
X69350000Y-53250000D03*
X69350000Y-53750000D03*
X69350000Y-54250000D03*
X69350000Y-54750000D03*
X69350000Y-55250000D03*
X69350000Y-55750000D03*
X69350000Y-56250000D03*
X69350000Y-56750000D03*
X69350000Y-57250000D03*
X69350000Y-57750000D03*
D18*
X70250000Y-58650000D03*
X70750000Y-58650000D03*
X71250000Y-58650000D03*
X71750000Y-58650000D03*
X72250001Y-58650000D03*
X72750001Y-58650000D03*
X73250001Y-58650000D03*
X73750001Y-58650000D03*
D17*
X74650001Y-57750000D03*
X74650001Y-57250000D03*
X74650001Y-56750000D03*
X74650001Y-56250000D03*
X74650001Y-55750000D03*
X74650001Y-55250000D03*
X74650001Y-54750000D03*
X74650001Y-54250000D03*
X74650001Y-53750000D03*
X74650001Y-53250000D03*
X74650001Y-52750000D03*
X74650001Y-52250000D03*
D18*
X73750001Y-51350000D03*
X73250001Y-51350000D03*
X72750001Y-51350000D03*
X72250001Y-51350000D03*
X71750000Y-51350000D03*
X71250000Y-51350000D03*
X70750000Y-51350000D03*
X70250000Y-51350000D03*
%TD*%
D11*
%TO.C,C4*%
X65137500Y-49000000D03*
X66862500Y-49000000D03*
%TD*%
D10*
%TO.C,R18*%
X63087500Y-91000000D03*
X64912500Y-91000000D03*
%TD*%
%TO.C,R28*%
X91087500Y-84000000D03*
X92912500Y-84000000D03*
%TD*%
%TO.C,R25*%
X98087500Y-96000000D03*
X99912500Y-96000000D03*
%TD*%
%TO.C,R29*%
X95087500Y-84000000D03*
X96912500Y-84000000D03*
%TD*%
D19*
%TO.C,Q2*%
X103062500Y-95050000D03*
X103062500Y-96950000D03*
X104937500Y-96000000D03*
%TD*%
D10*
%TO.C,R24*%
X98087500Y-92000000D03*
X99912500Y-92000000D03*
%TD*%
D19*
%TO.C,Q3*%
X90062500Y-77050000D03*
X90062500Y-78950000D03*
X91937500Y-78000000D03*
%TD*%
D10*
%TO.C,R6*%
X82087500Y-43000000D03*
X83912500Y-43000000D03*
%TD*%
D20*
%TO.C,C5*%
X70962499Y-45000000D03*
X73037500Y-45000000D03*
%TD*%
D10*
%TO.C,R14*%
X87087500Y-67000000D03*
X88912500Y-67000000D03*
%TD*%
D19*
%TO.C,U4*%
X47062500Y-81050000D03*
X47062500Y-82950000D03*
X48937500Y-82000000D03*
%TD*%
D10*
%TO.C,R17*%
X59087500Y-91000000D03*
X60912500Y-91000000D03*
%TD*%
%TO.C,R2*%
X67087500Y-43000000D03*
X68912500Y-43000000D03*
%TD*%
%TO.C,R26*%
X98087500Y-100000000D03*
X99912500Y-100000000D03*
%TD*%
%TO.C,R16*%
X55087500Y-91000000D03*
X56912500Y-91000000D03*
%TD*%
D19*
%TO.C,Q4*%
X94062500Y-77050000D03*
X94062500Y-78950000D03*
X95937500Y-78000000D03*
%TD*%
D10*
%TO.C,R1*%
X49087500Y-45000000D03*
X50912500Y-45000000D03*
%TD*%
%TO.C,R4*%
X83087500Y-54000000D03*
X84912500Y-54000000D03*
%TD*%
%TO.C,R20*%
X75087500Y-79000000D03*
X76912500Y-79000000D03*
%TD*%
D21*
%TO.C,SW1*%
X112300000Y-98000000D03*
X115700000Y-98000000D03*
%TD*%
D10*
%TO.C,R32*%
X54087500Y-72000000D03*
X55912500Y-72000000D03*
%TD*%
D22*
%TO.C,U3*%
X45424999Y-71095000D03*
X45424999Y-72365000D03*
X45424999Y-73635000D03*
X45424999Y-74905000D03*
X50574999Y-74905000D03*
X50574999Y-73635000D03*
X50574999Y-72365000D03*
X50574999Y-71095000D03*
%TD*%
D10*
%TO.C,R12*%
X91087500Y-64000000D03*
X92912500Y-64000000D03*
%TD*%
%TO.C,R23*%
X60087500Y-65000000D03*
X61912500Y-65000000D03*
%TD*%
%TO.C,R9*%
X86087500Y-60000000D03*
X87912500Y-60000000D03*
%TD*%
D23*
%TO.C,D2*%
X54500000Y-47000000D03*
X59500000Y-47000000D03*
%TD*%
D10*
%TO.C,R7*%
X86087500Y-43000000D03*
X87912500Y-43000000D03*
%TD*%
%TO.C,R34*%
X44087500Y-67000000D03*
X45912500Y-67000000D03*
%TD*%
M02*
