%TF.GenerationSoftware,KiCad,Pcbnew,10.0.6*%
%TF.CreationDate,2026-09-10T22:57:20+02:00*%
%TF.ProjectId,haptic_controller,68617074-6963-45f6-936f-6e74726f6c6c,rev?*%
%TF.SameCoordinates,Original*%
%TF.FileFunction,Copper,L1,Top*%
%TF.FilePolarity,Positive*%
%FSLAX46Y46*%
G04 Gerber Fmt 4.6, Leading zero omitted, Abs format (unit mm)*
G04 Created by KiCad (PCBNEW 10.0.6) date 2026-09-10 22:57:20*
%MOMM*%
%LPD*%
G01*
G04 APERTURE LIST*
G04 Aperture macros list*
%AMRoundRect*
0 Rectangle with rounded corners*
0 $1 Rounding radius*
0 $2 $3 $4 $5 $6 $7 $8 $9 X,Y pos of 4 corners*
0 Add a 4 corners polygon primitive as box body*
4,1,4,$2,$3,$4,$5,$6,$7,$8,$9,$2,$3,0*
0 Add four circle primitives for the rounded corners*
1,1,$1+$1,$2,$3*
1,1,$1+$1,$4,$5*
1,1,$1+$1,$6,$7*
1,1,$1+$1,$8,$9*
0 Add four rect primitives between the rounded corners*
20,1,$1+$1,$2,$3,$4,$5,0*
20,1,$1+$1,$4,$5,$6,$7,0*
20,1,$1+$1,$6,$7,$8,$9,0*
20,1,$1+$1,$8,$9,$2,$3,0*%
G04 Aperture macros list end*
%TA.AperFunction,SMDPad,CuDef*%
%ADD10RoundRect,0.237500X-0.250000X-0.237500X0.250000X-0.237500X0.250000X0.237500X-0.250000X0.237500X0*%
%TD*%
%TA.AperFunction,SMDPad,CuDef*%
%ADD11RoundRect,0.237500X-0.300000X-0.237500X0.300000X-0.237500X0.300000X0.237500X-0.300000X0.237500X0*%
%TD*%
%TA.AperFunction,ComponentPad*%
%ADD12C,3.000000*%
%TD*%
%TA.AperFunction,ComponentPad*%
%ADD13RoundRect,0.250000X1.050000X-1.050000X1.050000X1.050000X-1.050000X1.050000X-1.050000X-1.050000X0*%
%TD*%
%TA.AperFunction,ComponentPad*%
%ADD14C,2.600000*%
%TD*%
%TA.AperFunction,WasherPad*%
%ADD15C,3.700000*%
%TD*%
%TA.AperFunction,SMDPad,CuDef*%
%ADD16RoundRect,0.250000X-0.850000X-0.350000X0.850000X-0.350000X0.850000X0.350000X-0.850000X0.350000X0*%
%TD*%
%TA.AperFunction,SMDPad,CuDef*%
%ADD17RoundRect,0.249997X-2.950003X-2.650003X2.950003X-2.650003X2.950003X2.650003X-2.950003X2.650003X0*%
%TD*%
%TA.AperFunction,ComponentPad*%
%ADD18R,1.700000X1.700000*%
%TD*%
%TA.AperFunction,ComponentPad*%
%ADD19C,1.700000*%
%TD*%
%TA.AperFunction,ComponentPad*%
%ADD20RoundRect,0.250000X-0.750000X-0.750000X0.750000X-0.750000X0.750000X0.750000X-0.750000X0.750000X0*%
%TD*%
%TA.AperFunction,ComponentPad*%
%ADD21C,2.000000*%
%TD*%
%TA.AperFunction,SMDPad,CuDef*%
%ADD22RoundRect,0.225000X-0.225000X-0.375000X0.225000X-0.375000X0.225000X0.375000X-0.225000X0.375000X0*%
%TD*%
%TA.AperFunction,SMDPad,CuDef*%
%ADD23R,0.600000X0.250000*%
%TD*%
%TA.AperFunction,SMDPad,CuDef*%
%ADD24RoundRect,0.050000X-0.250000X-0.075000X0.250000X-0.075000X0.250000X0.075000X-0.250000X0.075000X0*%
%TD*%
%TA.AperFunction,SMDPad,CuDef*%
%ADD25RoundRect,0.050000X-0.075000X-0.250000X0.075000X-0.250000X0.075000X0.250000X-0.075000X0.250000X0*%
%TD*%
%TA.AperFunction,SMDPad,CuDef*%
%ADD26R,3.500000X5.500000*%
%TD*%
%TA.AperFunction,SMDPad,CuDef*%
%ADD27RoundRect,0.150000X-0.587500X-0.150000X0.587500X-0.150000X0.587500X0.150000X-0.587500X0.150000X0*%
%TD*%
%TA.AperFunction,SMDPad,CuDef*%
%ADD28RoundRect,0.250000X-0.337500X-0.475000X0.337500X-0.475000X0.337500X0.475000X-0.337500X0.475000X0*%
%TD*%
%TA.AperFunction,ComponentPad*%
%ADD29R,1.750000X1.750000*%
%TD*%
%TA.AperFunction,ComponentPad*%
%ADD30C,1.750000*%
%TD*%
%TA.AperFunction,SMDPad,CuDef*%
%ADD31R,0.900000X1.700000*%
%TD*%
%TA.AperFunction,SMDPad,CuDef*%
%ADD32RoundRect,0.150000X-0.725000X-0.150000X0.725000X-0.150000X0.725000X0.150000X-0.725000X0.150000X0*%
%TD*%
%TA.AperFunction,SMDPad,CuDef*%
%ADD33RoundRect,0.250000X-1.500000X-0.650000X1.500000X-0.650000X1.500000X0.650000X-1.500000X0.650000X0*%
%TD*%
%TA.AperFunction,ViaPad*%
%ADD34C,0.600000*%
%TD*%
%TA.AperFunction,Conductor*%
%ADD35C,0.200000*%
%TD*%
G04 APERTURE END LIST*
D10*
%TO.P,R21,1*%
%TO.N,/SOC_RAW*%
X75087500Y-82000000D03*
%TO.P,R21,2*%
%TO.N,/I_C*%
X76912500Y-82000000D03*
%TD*%
D11*
%TO.P,C10,1*%
%TO.N,/I_A*%
X79137500Y-76000000D03*
%TO.P,C10,2*%
%TO.N,/GND*%
X80862500Y-76000000D03*
%TD*%
D10*
%TO.P,R19,1*%
%TO.N,/SOA_RAW*%
X75087500Y-76000000D03*
%TO.P,R19,2*%
%TO.N,/I_A*%
X76912500Y-76000000D03*
%TD*%
D12*
%TO.P,TP12,1,1_1*%
%TO.N,/DRVOFF*%
X63000000Y-96000000D03*
%TD*%
%TO.P,TP8,1,1_1*%
%TO.N,/PWM_U*%
X88000000Y-101000000D03*
%TD*%
D13*
%TO.P,J2,1,Pin_1_1*%
%TO.N,/MOTOR_U*%
X26000000Y-55000000D03*
D14*
%TO.P,J2,2,Pin_2_2*%
%TO.N,/MOTOR_V*%
X26000000Y-50000000D03*
%TO.P,J2,3,Pin_3_3*%
%TO.N,/MOTOR_W*%
X26000000Y-45000000D03*
%TD*%
D12*
%TO.P,TP11,1,1_1*%
%TO.N,/NFAULT*%
X58000000Y-96000000D03*
%TD*%
D11*
%TO.P,C3,1*%
%TO.N,/VM_PROTECTED*%
X65137500Y-47000000D03*
%TO.P,C3,2*%
%TO.N,/GND*%
X66862500Y-47000000D03*
%TD*%
D10*
%TO.P,R11,1*%
%TO.N,/MOSI_DRV*%
X87087500Y-64000000D03*
%TO.P,R11,2*%
%TO.N,/MOSI*%
X88912500Y-64000000D03*
%TD*%
D11*
%TO.P,C12,1*%
%TO.N,/I_C*%
X79137500Y-82000000D03*
%TO.P,C12,2*%
%TO.N,/GND*%
X80862500Y-82000000D03*
%TD*%
D10*
%TO.P,R5,1*%
%TO.N,/PWM_W_DRV*%
X83087500Y-57000000D03*
%TO.P,R5,2*%
%TO.N,/PWM_W*%
X84912500Y-57000000D03*
%TD*%
%TO.P,R8,1*%
%TO.N,/NSLEEP_DRV*%
X82087500Y-60000000D03*
%TO.P,R8,2*%
%TO.N,/GND*%
X83912500Y-60000000D03*
%TD*%
D12*
%TO.P,TP13,1,1_1*%
%TO.N,/NSLEEP*%
X68000000Y-96000000D03*
%TD*%
%TO.P,TP4,1,1_1*%
%TO.N,/3V3*%
X68000000Y-101000000D03*
%TD*%
D11*
%TO.P,C11,1*%
%TO.N,/I_B*%
X79137500Y-79000000D03*
%TO.P,C11,2*%
%TO.N,/GND*%
X80862500Y-79000000D03*
%TD*%
%TO.P,C6,1*%
%TO.N,/CPL*%
X66137500Y-54000000D03*
%TO.P,C6,2*%
%TO.N,/CPH*%
X67862500Y-54000000D03*
%TD*%
D15*
%TO.P,H1,*%
%TO.N,*%
X25000000Y-25000000D03*
%TD*%
D10*
%TO.P,R33,1*%
%TO.N,/DUMP_GATE*%
X54087500Y-75000000D03*
%TO.P,R33,2*%
%TO.N,/OVP_SENSE*%
X55912500Y-75000000D03*
%TD*%
%TO.P,R27,1*%
%TO.N,/3V3*%
X86087500Y-75000000D03*
%TO.P,R27,2*%
%TO.N,/VREF_GATE*%
X87912500Y-75000000D03*
%TD*%
D15*
%TO.P,H3,*%
%TO.N,*%
X25000000Y-100000000D03*
%TD*%
%TO.P,H2,*%
%TO.N,*%
X125000000Y-25000000D03*
%TD*%
D12*
%TO.P,TP17,1,1_1*%
%TO.N,/CS_DRV*%
X88000000Y-96000000D03*
%TD*%
D11*
%TO.P,C7,1*%
%TO.N,/CP*%
X66137500Y-58000000D03*
%TO.P,C7,2*%
%TO.N,/VM_PROTECTED*%
X67862500Y-58000000D03*
%TD*%
D16*
%TO.P,Q1,1,G_1*%
%TO.N,/GATE_REV*%
X52960000Y-37720000D03*
D17*
%TO.P,Q1,2,D_2*%
%TO.N,/VM_FUSED*%
X59260000Y-40000000D03*
D16*
%TO.P,Q1,3,S_3*%
%TO.N,/VM_PROTECTED*%
X52960000Y-42280000D03*
%TD*%
D11*
%TO.P,C8,1*%
%TO.N,/AVDD*%
X78137500Y-46000000D03*
%TO.P,C8,2*%
%TO.N,/GND*%
X79862500Y-46000000D03*
%TD*%
D13*
%TO.P,J1,1,Pin_1_1*%
%TO.N,/VM_IN*%
X26000000Y-36000000D03*
D14*
%TO.P,J1,2,Pin_2_2*%
%TO.N,/GND*%
X26000000Y-31000000D03*
%TD*%
D10*
%TO.P,R36,1*%
%TO.N,/3V3*%
X91087500Y-67000000D03*
%TO.P,R36,2*%
%TO.N,/CS_DRV*%
X92912500Y-67000000D03*
%TD*%
D11*
%TO.P,C9,1*%
%TO.N,/VREF*%
X77137500Y-60000000D03*
%TO.P,C9,2*%
%TO.N,/GND*%
X78862500Y-60000000D03*
%TD*%
D10*
%TO.P,R22,1*%
%TO.N,/VM_PROTECTED*%
X60087500Y-62000000D03*
%TO.P,R22,2*%
%TO.N,/VM_ADC*%
X61912500Y-62000000D03*
%TD*%
D12*
%TO.P,TP16,1,1_1*%
%TO.N,/MISO*%
X83000000Y-96000000D03*
%TD*%
%TO.P,TP7,1,1_1*%
%TO.N,/SOC_RAW*%
X83000000Y-101000000D03*
%TD*%
D18*
%TO.P,J3,1,Pin_1_1*%
%TO.N,/3V3*%
X35000000Y-97000000D03*
D19*
%TO.P,J3,2,Pin_2_2*%
%TO.N,/GND*%
X37540000Y-97000000D03*
%TO.P,J3,3,Pin_3_3*%
%TO.N,/SCLK_ENC*%
X40080000Y-97000000D03*
%TO.P,J3,4,Pin_4_4*%
%TO.N,/MISO_ENC*%
X42620000Y-97000000D03*
%TO.P,J3,5,Pin_5_5*%
%TO.N,/CS_ENC_IC*%
X45160000Y-97000000D03*
%TO.P,J3,6,Pin_6_6*%
%TO.N,unconnected-(J3-Pin_6-Pad6)*%
X47700000Y-97000000D03*
%TD*%
D10*
%TO.P,R10,1*%
%TO.N,/SCLK_DRV*%
X83087500Y-64000000D03*
%TO.P,R10,2*%
%TO.N,/SCLK*%
X84912500Y-64000000D03*
%TD*%
D16*
%TO.P,Q5,1,G_1*%
%TO.N,/DUMP_GATE*%
X32960000Y-70720000D03*
D17*
%TO.P,Q5,2,D_2*%
%TO.N,/DUMP_LOW*%
X39260000Y-73000000D03*
D16*
%TO.P,Q5,3,S_3*%
%TO.N,/GND*%
X32960000Y-75280000D03*
%TD*%
D12*
%TO.P,TP5,1,1_1*%
%TO.N,/SOA_RAW*%
X73000000Y-101000000D03*
%TD*%
D20*
%TO.P,C2,1*%
%TO.N,/VM_PROTECTED*%
X90000000Y-31000000D03*
D21*
%TO.P,C2,2*%
%TO.N,/GND*%
X95000000Y-31000000D03*
%TD*%
D22*
%TO.P,D3,1,K_1*%
%TO.N,/DUMP_GATE*%
X39350000Y-81000000D03*
%TO.P,D3,2,A_2*%
%TO.N,/GND*%
X42650000Y-81000000D03*
%TD*%
D10*
%TO.P,R13,1*%
%TO.N,/3V3*%
X83087500Y-67000000D03*
%TO.P,R13,2*%
%TO.N,/SDO_DRV*%
X84912500Y-67000000D03*
%TD*%
D13*
%TO.P,J4,1,Pin_1_1*%
%TO.N,/VM_PROTECTED*%
X26000000Y-73000000D03*
D14*
%TO.P,J4,2,Pin_2_2*%
%TO.N,/DUMP_LOW*%
X26000000Y-68000000D03*
%TD*%
D10*
%TO.P,R30,1*%
%TO.N,/VM_PROTECTED*%
X52087500Y-80000000D03*
%TO.P,R30,2*%
%TO.N,/VREF_2V5*%
X53912500Y-80000000D03*
%TD*%
%TO.P,R3,1*%
%TO.N,/PWM_U_DRV*%
X83087500Y-51000000D03*
%TO.P,R3,2*%
%TO.N,/PWM_U*%
X84912500Y-51000000D03*
%TD*%
%TO.P,R15,1*%
%TO.N,/SCLK*%
X51087500Y-91000000D03*
%TO.P,R15,2*%
%TO.N,/SCLK_ENC*%
X52912500Y-91000000D03*
%TD*%
D22*
%TO.P,D1,1,K_1*%
%TO.N,/VM_PROTECTED*%
X65350000Y-40000000D03*
%TO.P,D1,2,A_2*%
%TO.N,/GATE_REV*%
X68650000Y-40000000D03*
%TD*%
D10*
%TO.P,R31,1*%
%TO.N,/VM_PROTECTED*%
X54087500Y-69000000D03*
%TO.P,R31,2*%
%TO.N,/OVP_SENSE*%
X55912500Y-69000000D03*
%TD*%
D11*
%TO.P,C13,1*%
%TO.N,/VM_ADC*%
X64137500Y-65000000D03*
%TO.P,C13,2*%
%TO.N,/GND*%
X65862500Y-65000000D03*
%TD*%
D12*
%TO.P,TP15,1,1_1*%
%TO.N,/MOSI*%
X78000000Y-96000000D03*
%TD*%
D23*
%TO.P,U1,1,NC_1*%
%TO.N,unconnected-(U1-NC-Pad1)*%
X69350000Y-52250000D03*
D24*
%TO.P,U1,2,AGND_2*%
%TO.N,/GND*%
X69350000Y-52750000D03*
%TO.P,U1,3,FB_BK_3*%
%TO.N,/FB_BK*%
X69350000Y-53250000D03*
%TO.P,U1,4,GND_BK_4*%
%TO.N,/GND*%
X69350000Y-53750000D03*
%TO.P,U1,5,SW_BK_5*%
%TO.N,/SW_BK*%
X69350000Y-54250000D03*
%TO.P,U1,6,CPL_6*%
%TO.N,/CPL*%
X69350000Y-54750000D03*
%TO.P,U1,7,CPH_7*%
%TO.N,/CPH*%
X69350000Y-55250000D03*
%TO.P,U1,8,CP_8*%
%TO.N,/CP*%
X69350000Y-55750000D03*
%TO.P,U1,9,VM_9*%
%TO.N,/VM_PROTECTED*%
X69350000Y-56250000D03*
%TO.P,U1,10,VM_10*%
X69350000Y-56750000D03*
%TO.P,U1,11,VM_11*%
X69350000Y-57250000D03*
%TO.P,U1,12,PGND_12*%
%TO.N,/GND*%
X69350000Y-57750000D03*
D25*
%TO.P,U1,13,OUTA_13*%
%TO.N,/MOTOR_U*%
X70250000Y-58650000D03*
%TO.P,U1,14,OUTA_14*%
X70750000Y-58650000D03*
%TO.P,U1,15,PGND_15*%
%TO.N,/GND*%
X71250000Y-58650000D03*
%TO.P,U1,16,OUTB_16*%
%TO.N,/MOTOR_V*%
X71750000Y-58650000D03*
%TO.P,U1,17,OUTB_17*%
X72250001Y-58650000D03*
%TO.P,U1,18,PGND_18*%
%TO.N,/GND*%
X72750001Y-58650000D03*
%TO.P,U1,19,OUTC_19*%
%TO.N,/MOTOR_W*%
X73250001Y-58650000D03*
%TO.P,U1,20,OUTC_20*%
X73750001Y-58650000D03*
D24*
%TO.P,U1,21,DRVOFF_21*%
%TO.N,/DRVOFF*%
X74650001Y-57750000D03*
%TO.P,U1,22,NFAULT_22*%
%TO.N,/NFAULT_DRV*%
X74650001Y-57250000D03*
%TO.P,U1,23,NSLEEP_23*%
%TO.N,/NSLEEP_DRV*%
X74650001Y-56750000D03*
%TO.P,U1,24,NC_24*%
%TO.N,unconnected-(U1-NC-Pad24)*%
X74650001Y-56250000D03*
%TO.P,U1,25,AVDD_25*%
%TO.N,/AVDD*%
X74650001Y-55750000D03*
%TO.P,U1,26,AGND_26*%
%TO.N,/GND*%
X74650001Y-55250000D03*
%TO.P,U1,27,INHA_27*%
%TO.N,/PWM_U_DRV*%
X74650001Y-54750000D03*
%TO.P,U1,28,INLA_28*%
%TO.N,/AVDD*%
X74650001Y-54250000D03*
%TO.P,U1,29,INHB_29*%
%TO.N,/PWM_V_DRV*%
X74650001Y-53750000D03*
%TO.P,U1,30,INLB_30*%
%TO.N,/AVDD*%
X74650001Y-53250000D03*
%TO.P,U1,31,INHC_31*%
%TO.N,/PWM_W_DRV*%
X74650001Y-52750000D03*
%TO.P,U1,32,INLC_32*%
%TO.N,/AVDD*%
X74650001Y-52250000D03*
D25*
%TO.P,U1,33,SDO_33*%
%TO.N,/SDO_DRV*%
X73750001Y-51350000D03*
%TO.P,U1,34,SDI_34*%
%TO.N,/MOSI_DRV*%
X73250001Y-51350000D03*
%TO.P,U1,35,SCLK_35*%
%TO.N,/SCLK_DRV*%
X72750001Y-51350000D03*
%TO.P,U1,36,NSCS_36*%
%TO.N,/CS_DRV_IC*%
X72250001Y-51350000D03*
%TO.P,U1,37,VREF_37*%
%TO.N,/VREF*%
X71750000Y-51350000D03*
%TO.P,U1,38,SOC_38*%
%TO.N,/SOC_RAW*%
X71250000Y-51350000D03*
%TO.P,U1,39,SOB_39*%
%TO.N,/SOB_RAW*%
X70750000Y-51350000D03*
%TO.P,U1,40,SOA_40*%
%TO.N,/SOA_RAW*%
X70250000Y-51350000D03*
D26*
%TO.P,U1,41,EPAD_41*%
%TO.N,/GND*%
X72000000Y-55000000D03*
%TD*%
D11*
%TO.P,C4,1*%
%TO.N,/VM_PROTECTED*%
X65137500Y-49000000D03*
%TO.P,C4,2*%
%TO.N,/GND*%
X66862500Y-49000000D03*
%TD*%
D12*
%TO.P,TP9,1,1_1*%
%TO.N,/PWM_V*%
X93000000Y-101000000D03*
%TD*%
D10*
%TO.P,R18,1*%
%TO.N,/CS_ENC*%
X63087500Y-91000000D03*
%TO.P,R18,2*%
%TO.N,/CS_ENC_IC*%
X64912500Y-91000000D03*
%TD*%
%TO.P,R28,1*%
%TO.N,/AVDD*%
X91087500Y-84000000D03*
%TO.P,R28,2*%
%TO.N,/VM_PRESENT_BASE*%
X92912500Y-84000000D03*
%TD*%
%TO.P,R25,1*%
%TO.N,/ARM_BASE*%
X98087500Y-96000000D03*
%TO.P,R25,2*%
%TO.N,/GND*%
X99912500Y-96000000D03*
%TD*%
%TO.P,R29,1*%
%TO.N,/VM_PRESENT_BASE*%
X95087500Y-84000000D03*
%TO.P,R29,2*%
%TO.N,/GND*%
X96912500Y-84000000D03*
%TD*%
D27*
%TO.P,Q2,1,B_1*%
%TO.N,/ARM_BASE*%
X103062500Y-95050000D03*
%TO.P,Q2,2,C_2*%
%TO.N,/ARM_COL*%
X103062500Y-96950000D03*
%TO.P,Q2,3,E_3*%
%TO.N,/GND*%
X104937500Y-96000000D03*
%TD*%
D12*
%TO.P,TP6,1,1_1*%
%TO.N,/SOB_RAW*%
X78000000Y-101000000D03*
%TD*%
D10*
%TO.P,R24,1*%
%TO.N,/MOTOR_ARM*%
X98087500Y-92000000D03*
%TO.P,R24,2*%
%TO.N,/ARM_BASE*%
X99912500Y-92000000D03*
%TD*%
D27*
%TO.P,Q3,1,G_1*%
%TO.N,/VREF_GATE*%
X90062500Y-77050000D03*
%TO.P,Q3,2,S_2*%
%TO.N,/3V3*%
X90062500Y-78950000D03*
%TO.P,Q3,3,D_3*%
%TO.N,/VREF*%
X91937500Y-78000000D03*
%TD*%
D10*
%TO.P,R6,1*%
%TO.N,/AVDD*%
X82087500Y-43000000D03*
%TO.P,R6,2*%
%TO.N,/NFAULT_DRV*%
X83912500Y-43000000D03*
%TD*%
D12*
%TO.P,TP2,1,1_1*%
%TO.N,/VM_PROTECTED*%
X58000000Y-101000000D03*
%TD*%
D28*
%TO.P,C5,1*%
%TO.N,/FB_BK*%
X70962499Y-45000000D03*
%TO.P,C5,2*%
%TO.N,/GND*%
X73037500Y-45000000D03*
%TD*%
D10*
%TO.P,R14,1*%
%TO.N,/SDO_DRV*%
X87087500Y-67000000D03*
%TO.P,R14,2*%
%TO.N,/MISO*%
X88912500Y-67000000D03*
%TD*%
D27*
%TO.P,U4,1,K_1*%
%TO.N,/VREF_2V5*%
X47062500Y-81050000D03*
%TO.P,U4,2,REF_2*%
X47062500Y-82950000D03*
%TO.P,U4,3,A_3*%
%TO.N,/GND*%
X48937500Y-82000000D03*
%TD*%
D10*
%TO.P,R17,1*%
%TO.N,/3V3*%
X59087500Y-91000000D03*
%TO.P,R17,2*%
%TO.N,/CS_ENC_IC*%
X60912500Y-91000000D03*
%TD*%
D12*
%TO.P,TP14,1,1_1*%
%TO.N,/SCLK*%
X73000000Y-96000000D03*
%TD*%
D10*
%TO.P,R2,1*%
%TO.N,/SW_BK*%
X67087500Y-43000000D03*
%TO.P,R2,2*%
%TO.N,/FB_BK*%
X68912500Y-43000000D03*
%TD*%
D29*
%TO.P,U2,1,3V3_1*%
%TO.N,/3V3*%
X101570000Y-43950000D03*
D30*
%TO.P,U2,2,RST_N_2*%
%TO.N,unconnected-(U2-RST_N-Pad2)*%
X101570000Y-46490000D03*
%TO.P,U2,3,GPIO4_ADC4_3*%
%TO.N,unconnected-(U2-GPIO4_ADC4-Pad3)*%
X101570000Y-49030000D03*
%TO.P,U2,4,GPIO5_ADC5_4*%
%TO.N,unconnected-(U2-GPIO5_ADC5-Pad4)*%
X101570000Y-51570000D03*
%TO.P,U2,5,GPIO6_ADC6_5*%
%TO.N,/SCLK*%
X101570000Y-54110000D03*
%TO.P,U2,6,GPIO7_6*%
%TO.N,/MOSI*%
X101570000Y-56650000D03*
%TO.P,U2,7,GPIO0_ADC0_7*%
%TO.N,/I_A*%
X101570000Y-59190000D03*
%TO.P,U2,8,GPIO1_ADC1_8*%
%TO.N,/I_B*%
X101570000Y-61730000D03*
%TO.P,U2,9,GPIO8_STRAP_LED_9*%
%TO.N,unconnected-(U2-GPIO8_STRAP_LED-Pad9)*%
X101570000Y-64270000D03*
%TO.P,U2,10,GPIO10_10*%
%TO.N,/MOTOR_ARM*%
X101570000Y-66810000D03*
%TO.P,U2,11,GPIO11_11*%
%TO.N,unconnected-(U2-GPIO11-Pad11)*%
X101570000Y-69350000D03*
%TO.P,U2,12,GPIO2_ADC2_12*%
%TO.N,/I_C*%
X101570000Y-71890000D03*
%TO.P,U2,13,GPIO3_ADC3_13*%
%TO.N,/VM_ADC*%
X101570000Y-74430000D03*
%TO.P,U2,14,5V_14*%
%TO.N,unconnected-(U2-5V-Pad14)*%
X101570000Y-76970000D03*
%TO.P,U2,15,GND_15*%
%TO.N,/GND*%
X101570000Y-79510000D03*
%TO.P,U2,16,NC_16*%
%TO.N,unconnected-(U2-NC-Pad16)*%
X101570000Y-82050000D03*
%TO.P,U2,17,GND_17*%
%TO.N,/GND*%
X124430000Y-43950000D03*
%TO.P,U2,18,GPIO16_TX_18*%
%TO.N,/NSLEEP*%
X124430000Y-46490000D03*
%TO.P,U2,19,GPIO17_RX_19*%
%TO.N,/NFAULT*%
X124430000Y-49030000D03*
%TO.P,U2,20,GPIO15_STRAP_20*%
%TO.N,unconnected-(U2-GPIO15_STRAP-Pad20)*%
X124430000Y-51570000D03*
%TO.P,U2,21,GPIO23_21*%
%TO.N,/CS_ENC*%
X124430000Y-54110000D03*
%TO.P,U2,22,GPIO22_22*%
%TO.N,/CS_DRV*%
X124430000Y-56650000D03*
%TO.P,U2,23,GPIO21_23*%
%TO.N,/MISO*%
X124430000Y-59190000D03*
%TO.P,U2,24,GPIO20_24*%
%TO.N,/PWM_W*%
X124430000Y-61730000D03*
%TO.P,U2,25,GPIO19_25*%
%TO.N,/PWM_V*%
X124430000Y-64270000D03*
%TO.P,U2,26,GPIO18_26*%
%TO.N,/PWM_U*%
X124430000Y-66810000D03*
%TO.P,U2,27,GPIO9_STRAP_27*%
%TO.N,unconnected-(U2-GPIO9_STRAP-Pad27)*%
X124430000Y-69350000D03*
%TO.P,U2,28,GND_28*%
%TO.N,/GND*%
X124430000Y-71890000D03*
%TO.P,U2,29,GPIO13_USB_DP_29*%
%TO.N,unconnected-(U2-GPIO13_USB_DP-Pad29)*%
X124430000Y-74430000D03*
%TO.P,U2,30,GPIO12_USB_DM_30*%
%TO.N,unconnected-(U2-GPIO12_USB_DM-Pad30)*%
X124430000Y-76970000D03*
%TO.P,U2,31,GND_31*%
%TO.N,/GND*%
X124430000Y-79510000D03*
%TO.P,U2,32,NC_32*%
%TO.N,unconnected-(U2-NC-Pad32)*%
X124430000Y-82050000D03*
%TD*%
D10*
%TO.P,R26,1*%
%TO.N,/AVDD*%
X98087500Y-100000000D03*
%TO.P,R26,2*%
%TO.N,/DRVOFF*%
X99912500Y-100000000D03*
%TD*%
%TO.P,R16,1*%
%TO.N,/MISO_ENC*%
X55087500Y-91000000D03*
%TO.P,R16,2*%
%TO.N,/MISO*%
X56912500Y-91000000D03*
%TD*%
D27*
%TO.P,Q4,1,B_1*%
%TO.N,/VM_PRESENT_BASE*%
X94062500Y-77050000D03*
%TO.P,Q4,2,C_2*%
%TO.N,/VREF_GATE*%
X94062500Y-78950000D03*
%TO.P,Q4,3,E_3*%
%TO.N,/GND*%
X95937500Y-78000000D03*
%TD*%
D10*
%TO.P,R1,1*%
%TO.N,/GATE_REV*%
X49087500Y-45000000D03*
%TO.P,R1,2*%
%TO.N,/GND*%
X50912500Y-45000000D03*
%TD*%
%TO.P,R4,1*%
%TO.N,/PWM_V_DRV*%
X83087500Y-54000000D03*
%TO.P,R4,2*%
%TO.N,/PWM_V*%
X84912500Y-54000000D03*
%TD*%
D12*
%TO.P,F1,1*%
%TO.N,/VM_IN*%
X42000000Y-28000000D03*
%TO.P,F1,2*%
%TO.N,/VM_FUSED*%
X64500000Y-28000000D03*
%TD*%
%TO.P,TP18,1,1_1*%
%TO.N,/CS_ENC*%
X93000000Y-96000000D03*
%TD*%
D15*
%TO.P,H4,*%
%TO.N,*%
X125000000Y-100000000D03*
%TD*%
D10*
%TO.P,R20,1*%
%TO.N,/SOB_RAW*%
X75087500Y-79000000D03*
%TO.P,R20,2*%
%TO.N,/I_B*%
X76912500Y-79000000D03*
%TD*%
D31*
%TO.P,SW1,1,A_1*%
%TO.N,/DRVOFF*%
X112300000Y-98000000D03*
%TO.P,SW1,2,B_2*%
%TO.N,/ARM_COL*%
X115700000Y-98000000D03*
%TD*%
D12*
%TO.P,TP1,1,1_1*%
%TO.N,/VM_IN*%
X53000000Y-101000000D03*
%TD*%
D10*
%TO.P,R32,1*%
%TO.N,/OVP_SENSE*%
X54087500Y-72000000D03*
%TO.P,R32,2*%
%TO.N,/GND*%
X55912500Y-72000000D03*
%TD*%
D32*
%TO.P,U3,1*%
%TO.N,/DUMP_GATE*%
X45424999Y-71095000D03*
%TO.P,U3,2,-_2*%
%TO.N,/VREF_2V5*%
X45424999Y-72365000D03*
%TO.P,U3,3,+_3*%
%TO.N,/OVP_SENSE*%
X45424999Y-73635000D03*
%TO.P,U3,4,V-_4*%
%TO.N,/GND*%
X45424999Y-74905000D03*
%TO.P,U3,5,+_5*%
X50574999Y-74905000D03*
%TO.P,U3,6,-_6*%
X50574999Y-73635000D03*
%TO.P,U3,7*%
%TO.N,unconnected-(U3-Pad7)*%
X50574999Y-72365000D03*
%TO.P,U3,8,V+_8*%
%TO.N,/VM_PROTECTED*%
X50574999Y-71095000D03*
%TD*%
D12*
%TO.P,TP3,1,1_1*%
%TO.N,/GND*%
X63000000Y-101000000D03*
%TD*%
D10*
%TO.P,R12,1*%
%TO.N,/CS_DRV_IC*%
X91087500Y-64000000D03*
%TO.P,R12,2*%
%TO.N,/CS_DRV*%
X92912500Y-64000000D03*
%TD*%
%TO.P,R23,1*%
%TO.N,/VM_ADC*%
X60087500Y-65000000D03*
%TO.P,R23,2*%
%TO.N,/GND*%
X61912500Y-65000000D03*
%TD*%
%TO.P,R9,1*%
%TO.N,/NSLEEP_DRV*%
X86087500Y-60000000D03*
%TO.P,R9,2*%
%TO.N,/NSLEEP*%
X87912500Y-60000000D03*
%TD*%
D12*
%TO.P,TP10,1,1_1*%
%TO.N,/PWM_W*%
X53000000Y-96000000D03*
%TD*%
D20*
%TO.P,C1,1*%
%TO.N,/VM_PROTECTED*%
X77000000Y-31000000D03*
D21*
%TO.P,C1,2*%
%TO.N,/GND*%
X82000000Y-31000000D03*
%TD*%
D33*
%TO.P,D2,1,A1_1*%
%TO.N,/VM_PROTECTED*%
X54500000Y-47000000D03*
%TO.P,D2,2,A2_2*%
%TO.N,/GND*%
X59500000Y-47000000D03*
%TD*%
D10*
%TO.P,R7,1*%
%TO.N,/NFAULT_DRV*%
X86087500Y-43000000D03*
%TO.P,R7,2*%
%TO.N,/NFAULT*%
X87912500Y-43000000D03*
%TD*%
%TO.P,R34,1*%
%TO.N,/VM_PROTECTED*%
X44087500Y-67000000D03*
%TO.P,R34,2*%
%TO.N,/DUMP_GATE*%
X45912500Y-67000000D03*
%TD*%
D34*
%TO.N,/MOTOR_ARM*%
X97930700Y-91002200D03*
%TO.N,/SOB_RAW*%
X75669800Y-79983800D03*
X70527700Y-50528200D03*
%TO.N,/CS_DRV_IC*%
X80315100Y-49617200D03*
X89699900Y-65256600D03*
%TO.N,/PWM_V_DRV*%
X75917800Y-53750400D03*
X80890000Y-55060900D03*
%TO.N,/FB_BK*%
X69121600Y-45000000D03*
X68061300Y-52585200D03*
%TO.N,/VREF_2V5*%
X46820700Y-72365000D03*
X45216400Y-83065000D03*
%TO.N,/SDO_DRV*%
X78031600Y-51350000D03*
X84393500Y-66010900D03*
%TO.N,/DUMP_LOW*%
X34201300Y-73000000D03*
%TO.N,/SCLK*%
X75191100Y-65437000D03*
%TO.N,/SCLK_DRV*%
X78818300Y-64000000D03*
X73401900Y-50129000D03*
%TO.N,/CS_ENC_IC*%
X59976100Y-92560700D03*
%TO.N,/MISO*%
X90057400Y-67742700D03*
%TO.N,/VREF*%
X89631500Y-75899600D03*
X89411900Y-73389000D03*
X82007300Y-73389000D03*
X79513800Y-59034600D03*
X71750000Y-50008000D03*
%TO.N,/AVDD*%
X78167300Y-54346900D03*
X82621600Y-84000000D03*
X77650300Y-55750000D03*
%TO.N,/CP*%
X66851900Y-56113500D03*
X65341400Y-57203900D03*
%TO.N,/CS_DRV*%
X92695900Y-68000600D03*
%TO.N,/CPH*%
X66720300Y-52607200D03*
X67766300Y-55446300D03*
%TO.N,/I_B*%
X88166600Y-78215400D03*
%TO.N,/3V3*%
X61702100Y-92079400D03*
X91982700Y-66201200D03*
X82922500Y-77608600D03*
%TO.N,/NSLEEP*%
X92931100Y-59038200D03*
X76434700Y-94313700D03*
%TO.N,/NSLEEP_DRV*%
X75451900Y-56628200D03*
X77951400Y-61947500D03*
%TO.N,/PWM_W*%
X67239900Y-67073100D03*
%TO.N,/PWM_W_DRV*%
X81139400Y-56440800D03*
X76981600Y-52869700D03*
%TO.N,/MOSI_DRV*%
X80265800Y-50745400D03*
X87087500Y-63016200D03*
%TO.N,/VM_PROTECTED*%
X52815300Y-80825700D03*
X51992500Y-71095000D03*
X63048400Y-47844700D03*
X61126000Y-59436000D03*
%TO.N,/NFAULT*%
X85356000Y-44538000D03*
%TO.N,/MOTOR_W*%
X45216400Y-50432800D03*
X73250000Y-59452800D03*
%TO.N,/MOTOR_V*%
X72356800Y-59455400D03*
X65169800Y-51917900D03*
%TO.N,/PWM_U*%
X123679700Y-50355900D03*
%TO.N,/DRVOFF*%
X74488400Y-58833900D03*
%TO.N,/SOA_RAW*%
X74709800Y-76982800D03*
X69682500Y-50782500D03*
%TO.N,/GND*%
X80904600Y-46000000D03*
X59605100Y-73767900D03*
X62967900Y-64758000D03*
%TO.N,/I_A*%
X87522100Y-77003500D03*
%TO.N,/I_C*%
X82796900Y-69438000D03*
X79543400Y-81021900D03*
%TO.N,/SOC_RAW*%
X76041100Y-83401600D03*
X75000400Y-49015500D03*
%TD*%
%TO.N,/MOTOR_ARM*%
D35*
X98087500Y-91159000D02*
X97930700Y-91002200D01*
X98087500Y-92000000D02*
X98087500Y-91159000D01*
%TO.N,/ARM_COL*%
X103164200Y-96848300D02*
X103062500Y-96950000D01*
X113796600Y-96848300D02*
X103164200Y-96848300D01*
X114948300Y-98000000D02*
X113796600Y-96848300D01*
X115700000Y-98000000D02*
X114948300Y-98000000D01*
%TO.N,/ARM_BASE*%
X99912500Y-92000000D02*
X99912500Y-95050000D01*
X103062500Y-95050000D02*
X99912500Y-95050000D01*
X99037500Y-95050000D02*
X98087500Y-96000000D01*
X99912500Y-95050000D02*
X99037500Y-95050000D01*
%TO.N,/VM_PRESENT_BASE*%
X94062500Y-77562400D02*
X94062500Y-77050000D01*
X95176600Y-78676500D02*
X94062500Y-77562400D01*
X95176600Y-83910900D02*
X95176600Y-78676500D01*
X95087500Y-84000000D02*
X95176600Y-83910900D01*
X95087500Y-84000000D02*
X92912500Y-84000000D01*
%TO.N,/CS_ENC*%
X64472900Y-92385400D02*
X63087500Y-91000000D01*
X89385400Y-92385400D02*
X64472900Y-92385400D01*
X93000000Y-96000000D02*
X89385400Y-92385400D01*
%TO.N,/PWM_V*%
X125671900Y-63028100D02*
X124430000Y-64270000D01*
X125671900Y-58716900D02*
X125671900Y-63028100D01*
X124875000Y-57920000D02*
X125671900Y-58716900D01*
X122116500Y-57920000D02*
X124875000Y-57920000D01*
X117086500Y-52890000D02*
X122116500Y-57920000D01*
X86022500Y-52890000D02*
X117086500Y-52890000D01*
X84912500Y-54000000D02*
X86022500Y-52890000D01*
%TO.N,/SOB_RAW*%
X75669800Y-79582300D02*
X75669800Y-79983800D01*
X75087500Y-79000000D02*
X75669800Y-79582300D01*
X70750000Y-50750500D02*
X70527700Y-50528200D01*
X70750000Y-51350000D02*
X70750000Y-50750500D01*
%TO.N,/CS_DRV_IC*%
X89830900Y-65256600D02*
X91087500Y-64000000D01*
X89699900Y-65256600D02*
X89830900Y-65256600D01*
X74751300Y-49617200D02*
X80315100Y-49617200D01*
X74661200Y-49527100D02*
X74751300Y-49617200D01*
X73099600Y-49527100D02*
X74661200Y-49527100D01*
X72250000Y-50376700D02*
X73099600Y-49527100D01*
X72250000Y-51350000D02*
X72250000Y-50376700D01*
%TO.N,/PWM_V_DRV*%
X75917400Y-53750000D02*
X75917800Y-53750400D01*
X74650000Y-53750000D02*
X75917400Y-53750000D01*
X82026600Y-55060900D02*
X80890000Y-55060900D01*
X83087500Y-54000000D02*
X82026600Y-55060900D01*
%TO.N,/NFAULT_DRV*%
X86087500Y-43000000D02*
X83912500Y-43000000D01*
X83912500Y-51439400D02*
X83912500Y-43000000D01*
X80892800Y-54459100D02*
X83912500Y-51439400D01*
X80490000Y-54459100D02*
X80892800Y-54459100D01*
X77699100Y-57250000D02*
X80490000Y-54459100D01*
X74650000Y-57250000D02*
X77699100Y-57250000D01*
%TO.N,/FB_BK*%
X68962500Y-43000000D02*
X70962500Y-45000000D01*
X68912500Y-43000000D02*
X68962500Y-43000000D01*
X68726100Y-53250000D02*
X69350000Y-53250000D01*
X68061300Y-52585200D02*
X68726100Y-53250000D01*
X70962500Y-45000000D02*
X69121600Y-45000000D01*
%TO.N,/PWM_U_DRV*%
X79138900Y-54948600D02*
X83087500Y-51000000D01*
X77837400Y-54948600D02*
X79138900Y-54948600D01*
X77642600Y-54753800D02*
X77837400Y-54948600D01*
X74653800Y-54753800D02*
X77642600Y-54753800D01*
X74650000Y-54750000D02*
X74653800Y-54753800D01*
%TO.N,/VREF_2V5*%
X46947500Y-83065000D02*
X47062500Y-82950000D01*
X45216400Y-83065000D02*
X46947500Y-83065000D01*
X53103900Y-79191400D02*
X53912500Y-80000000D01*
X48921100Y-79191400D02*
X53103900Y-79191400D01*
X47062500Y-81050000D02*
X48921100Y-79191400D01*
X45425000Y-72365000D02*
X46820700Y-72365000D01*
X49441200Y-82950000D02*
X47062500Y-82950000D01*
X49981900Y-82409300D02*
X49441200Y-82950000D01*
X49981900Y-81666000D02*
X49981900Y-82409300D01*
X49365900Y-81050000D02*
X49981900Y-81666000D01*
X47062500Y-81050000D02*
X49365900Y-81050000D01*
%TO.N,/SDO_DRV*%
X84912500Y-66529900D02*
X84912500Y-67000000D01*
X84393500Y-66010900D02*
X84912500Y-66529900D01*
X87087500Y-67000000D02*
X84912500Y-67000000D01*
X73750000Y-51350000D02*
X78031600Y-51350000D01*
%TO.N,/DUMP_LOW*%
X34201300Y-73000000D02*
X39260000Y-73000000D01*
%TO.N,/SCLK*%
X70731900Y-93731900D02*
X73000000Y-96000000D01*
X58374100Y-93731900D02*
X70731900Y-93731900D01*
X56000000Y-91357800D02*
X58374100Y-93731900D01*
X56000000Y-90651100D02*
X56000000Y-91357800D01*
X55516000Y-90167100D02*
X56000000Y-90651100D01*
X51920400Y-90167100D02*
X55516000Y-90167100D01*
X51087500Y-91000000D02*
X51920400Y-90167100D01*
X98731700Y-54110000D02*
X101570000Y-54110000D01*
X90938200Y-61903500D02*
X98731700Y-54110000D01*
X87009000Y-61903500D02*
X90938200Y-61903500D01*
X84912500Y-64000000D02*
X87009000Y-61903500D01*
X83475500Y-65437000D02*
X75191100Y-65437000D01*
X84912500Y-64000000D02*
X83475500Y-65437000D01*
%TO.N,/SCLK_DRV*%
X72750000Y-50780900D02*
X73401900Y-50129000D01*
X72750000Y-51350000D02*
X72750000Y-50780900D01*
X83087500Y-64000000D02*
X78818300Y-64000000D01*
%TO.N,/CS_ENC_IC*%
X64119200Y-90206700D02*
X64912500Y-91000000D01*
X61705800Y-90206700D02*
X64119200Y-90206700D01*
X60912500Y-91000000D02*
X61705800Y-90206700D01*
X60143700Y-92728300D02*
X59976100Y-92560700D01*
X61919100Y-92728300D02*
X60143700Y-92728300D01*
X62313500Y-92333900D02*
X61919100Y-92728300D01*
X62313500Y-91814300D02*
X62313500Y-92333900D01*
X61499200Y-91000000D02*
X62313500Y-91814300D01*
X60912500Y-91000000D02*
X61499200Y-91000000D01*
%TO.N,/MISO_ENC*%
X53818400Y-92269100D02*
X55087500Y-91000000D01*
X47350900Y-92269100D02*
X53818400Y-92269100D01*
X42620000Y-97000000D02*
X47350900Y-92269100D01*
%TO.N,/SCLK_ENC*%
X52045100Y-91867400D02*
X52912500Y-91000000D01*
X45212600Y-91867400D02*
X52045100Y-91867400D01*
X40080000Y-97000000D02*
X45212600Y-91867400D01*
%TO.N,/MISO*%
X88912500Y-67000000D02*
X89822600Y-67000000D01*
X80179700Y-93179700D02*
X83000000Y-96000000D01*
X59092200Y-93179700D02*
X80179700Y-93179700D01*
X56912500Y-91000000D02*
X59092200Y-93179700D01*
X92000000Y-64822600D02*
X89822600Y-67000000D01*
X92000000Y-63649900D02*
X92000000Y-64822600D01*
X92743200Y-62906700D02*
X92000000Y-63649900D01*
X120713300Y-62906700D02*
X92743200Y-62906700D01*
X124430000Y-59190000D02*
X120713300Y-62906700D01*
X90057400Y-67234800D02*
X90057400Y-67742700D01*
X89822600Y-67000000D02*
X90057400Y-67234800D01*
%TO.N,/VM_ADC*%
X60087500Y-63825000D02*
X61912500Y-62000000D01*
X60087500Y-65000000D02*
X60087500Y-63825000D01*
X60899700Y-65812200D02*
X60087500Y-65000000D01*
X63325300Y-65812200D02*
X60899700Y-65812200D01*
X64137500Y-65000000D02*
X63325300Y-65812200D01*
X97439800Y-70299800D02*
X101570000Y-74430000D01*
X69437300Y-70299800D02*
X97439800Y-70299800D01*
X64137500Y-65000000D02*
X69437300Y-70299800D01*
%TO.N,/VREF*%
X90321700Y-75899600D02*
X89631500Y-75899600D01*
X91937500Y-77515400D02*
X90321700Y-75899600D01*
X91937500Y-78000000D02*
X91937500Y-77515400D01*
X78102900Y-59034600D02*
X77137500Y-60000000D01*
X79513800Y-59034600D02*
X78102900Y-59034600D01*
X89411900Y-73389000D02*
X82007300Y-73389000D01*
X71750000Y-50008000D02*
X71750000Y-51350000D01*
%TO.N,/AVDD*%
X95532500Y-88445000D02*
X91087500Y-84000000D01*
X95532500Y-97445000D02*
X95532500Y-88445000D01*
X98087500Y-100000000D02*
X95532500Y-97445000D01*
X77611000Y-52250000D02*
X74650000Y-52250000D01*
X91087500Y-84000000D02*
X82621600Y-84000000D01*
X78933600Y-45203900D02*
X81213000Y-45203900D01*
X78137500Y-46000000D02*
X78933600Y-45203900D01*
X81213000Y-43874500D02*
X81213000Y-45203900D01*
X82087500Y-43000000D02*
X81213000Y-43874500D01*
X79621100Y-52250000D02*
X77611000Y-52250000D01*
X81523500Y-50347600D02*
X79621100Y-52250000D01*
X81523500Y-45514400D02*
X81523500Y-50347600D01*
X81213000Y-45203900D02*
X81523500Y-45514400D01*
X77820000Y-53999600D02*
X78167300Y-54346900D01*
X76519500Y-53999600D02*
X77820000Y-53999600D01*
X76167000Y-54352100D02*
X76519500Y-53999600D01*
X75667100Y-54352100D02*
X76167000Y-54352100D01*
X75565000Y-54250000D02*
X75667100Y-54352100D01*
X74650000Y-54250000D02*
X75565000Y-54250000D01*
X76519500Y-53999600D02*
X76519500Y-53499900D01*
X77233300Y-53499900D02*
X76519500Y-53499900D01*
X77611000Y-53122200D02*
X77233300Y-53499900D01*
X77611000Y-52250000D02*
X77611000Y-53122200D01*
X75565800Y-53250000D02*
X74650000Y-53250000D01*
X75667100Y-53148700D02*
X75565800Y-53250000D01*
X76168300Y-53148700D02*
X75667100Y-53148700D01*
X76519500Y-53499900D02*
X76168300Y-53148700D01*
X74650000Y-55750000D02*
X77650300Y-55750000D01*
%TO.N,/VM_FUSED*%
X59260000Y-33240000D02*
X59260000Y-40000000D01*
X64500000Y-28000000D02*
X59260000Y-33240000D01*
%TO.N,/GATE_REV*%
X51507800Y-39172200D02*
X52960000Y-37720000D01*
X51507800Y-43640400D02*
X51507800Y-39172200D01*
X65009600Y-43640400D02*
X51507800Y-43640400D01*
X68650000Y-40000000D02*
X65009600Y-43640400D01*
X50447100Y-43640400D02*
X49087500Y-45000000D01*
X51507800Y-43640400D02*
X50447100Y-43640400D01*
%TO.N,/CP*%
X65341400Y-57203900D02*
X66137500Y-58000000D01*
X68401900Y-56113500D02*
X66851900Y-56113500D01*
X68765400Y-55750000D02*
X68401900Y-56113500D01*
X69350000Y-55750000D02*
X68765400Y-55750000D01*
%TO.N,/CS_DRV*%
X92912500Y-67784000D02*
X92695900Y-68000600D01*
X92912500Y-67000000D02*
X92912500Y-67784000D01*
X92912500Y-67000000D02*
X92912500Y-64000000D01*
%TO.N,/VREF_GATE*%
X90062500Y-77512500D02*
X90062500Y-77050000D01*
X91500000Y-78950000D02*
X90062500Y-77512500D01*
X94062500Y-78950000D02*
X91500000Y-78950000D01*
X89931100Y-77050000D02*
X90062500Y-77050000D01*
X87912500Y-75031400D02*
X89931100Y-77050000D01*
X87912500Y-75000000D02*
X87912500Y-75031400D01*
%TO.N,/OVP_SENSE*%
X53087500Y-73000000D02*
X54087500Y-72000000D01*
X46060000Y-73000000D02*
X53087500Y-73000000D01*
X45425000Y-73635000D02*
X46060000Y-73000000D01*
X55912500Y-71180300D02*
X55912500Y-69000000D01*
X54907200Y-71180300D02*
X55912500Y-71180300D01*
X54087500Y-72000000D02*
X54907200Y-71180300D01*
X56733900Y-74178600D02*
X55912500Y-75000000D01*
X56733900Y-71544300D02*
X56733900Y-74178600D01*
X56369900Y-71180300D02*
X56733900Y-71544300D01*
X55912500Y-71180300D02*
X56369900Y-71180300D01*
%TO.N,/DUMP_GATE*%
X45425000Y-71095000D02*
X45425000Y-69738600D01*
X45425000Y-67487500D02*
X45912500Y-67000000D01*
X45425000Y-69738600D02*
X45425000Y-67487500D01*
X45148200Y-71095000D02*
X45425000Y-71095000D01*
X44228800Y-72014400D02*
X45148200Y-71095000D01*
X44228800Y-73974500D02*
X44228800Y-72014400D01*
X44524300Y-74270000D02*
X44228800Y-73974500D01*
X53357500Y-74270000D02*
X44524300Y-74270000D01*
X54087500Y-75000000D02*
X53357500Y-74270000D01*
X36613500Y-81000000D02*
X39350000Y-81000000D01*
X31498400Y-75884900D02*
X36613500Y-81000000D01*
X31498400Y-72181600D02*
X31498400Y-75884900D01*
X32960000Y-70720000D02*
X31498400Y-72181600D01*
X33941400Y-69738600D02*
X45425000Y-69738600D01*
X32960000Y-70720000D02*
X33941400Y-69738600D01*
%TO.N,/CPH*%
X67962600Y-55250000D02*
X67766300Y-55446300D01*
X69350000Y-55250000D02*
X67962600Y-55250000D01*
X66720300Y-52857800D02*
X66720300Y-52607200D01*
X67862500Y-54000000D02*
X66720300Y-52857800D01*
%TO.N,/CPL*%
X68902600Y-54750000D02*
X69350000Y-54750000D01*
X68828000Y-54824600D02*
X68902600Y-54750000D01*
X66962100Y-54824600D02*
X68828000Y-54824600D01*
X66137500Y-54000000D02*
X66962100Y-54824600D01*
%TO.N,/I_B*%
X79137500Y-79000000D02*
X76912500Y-79000000D01*
X79922100Y-78215400D02*
X88166600Y-78215400D01*
X79137500Y-79000000D02*
X79922100Y-78215400D01*
%TO.N,/3V3*%
X59567700Y-91000000D02*
X59602100Y-91034400D01*
X59087500Y-91000000D02*
X59567700Y-91000000D01*
X85550000Y-78950000D02*
X90062500Y-78950000D01*
X79093100Y-85406900D02*
X85550000Y-78950000D01*
X65229600Y-85406900D02*
X79093100Y-85406900D01*
X59602100Y-91034400D02*
X65229600Y-85406900D01*
X91886300Y-66201200D02*
X91087500Y-67000000D01*
X91982700Y-66201200D02*
X91886300Y-66201200D01*
X60647100Y-92079400D02*
X61702100Y-92079400D01*
X59602100Y-91034400D02*
X60647100Y-92079400D01*
X66197500Y-102802500D02*
X68000000Y-101000000D01*
X41666300Y-102802500D02*
X66197500Y-102802500D01*
X36151700Y-97287900D02*
X41666300Y-102802500D01*
X36151700Y-97000000D02*
X36151700Y-97287900D01*
X35000000Y-97000000D02*
X36151700Y-97000000D01*
X86429800Y-75000000D02*
X86087500Y-75000000D01*
X88157000Y-76727200D02*
X86429800Y-75000000D01*
X88157000Y-77608600D02*
X88157000Y-76727200D01*
X88721100Y-77608600D02*
X88157000Y-77608600D01*
X90062500Y-78950000D02*
X88721100Y-77608600D01*
X88157000Y-77608600D02*
X82922500Y-77608600D01*
X84433500Y-68346000D02*
X83087500Y-67000000D01*
X90306600Y-68346000D02*
X84433500Y-68346000D01*
X91087500Y-67565100D02*
X90306600Y-68346000D01*
X91087500Y-67000000D02*
X91087500Y-67565100D01*
%TO.N,/NSLEEP*%
X88874300Y-59038200D02*
X87912500Y-60000000D01*
X92931100Y-59038200D02*
X88874300Y-59038200D01*
X74801700Y-95946700D02*
X76434700Y-94313700D01*
X74801700Y-96813700D02*
X74801700Y-95946700D01*
X73803100Y-97812300D02*
X74801700Y-96813700D01*
X69812300Y-97812300D02*
X73803100Y-97812300D01*
X68000000Y-96000000D02*
X69812300Y-97812300D01*
%TO.N,/NSLEEP_DRV*%
X82905500Y-60818000D02*
X82087500Y-60000000D01*
X85269500Y-60818000D02*
X82905500Y-60818000D01*
X86087500Y-60000000D02*
X85269500Y-60818000D01*
X80140000Y-61947500D02*
X77951400Y-61947500D01*
X82087500Y-60000000D02*
X80140000Y-61947500D01*
X75330100Y-56750000D02*
X75451900Y-56628200D01*
X74650000Y-56750000D02*
X75330100Y-56750000D01*
%TO.N,/PWM_W*%
X74589400Y-65187900D02*
X74589400Y-67073100D01*
X74942000Y-64835300D02*
X74589400Y-65187900D01*
X76147000Y-64835300D02*
X74942000Y-64835300D01*
X78619800Y-62362500D02*
X76147000Y-64835300D01*
X85041000Y-62362500D02*
X78619800Y-62362500D01*
X86882900Y-60520600D02*
X85041000Y-62362500D01*
X86882900Y-58970400D02*
X86882900Y-60520600D01*
X84912500Y-57000000D02*
X86882900Y-58970400D01*
X76282500Y-68766200D02*
X74589400Y-67073100D01*
X93161300Y-68766200D02*
X76282500Y-68766200D01*
X93846600Y-68080900D02*
X93161300Y-68766200D01*
X118079100Y-68080900D02*
X93846600Y-68080900D01*
X124430000Y-61730000D02*
X118079100Y-68080900D01*
X74589400Y-67073100D02*
X67239900Y-67073100D01*
%TO.N,/PWM_W_DRV*%
X82528300Y-56440800D02*
X81139400Y-56440800D01*
X83087500Y-57000000D02*
X82528300Y-56440800D01*
X76858900Y-52747000D02*
X76981600Y-52869700D01*
X74653000Y-52747000D02*
X76858900Y-52747000D01*
X74650000Y-52750000D02*
X74653000Y-52747000D01*
%TO.N,/MOSI*%
X96830400Y-56650000D02*
X101570000Y-56650000D01*
X89480400Y-64000000D02*
X96830400Y-56650000D01*
X88912500Y-64000000D02*
X89480400Y-64000000D01*
%TO.N,/MOSI_DRV*%
X73477700Y-50745400D02*
X80265800Y-50745400D01*
X73250000Y-50973100D02*
X73477700Y-50745400D01*
X73250000Y-51350000D02*
X73250000Y-50973100D01*
X87087500Y-63016200D02*
X87087500Y-64000000D01*
%TO.N,/VM_PROTECTED*%
X56500000Y-49000000D02*
X54500000Y-47000000D01*
X65137500Y-49000000D02*
X56500000Y-49000000D01*
X69350000Y-57250000D02*
X69350000Y-56750000D01*
X77000000Y-31000000D02*
X77000000Y-32314200D01*
X88685800Y-32314200D02*
X77000000Y-32314200D01*
X90000000Y-31000000D02*
X88685800Y-32314200D01*
X52087500Y-80097900D02*
X52087500Y-80000000D01*
X52815300Y-80825700D02*
X52087500Y-80097900D01*
X54087500Y-66222200D02*
X54087500Y-69000000D01*
X44865300Y-66222200D02*
X54087500Y-66222200D01*
X44087500Y-67000000D02*
X44865300Y-66222200D01*
X50575000Y-71095000D02*
X51992500Y-71095000D01*
X51992500Y-71095000D02*
X54087500Y-69000000D01*
X69350000Y-56750000D02*
X69350000Y-56250000D01*
X53510500Y-42830500D02*
X52960000Y-42280000D01*
X55709100Y-42830500D02*
X53510500Y-42830500D01*
X55709100Y-42830600D02*
X55709100Y-42830500D01*
X56109200Y-43230700D02*
X55709100Y-42830600D01*
X62376200Y-43230700D02*
X56109200Y-43230700D01*
X62400700Y-43206200D02*
X62376200Y-43230700D01*
X62450100Y-43206200D02*
X62400700Y-43206200D01*
X65350000Y-40306300D02*
X62450100Y-43206200D01*
X65350000Y-40000000D02*
X65350000Y-40306300D01*
X32000000Y-67000000D02*
X44087500Y-67000000D01*
X26000000Y-73000000D02*
X32000000Y-67000000D01*
X73035800Y-32314200D02*
X65350000Y-40000000D01*
X77000000Y-32314200D02*
X73035800Y-32314200D01*
X65137500Y-49000000D02*
X65137500Y-47000000D01*
X58309700Y-62000000D02*
X54087500Y-66222200D01*
X60087500Y-62000000D02*
X58309700Y-62000000D01*
X60087500Y-60474500D02*
X60087500Y-62000000D01*
X61126000Y-59436000D02*
X60087500Y-60474500D01*
X64292800Y-47844700D02*
X63048400Y-47844700D01*
X65137500Y-47000000D02*
X64292800Y-47844700D01*
X67787500Y-57909300D02*
X67862500Y-57909300D01*
X65246100Y-55367900D02*
X67787500Y-57909300D01*
X65246100Y-52692500D02*
X65246100Y-55367900D01*
X65771500Y-52167100D02*
X65246100Y-52692500D01*
X65771500Y-49634000D02*
X65771500Y-52167100D01*
X65137500Y-49000000D02*
X65771500Y-49634000D01*
X68801200Y-56970600D02*
X67862500Y-57909300D01*
X68801300Y-56970600D02*
X68801200Y-56970600D01*
X68808400Y-56977700D02*
X68801300Y-56970600D01*
X68891000Y-56977700D02*
X68808400Y-56977700D01*
X69118700Y-56750000D02*
X68891000Y-56977700D01*
X69350000Y-56750000D02*
X69118700Y-56750000D01*
X67862500Y-57909300D02*
X67862500Y-58000000D01*
%TO.N,/NFAULT*%
X87912500Y-43000000D02*
X89450500Y-44538000D01*
X120619900Y-45219900D02*
X124430000Y-49030000D01*
X90132400Y-45219900D02*
X120619900Y-45219900D01*
X89450500Y-44538000D02*
X90132400Y-45219900D01*
X89450500Y-44538000D02*
X85356000Y-44538000D01*
%TO.N,/MOTOR_W*%
X73250000Y-58650000D02*
X73750000Y-58650000D01*
X31432800Y-50432800D02*
X45216400Y-50432800D01*
X26000000Y-45000000D02*
X31432800Y-50432800D01*
X73250000Y-59452800D02*
X73250000Y-58650000D01*
%TO.N,/MOTOR_V*%
X71750000Y-58650000D02*
X72250000Y-58650000D01*
X72250000Y-59348600D02*
X72356800Y-59455400D01*
X72250000Y-58650000D02*
X72250000Y-59348600D01*
X27917900Y-51917900D02*
X65169800Y-51917900D01*
X26000000Y-50000000D02*
X27917900Y-51917900D01*
%TO.N,/MOTOR_U*%
X70750000Y-58650000D02*
X70250000Y-58650000D01*
X29814900Y-58814900D02*
X26000000Y-55000000D01*
X70085100Y-58814900D02*
X29814900Y-58814900D01*
X70250000Y-58650000D02*
X70085100Y-58814900D01*
%TO.N,/PWM_U*%
X85556600Y-50355900D02*
X123679700Y-50355900D01*
X84912500Y-51000000D02*
X85556600Y-50355900D01*
%TO.N,/DRVOFF*%
X101912500Y-98000000D02*
X99912500Y-100000000D01*
X112300000Y-98000000D02*
X101912500Y-98000000D01*
X65549800Y-98549800D02*
X63000000Y-96000000D01*
X94783800Y-98549800D02*
X65549800Y-98549800D01*
X97051700Y-100817700D02*
X94783800Y-98549800D01*
X99094800Y-100817700D02*
X97051700Y-100817700D01*
X99912500Y-100000000D02*
X99094800Y-100817700D01*
X74650000Y-58672300D02*
X74488400Y-58833900D01*
X74650000Y-57750000D02*
X74650000Y-58672300D01*
%TO.N,/SOA_RAW*%
X75087500Y-76605100D02*
X74709800Y-76982800D01*
X75087500Y-76000000D02*
X75087500Y-76605100D01*
X70250000Y-51350000D02*
X69682500Y-50782500D01*
%TO.N,/GND*%
X50575000Y-74905000D02*
X45425000Y-74905000D01*
X57500000Y-45000000D02*
X59500000Y-47000000D01*
X50912500Y-45000000D02*
X57500000Y-45000000D01*
X124430000Y-79510000D02*
X101570000Y-79510000D01*
X97447500Y-83465000D02*
X96912500Y-84000000D01*
X97447500Y-79510000D02*
X97447500Y-83465000D01*
X104937500Y-96000000D02*
X99912500Y-96000000D01*
X71250000Y-58048100D02*
X71250000Y-58650000D01*
X69648100Y-58048100D02*
X69350000Y-57750000D01*
X71250000Y-58048100D02*
X69648100Y-58048100D01*
X69675600Y-52750000D02*
X69350000Y-52750000D01*
X69962800Y-53037200D02*
X69675600Y-52750000D01*
X69962800Y-53750000D02*
X69962800Y-53037200D01*
X70750000Y-53750000D02*
X69962800Y-53750000D01*
X72000000Y-55000000D02*
X70750000Y-53750000D01*
X69962800Y-53750000D02*
X69350000Y-53750000D01*
X72750000Y-58274800D02*
X72523300Y-58048100D01*
X72750000Y-58650000D02*
X72750000Y-58274800D01*
X72523300Y-58048100D02*
X71250000Y-58048100D01*
X72523300Y-55250000D02*
X72523300Y-58048100D01*
X72250000Y-55250000D02*
X72523300Y-55250000D01*
X72000000Y-55000000D02*
X72250000Y-55250000D01*
X72523300Y-55250000D02*
X74650000Y-55250000D01*
X93650300Y-29650300D02*
X95000000Y-31000000D01*
X83349700Y-29650300D02*
X93650300Y-29650300D01*
X82000000Y-31000000D02*
X83349700Y-29650300D01*
X50113700Y-45798800D02*
X50912500Y-45000000D01*
X40798800Y-45798800D02*
X50113700Y-45798800D01*
X26000000Y-31000000D02*
X40798800Y-45798800D01*
X80862500Y-79000000D02*
X80862500Y-82000000D01*
X60950000Y-98950000D02*
X63000000Y-101000000D01*
X39490000Y-98950000D02*
X60950000Y-98950000D01*
X37540000Y-97000000D02*
X39490000Y-98950000D01*
X65862500Y-64211900D02*
X65862500Y-65000000D01*
X42650000Y-76202600D02*
X42650000Y-81000000D01*
X44127400Y-76202600D02*
X42650000Y-76202600D01*
X45425000Y-74905000D02*
X44127400Y-76202600D01*
X104937500Y-92025000D02*
X104937500Y-96000000D01*
X96912500Y-84000000D02*
X104937500Y-92025000D01*
X101570000Y-79510000D02*
X97447500Y-79510000D01*
X97447500Y-79510000D02*
X95937500Y-78000000D01*
X50575000Y-73635000D02*
X54277500Y-73635000D01*
X54277500Y-73635000D02*
X55912500Y-72000000D01*
X33882600Y-76202600D02*
X32960000Y-75280000D01*
X42650000Y-76202600D02*
X33882600Y-76202600D01*
X83102300Y-59189800D02*
X83912500Y-60000000D01*
X80209500Y-59189800D02*
X83102300Y-59189800D01*
X79399300Y-60000000D02*
X80209500Y-59189800D01*
X78862500Y-60000000D02*
X79399300Y-60000000D01*
X71250000Y-58650000D02*
X71250000Y-59201100D01*
X78070700Y-60791800D02*
X78862500Y-60000000D01*
X72840700Y-60791800D02*
X78070700Y-60791800D01*
X71250000Y-59201100D02*
X72840700Y-60791800D01*
X43650000Y-90890000D02*
X43650000Y-82000000D01*
X37540000Y-97000000D02*
X43650000Y-90890000D01*
X42650000Y-81000000D02*
X43650000Y-82000000D01*
X43650000Y-82000000D02*
X48937500Y-82000000D01*
X54548900Y-75800700D02*
X54913400Y-75436200D01*
X51470700Y-75800700D02*
X54548900Y-75800700D01*
X50575000Y-74905000D02*
X51470700Y-75800700D01*
X54913400Y-74270900D02*
X54277500Y-73635000D01*
X54913400Y-75436200D02*
X54913400Y-74270900D01*
X79862500Y-46000000D02*
X80904600Y-46000000D01*
X73037500Y-46575900D02*
X73037500Y-45000000D01*
X79083200Y-46779300D02*
X79862500Y-46000000D01*
X73240900Y-46779300D02*
X79083200Y-46779300D01*
X73037500Y-46575900D02*
X73240900Y-46779300D01*
X66862500Y-49000000D02*
X66862500Y-47000000D01*
X72613400Y-47000000D02*
X73037500Y-46575900D01*
X66862500Y-47000000D02*
X72613400Y-47000000D01*
X80060500Y-82802000D02*
X80862500Y-82000000D01*
X76417600Y-82802000D02*
X80060500Y-82802000D01*
X76000000Y-82384400D02*
X76417600Y-82802000D01*
X76000000Y-81578100D02*
X76000000Y-82384400D01*
X72129000Y-77707100D02*
X76000000Y-81578100D01*
X74625300Y-75210800D02*
X72129000Y-77707100D01*
X80862500Y-75210800D02*
X74625300Y-75210800D01*
X80862500Y-76000000D02*
X80862500Y-75210800D01*
X95937500Y-77546900D02*
X95937500Y-78000000D01*
X92586700Y-74196100D02*
X95937500Y-77546900D01*
X81877200Y-74196100D02*
X92586700Y-74196100D01*
X80862500Y-75210800D02*
X81877200Y-74196100D01*
X60288500Y-46211500D02*
X59500000Y-47000000D01*
X66074000Y-46211500D02*
X60288500Y-46211500D01*
X66862500Y-47000000D02*
X66074000Y-46211500D01*
X68663000Y-50800500D02*
X66862500Y-49000000D01*
X68663000Y-52482700D02*
X68663000Y-50800500D01*
X68930300Y-52750000D02*
X68663000Y-52482700D01*
X69350000Y-52750000D02*
X68930300Y-52750000D01*
X66239200Y-64211900D02*
X65862500Y-64211900D01*
X71250000Y-59201100D02*
X66239200Y-64211900D01*
X60078400Y-73294600D02*
X59605100Y-73767900D01*
X67716500Y-73294600D02*
X60078400Y-73294600D01*
X72129000Y-77707100D02*
X67716500Y-73294600D01*
X55257800Y-75780600D02*
X54913400Y-75436200D01*
X57592400Y-75780600D02*
X55257800Y-75780600D01*
X59605100Y-73767900D02*
X57592400Y-75780600D01*
X62154500Y-64758000D02*
X61912500Y-65000000D01*
X62967900Y-64758000D02*
X62154500Y-64758000D01*
X63514000Y-64211900D02*
X65862500Y-64211900D01*
X62967900Y-64758000D02*
X63514000Y-64211900D01*
%TO.N,/I_A*%
X79137500Y-76000000D02*
X76912500Y-76000000D01*
X80141000Y-77003500D02*
X87522100Y-77003500D01*
X79137500Y-76000000D02*
X80141000Y-77003500D01*
%TO.N,/I_C*%
X79137500Y-82000000D02*
X76912500Y-82000000D01*
X79137500Y-81427800D02*
X79137500Y-82000000D01*
X79543400Y-81021900D02*
X79137500Y-81427800D01*
X99118000Y-69438000D02*
X82796900Y-69438000D01*
X101570000Y-71890000D02*
X99118000Y-69438000D01*
%TO.N,/SOC_RAW*%
X75087500Y-82448000D02*
X76041100Y-83401600D01*
X75087500Y-82000000D02*
X75087500Y-82448000D01*
X71840800Y-49015500D02*
X75000400Y-49015500D01*
X71142500Y-49713800D02*
X71840800Y-49015500D01*
X71142500Y-50366500D02*
X71142500Y-49713800D01*
X71250000Y-50474000D02*
X71142500Y-50366500D01*
X71250000Y-51350000D02*
X71250000Y-50474000D01*
%TD*%
M02*
